<svg xmlns="http://www.w3.org/2000/svg" width="99" height="72" fill="none" viewBox="0 0 99 72"><ellipse cx="2.77222" cy="3.11688" fill="#F62424" rx="2.5" ry="2.62469"/><ellipse cx="2.77222" cy="46.9013" fill="#F62424" rx="2.5" ry="2.62469"/><ellipse cx="40.1624" cy="3.11688" fill="#F62424" rx="2.5" ry="2.62469"/><ellipse cx="40.1624" cy="46.9013" fill="#F62424" rx="2.5" ry="2.62469"/><ellipse cx="77.5522" cy="3.11688" fill="#F62424" rx="2.5" ry="2.62469"/><ellipse cx="77.5522" cy="46.9013" fill="#F62424" rx="2.5" ry="2.62469"/><ellipse cx="2.77222" cy="25.009" fill="#F62424" rx="2.5" ry="2.62469"/><ellipse cx="2.77222" cy="68.7932" fill="#F62424" rx="2.5" ry="2.62469"/><ellipse cx="40.1624" cy="25.009" fill="#F62424" rx="2.5" ry="2.62469"/><ellipse cx="40.1624" cy="68.7932" fill="#F62424" rx="2.5" ry="2.62469"/><ellipse cx="77.5522" cy="25.009" fill="#F62424" rx="2.5" ry="2.62469"/><ellipse cx="77.5522" cy="68.7932" fill="#F62424" rx="2.5" ry="2.62469"/><ellipse cx="21.4673" cy="3.11688" fill="#F62424" rx="2.5" ry="2.62469"/><ellipse cx="21.4673" cy="46.9013" fill="#F62424" rx="2.5" ry="2.62469"/><ellipse cx="58.8572" cy="3.11688" fill="#F62424" rx="2.5" ry="2.62469"/><ellipse cx="58.8572" cy="46.9013" fill="#F62424" rx="2.5" ry="2.62469"/><ellipse cx="96.2473" cy="3.11688" fill="#F62424" rx="2.5" ry="2.62469"/><ellipse cx="96.2473" cy="46.9013" fill="#F62424" rx="2.5" ry="2.62469"/><ellipse cx="21.4673" cy="25.009" fill="#F62424" rx="2.5" ry="2.62469"/><ellipse cx="21.4673" cy="68.7932" fill="#F62424" rx="2.5" ry="2.62469"/><ellipse cx="58.8572" cy="25.009" fill="#F62424" rx="2.5" ry="2.62469"/><ellipse cx="58.8572" cy="68.7932" fill="#F62424" rx="2.5" ry="2.62469"/><ellipse cx="96.2473" cy="25.009" fill="#F62424" rx="2.5" ry="2.62469"/><ellipse cx="96.2473" cy="68.7932" fill="#F62424" rx="2.5" ry="2.62469"/></svg>