<svg xmlns="http://www.w3.org/2000/svg" width="104" height="76" fill="none" viewBox="0 0 104 76"><ellipse cx="4.79624" cy="5" fill="#377DFF" rx="4.79624" ry="5"/><ellipse cx="4.79624" cy="48.7843" fill="#377DFF" rx="4.79624" ry="5"/><ellipse cx="42.4515" cy="5" fill="#377DFF" rx="4.79624" ry="5"/><ellipse cx="42.4515" cy="48.7843" fill="#377DFF" rx="4.79624" ry="5"/><ellipse cx="80.1065" cy="5" fill="#377DFF" rx="4.79624" ry="5"/><ellipse cx="80.1065" cy="48.7843" fill="#377DFF" rx="4.79624" ry="5"/><ellipse cx="4.79624" cy="26.8921" fill="#377DFF" rx="4.79624" ry="5"/><ellipse cx="4.79624" cy="70.6764" fill="#377DFF" rx="4.79624" ry="5"/><ellipse cx="42.4515" cy="26.8921" fill="#377DFF" rx="4.79624" ry="5"/><ellipse cx="42.4515" cy="70.6764" fill="#377DFF" rx="4.79624" ry="5"/><ellipse cx="80.1065" cy="26.8921" fill="#377DFF" rx="4.79624" ry="5"/><ellipse cx="80.1065" cy="70.6764" fill="#377DFF" rx="4.79624" ry="5"/><ellipse cx="23.6239" cy="5" fill="#377DFF" rx="4.79624" ry="5"/><ellipse cx="23.6239" cy="48.7843" fill="#377DFF" rx="4.79624" ry="5"/><ellipse cx="61.2789" cy="5" fill="#377DFF" rx="4.79624" ry="5"/><ellipse cx="61.2789" cy="48.7843" fill="#377DFF" rx="4.79624" ry="5"/><ellipse cx="98.9342" cy="5" fill="#377DFF" rx="4.79624" ry="5"/><ellipse cx="98.9342" cy="48.7843" fill="#377DFF" rx="4.79624" ry="5"/><ellipse cx="23.6239" cy="26.8921" fill="#377DFF" rx="4.79624" ry="5"/><ellipse cx="23.6239" cy="70.6764" fill="#377DFF" rx="4.79624" ry="5"/><ellipse cx="61.2789" cy="26.8921" fill="#377DFF" rx="4.79624" ry="5"/><ellipse cx="61.2789" cy="70.6764" fill="#377DFF" rx="4.79624" ry="5"/><ellipse cx="98.9342" cy="26.8921" fill="#377DFF" rx="4.79624" ry="5"/><ellipse cx="98.9342" cy="70.6764" fill="#377DFF" rx="4.79624" ry="5"/></svg>