<svg xmlns="http://www.w3.org/2000/svg" width="122" height="112" fill="none" viewBox="0 0 122 112"><ellipse cx="37.7981" cy="3.54388" fill="#24F639" rx="2.5" ry="2.62469" transform="rotate(31.479 37.798 3.544)"/><ellipse cx="14.9346" cy="40.8847" fill="#24F639" rx="2.5" ry="2.62469" transform="rotate(31.479 14.935 40.885)"/><ellipse cx="69.6856" cy="23.0685" fill="#24F639" rx="2.5" ry="2.62469" transform="rotate(31.479 69.686 23.069)"/><ellipse cx="46.8218" cy="60.4091" fill="#24F639" rx="2.5" ry="2.62469" transform="rotate(31.479 46.822 60.41)"/><ellipse cx="101.573" cy="42.593" fill="#24F639" rx="2.5" ry="2.62469" transform="rotate(31.479 101.573 42.593)"/><ellipse cx="78.7093" cy="79.9338" fill="#24F639" rx="2.5" ry="2.62469" transform="rotate(31.479 78.71 79.934)"/><ellipse cx="26.3665" cy="22.2141" fill="#24F639" rx="2.5" ry="2.62469" transform="rotate(31.479 26.366 22.214)"/><ellipse cx="3.50296" cy="59.5546" fill="#24F639" rx="2.5" ry="2.62469" transform="rotate(31.479 3.503 59.555)"/><ellipse cx="58.2537" cy="41.7387" fill="#24F639" rx="2.5" ry="2.62469" transform="rotate(31.479 58.254 41.739)"/><ellipse cx="35.3904" cy="79.0793" fill="#24F639" rx="2.5" ry="2.62469" transform="rotate(31.479 35.39 79.08)"/><ellipse cx="90.1411" cy="61.2634" fill="#24F639" rx="2.5" ry="2.62469" transform="rotate(31.479 90.141 61.263)"/><ellipse cx="67.2776" cy="98.6037" fill="#24F639" rx="2.5" ry="2.62469" transform="rotate(31.479 67.278 98.604)"/><ellipse cx="53.7417" cy="13.3061" fill="#24F639" rx="2.5" ry="2.62469" transform="rotate(31.479 53.742 13.306)"/><ellipse cx="30.8782" cy="50.6469" fill="#24F639" rx="2.5" ry="2.62469" transform="rotate(31.479 30.878 50.647)"/><ellipse cx="85.6292" cy="32.8307" fill="#24F639" rx="2.5" ry="2.62469" transform="rotate(31.479 85.63 32.83)"/><ellipse cx="62.7657" cy="70.1713" fill="#24F639" rx="2.5" ry="2.62469" transform="rotate(31.479 62.766 70.171)"/><ellipse cx="117.517" cy="52.3552" fill="#24F639" rx="2.5" ry="2.62469" transform="rotate(31.479 117.517 52.355)"/><ellipse cx="94.6531" cy="89.696" fill="#24F639" rx="2.5" ry="2.62469" transform="rotate(31.479 94.653 89.696)"/><ellipse cx="42.3101" cy="31.9765" fill="#24F639" rx="2.5" ry="2.62469" transform="rotate(31.479 42.31 31.977)"/><ellipse cx="19.4466" cy="69.3171" fill="#24F639" rx="2.5" ry="2.62469" transform="rotate(31.479 19.447 69.317)"/><ellipse cx="74.1975" cy="51.5009" fill="#24F639" rx="2.5" ry="2.62469" transform="rotate(31.479 74.198 51.5)"/><ellipse cx="51.334" cy="88.8415" fill="#24F639" rx="2.5" ry="2.62469" transform="rotate(31.479 51.334 88.841)"/><ellipse cx="106.085" cy="71.0256" fill="#24F639" rx="2.5" ry="2.62469" transform="rotate(31.479 106.085 71.026)"/><ellipse cx="83.2215" cy="108.366" fill="#24F639" rx="2.5" ry="2.62469" transform="rotate(31.479 83.222 108.366)"/></svg>