<svg xmlns="http://www.w3.org/2000/svg" width="178.000000" height="100.000000" fill="none" viewBox="0 0 178 100"><defs><clipPath id="a"><path fill="#fff" fill-opacity="0" d="M0 0h178v100H0z"/></clipPath></defs><g fill="#080829" fill-opacity="1.000000" clip-path="url(#a)"><path d="M43.25 40.73v-3.807H31.313v26.154H43.25V59.27a9.2 9.2 0 0 1-6.518-2.715A9.3 9.3 0 0 1 34.03 50a9.3 9.3 0 0 1 2.7-6.555 9.2 9.2 0 0 1 6.518-2.715"/><path d="M43.25 40.73v18.54a9.2 9.2 0 0 0 6.518-2.715 9.3 9.3 0 0 0 2.7-6.555 9.3 9.3 0 0 0-2.7-6.555 9.2 9.2 0 0 0-6.519-2.715m15.916 2.329h2.672V56h-2.672zm4.169 8.509c0-.932.275-1.842.79-2.616a4.7 4.7 0 0 1 2.103-1.731 4.65 4.65 0 0 1 5.099 1.031 4.73 4.73 0 0 1 .996 5.134 4.7 4.7 0 0 1-1.733 2.104 4.66 4.66 0 0 1-2.606.78 4.6 4.6 0 0 1-3.308-1.368 4.65 4.65 0 0 1-1.341-3.334m6.698 0a2.05 2.05 0 0 0-1.29-1.848 2.02 2.02 0 0 0-2.195.476 2.05 2.05 0 0 0-.416 2.219A2.04 2.04 0 0 0 68 53.663a1.97 1.97 0 0 0 1.46-.606 2 2 0 0 0 .553-1.49zm13.173-4.434v8.428c0 2.974-2.316 4.237-4.658 4.237a4.43 4.43 0 0 1-2.393-.477 4.46 4.46 0 0 1-1.785-1.673l2.254-1.307a2.01 2.01 0 0 0 2.013 1.12 1.77 1.77 0 0 0 1.442-.478 1.8 1.8 0 0 0 .553-1.422v-.815a3.15 3.15 0 0 1-2.574 1.147 4.44 4.44 0 0 1-3.15-1.312 4.5 4.5 0 0 1-1.304-3.167 4.5 4.5 0 0 1 1.305-3.166 4.44 4.44 0 0 1 3.149-1.312 3.13 3.13 0 0 1 2.574 1.146v-.895zm-2.574 4.254a2.16 2.16 0 0 0-.316-1.217 2.127 2.127 0 0 0-3.299-.424 2.15 2.15 0 0 0-.505 2.352c.159.398.433.74.786.98s.77.37 1.196.37a2 2 0 0 0 1.524-.553 2 2 0 0 0 .614-1.508m4.079.18c0-.93.275-1.84.789-2.614a4.7 4.7 0 0 1 2.1-1.732 4.65 4.65 0 0 1 5.097 1.024 4.725 4.725 0 0 1 1.008 5.128 4.7 4.7 0 0 1-1.726 2.108 4.66 4.66 0 0 1-2.6.788 4.6 4.6 0 0 1-3.317-1.365 4.65 4.65 0 0 1-1.35-3.337m6.698 0a2.03 2.03 0 0 0-1.292-1.849 2.02 2.02 0 0 0-2.196.48 2.05 2.05 0 0 0-.41 2.222 2.02 2.02 0 0 0 1.877 1.243 1.97 1.97 0 0 0 1.46-.607 2 2 0 0 0 .552-1.49zm3.874-6.808a1.6 1.6 0 0 1 .978-1.472 1.58 1.58 0 0 1 1.728.345 1.6 1.6 0 0 1-.24 2.453 1.6 1.6 0 0 1-.881.269 1.6 1.6 0 0 1-1.116-.472 1.62 1.62 0 0 1-.47-1.123m.258 2.374h2.672v8.867H95.54zm14.109 4.434c.03.59-.057 1.18-.254 1.735a4.47 4.47 0 0 1-2.301 2.547 4.4 4.4 0 0 1-1.693.42 3.3 3.3 0 0 1-2.672-1.084v4.38h-2.672V47.134h2.672v.833a3.29 3.29 0 0 1 2.672-1.075 4.43 4.43 0 0 1 3.087 1.453 4.5 4.5 0 0 1 1.161 3.223m-2.672 0a2.12 2.12 0 0 0-1.336-1.915 2.09 2.09 0 0 0-2.273.496 2.12 2.12 0 0 0 .351 3.238c.346.229.751.35 1.165.348a2 2 0 0 0 1.529-.612 2.04 2.04 0 0 0 .564-1.555m10.804 1.772c0 2.043-1.782 2.912-3.669 2.912a3.86 3.86 0 0 1-3.795-2.114l2.298-1.308a1.44 1.44 0 0 0 1.488 1.048c.632 0 .953-.197.953-.555 0-.976-4.338-.457-4.338-3.529 0-1.935 1.621-2.902 3.456-2.902a3.85 3.85 0 0 1 2.005.46 3.87 3.87 0 0 1 1.486 1.43L115.368 50a1.3 1.3 0 0 0-1.186-.78c-.462 0-.738.18-.738.493 0 1.021 4.337.35 4.337 3.628m9.682-6.207V56h-2.672v-.833a3.02 3.02 0 0 1-2.512 1.102c-1.781 0-3.304-1.281-3.304-3.672v-5.464h2.672v5.06a1.48 1.48 0 0 0 .399 1.164 1.46 1.46 0 0 0 1.142.448c.962 0 1.639-.572 1.639-1.79v-4.882zm15.141 3.421v5.446h-2.672v-5.213c0-.895-.419-1.45-1.265-1.45s-1.38.617-1.38 1.665v4.998h-2.672v-5.213c0-.895-.419-1.45-1.265-1.45s-1.38.617-1.38 1.665v4.998h-2.672v-8.867h2.672v.815a2.72 2.72 0 0 1 2.368-1.057 2.6 2.6 0 0 1 2.307 1.164 2.9 2.9 0 0 1 1.13-.913c.446-.203.938-.29 1.427-.251 2.084 0 3.402 1.451 3.402 3.663m2.244-3.475c1.082 0 1.96-.882 1.96-1.97s-.878-1.97-1.96-1.97a1.965 1.965 0 0 0-1.959 1.97c0 1.088.877 1.97 1.959 1.97"/></g></svg>