<svg xmlns="http://www.w3.org/2000/svg" width="80.000000" height="80.000000" fill="none" viewBox="0 0 80 80"><defs><clipPath id="a"><path fill="#fff" fill-opacity="0" d="M18 18h44v44H18z"/></clipPath></defs><rect width="80.000000" height="80.000000" fill="#FE7F51" fill-opacity="0.300000" rx="20.000000"/><g clip-path="url(#a)"><path fill="#080829" fill-opacity="1.000000" fill-rule="evenodd" d="M49.496 26.085a4.42 4.42 0 0 1 4.419-4.418 4.42 4.42 0 0 1 4.418 4.418 4.42 4.42 0 0 1-4.418 4.418 4.42 4.42 0 0 1-4.419-4.418M42.438 45.06l5.298-6.837-.073.037c.293-.403.348-.917.147-1.375s-.642-.77-1.117-.807a1.41 1.41 0 0 0-1.285.569l-4.435 5.738-5.08-3.997a1.45 1.45 0 0 0-1.045-.293 1.42 1.42 0 0 0-.917.548l-5.425 7.06-.111.165a1.37 1.37 0 0 0 .384 1.742c.257.165.532.275.844.275.423.018.825-.204 1.081-.55l4.602-5.924 5.225 3.926.165.108c.587.311 1.32.167 1.742-.385m3.886-20.128a9 9 0 0 0-.11 1.375c0 4.125 3.337 7.46 7.444 7.46a8.5 8.5 0 0 0 1.356-.127v14.793c0 6.217-3.666 9.902-9.9 9.902H31.569c-6.235 0-9.902-3.685-9.902-9.902V34.867c0-6.233 3.667-9.936 9.902-9.936z"/></g></svg>