<svg xmlns="http://www.w3.org/2000/svg" width="80.000000" height="80.000000" fill="none" viewBox="0 0 80 80"><defs><clipPath id="a"><path fill="#fff" fill-opacity="0" d="M18 18h44v44H18z"/></clipPath></defs><rect width="80.000000" height="80.000000" fill="#545479" fill-opacity="0.300000" rx="20.000000"/><g clip-path="url(#a)"><path fill="#080829" fill-opacity="1.000000" fill-rule="evenodd" d="M42.658 26.947h5.628c6.765 0 10.066 3.612 10.047 11.019v8.928c0 7.077-4.363 11.44-11.458 11.44H33.106c-7.058 0-11.44-4.364-11.44-11.459V33.107c0-7.59 3.374-11.44 10.029-11.44h2.897c1.706-.018 3.3.77 4.345 2.108l1.613 2.145a2.7 2.7 0 0 0 2.108 1.027M31.512 46.032h16.976a1.37 1.37 0 0 0 1.357-1.375c0-.77-.605-1.375-1.357-1.375H31.512c-.77 0-1.375.605-1.375 1.375 0 .752.604 1.375 1.375 1.375"/></g></svg>