<svg xmlns="http://www.w3.org/2000/svg" width="178.000000" height="100.000000" fill="none" viewBox="0 0 178 100"><defs><clipPath id="a"><path fill="#fff" fill-opacity="0" d="M0 0h178v100H0z"/></clipPath></defs><g fill="#080829" fill-opacity="1.000000" clip-path="url(#a)"><path d="M67.833 57.39a2.63 2.63 0 0 1-1.66-.48 1.56 1.56 0 0 1-.627-1.31v-9.27a.26.26 0 0 1 .172-.278.3.3 0 0 1 .116-.012h1.67c.19 0 .28.1.28.29v8.55c0 .38.168.57.516.57q.223.01.438-.05c.199 0 .308.06.318.24l.15 1.25a.26.26 0 0 1-.24.31 3.7 3.7 0 0 1-1.133.19m9.397-1.07a4.67 4.67 0 0 1-5.967 0 4.01 4.01 0 0 1 0-5.63 4.69 4.69 0 0 1 5.967 0 4.07 4.07 0 0 1 1.123 2.81 4.07 4.07 0 0 1-1.123 2.81zM72.835 55a2.11 2.11 0 0 0 2.844 0 2.25 2.25 0 0 0 0-2.94 2.11 2.11 0 0 0-2.844 0 2.25 2.25 0 0 0 0 2.94m14.717-5.13c.189 0 .279.1.279.29v7.17a3.28 3.28 0 0 1-1.104 2.57 4.16 4.16 0 0 1-2.894 1 4.63 4.63 0 0 1-2.695-.75 3 3 0 0 1-1.303-2c0-.2 0-.29.269-.29h1.67a.37.37 0 0 1 .329.23c.108.304.324.556.606.71a2.3 2.3 0 0 0 1.114.26 1.75 1.75 0 0 0 1.283-.46 1.7 1.7 0 0 0 .467-1.25v-.63a3.32 3.32 0 0 1-2.068.65 3.84 3.84 0 0 1-2.824-1.09 4 4 0 0 1-1.118-2.78c0-1.037.4-2.034 1.118-2.78a3.88 3.88 0 0 1 2.824-1.08 3.33 3.33 0 0 1 2.118.69v-.16a.26.26 0 0 1 .278-.29zm-3.858 5.72a1.74 1.74 0 0 0 1.362-.59 2.46 2.46 0 0 0 0-3 1.74 1.74 0 0 0-1.352-.58 1.78 1.78 0 0 0-1.382.59c-.367.41-.56.949-.538 1.5-.018.546.17 1.078.527 1.49a1.8 1.8 0 0 0 1.383.59m12.718.73a4.69 4.69 0 0 1-5.966 0 4.08 4.08 0 0 1 0-5.63 4.7 4.7 0 0 1 5.966 0 4.07 4.07 0 0 1 0 5.62zM92.007 55a2 2 0 0 0 1.432.55 1.98 1.98 0 0 0 1.422-.55 2.28 2.28 0 0 0 0-2.94 2 2 0 0 0-1.422-.55 1.98 1.98 0 0 0-1.432.55 2.28 2.28 0 0 0 0 2.94m9.119-6.83a1.44 1.44 0 0 1-1.9 0 1.21 1.21 0 0 1-.279-1.36c.065-.15.16-.287.28-.4a1.466 1.466 0 0 1 1.899 0 1.215 1.215 0 0 1 0 1.76m.209 9.22a2.66 2.66 0 0 1-1.661-.48 1.58 1.58 0 0 1-.617-1.31v-5.44a.26.26 0 0 1 .173-.278.3.3 0 0 1 .116-.012h1.67c.189 0 .279.1.279.29v4.72q0 .57.507.57.227.008.448-.05c.198 0 .308.06.318.24l.149 1.25a.264.264 0 0 1-.239.31 3.7 3.7 0 0 1-1.143.19m7.527-7.76a3.88 3.88 0 0 1 2.844 1.08 4.114 4.114 0 0 1 0 5.59 3.86 3.86 0 0 1-2.844 1.09 3.4 3.4 0 0 1-2.078-.65v3.61c0 .19-.099.28-.288.28h-1.671a.236.236 0 0 1-.271-.165.24.24 0 0 1-.007-.115v-8.2a.517.517 0 0 0-.587-.59h-.328q-.328 0-.328-.24v-1.18a.32.32 0 0 1 .228-.33 3 3 0 0 1 1.074-.18 1.83 1.83 0 0 1 1.8 1 3.34 3.34 0 0 1 2.456-1M107.311 55a1.9 1.9 0 0 0 1.372.59 1.88 1.88 0 0 0 1.373-.59c.374-.419.57-.968.547-1.53a2.14 2.14 0 0 0-.547-1.53 1.9 1.9 0 0 0-1.373-.59 1.88 1.88 0 0 0-1.372.59c-.362.425-.55.971-.527 1.53a2.25 2.25 0 0 0 .527 1.53m10.183 2.39a4.77 4.77 0 0 1-2.556-.62 2.43 2.43 0 0 1-1.153-1.77c0-.2.069-.3.288-.3h1.462a.38.38 0 0 1 .328.22c.209.54.756.81 1.631.81.305.014.61-.048.885-.18a.58.58 0 0 0 .338-.49c0-.26-.159-.44-.477-.56a5.4 5.4 0 0 0-1.164-.25 11 11 0 0 1-1.392-.25 2.3 2.3 0 0 1-1.163-.67 2.145 2.145 0 0 1 .427-3.1 4.1 4.1 0 0 1 2.407-.64 4.4 4.4 0 0 1 2.347.59 2.23 2.23 0 0 1 1.093 1.57q0 .3-.268.3h-1.472a.31.31 0 0 1-.298-.18 1 1 0 0 0-.517-.53 1.75 1.75 0 0 0-.855-.2 1.7 1.7 0 0 0-.846.17.5.5 0 0 0-.318.46.64.64 0 0 0 .477.59q.575.218 1.184.3.699.093 1.382.26c.445.102.851.335 1.163.67a1.9 1.9 0 0 1 .488 1.37 2.01 2.01 0 0 1-.925 1.74c-.743.48-1.614.72-2.496.69m13.932-.5a.27.27 0 0 1-.229.31c-.363.12-.742.183-1.124.19a2.2 2.2 0 0 1-1.989-.87 3.6 3.6 0 0 1-2.535.87 3.06 3.06 0 0 1-2.327-.91 3.3 3.3 0 0 1-.687-1.114 3.3 3.3 0 0 1-.198-1.296v-3.91c0-.19.089-.29.278-.29h1.671c.189 0 .278.1.278.29v3.61c-.018.45.134.89.428 1.23a1.5 1.5 0 0 0 1.143.47 1.65 1.65 0 0 0 1.194-.44 1.6 1.6 0 0 0 .447-1.19v-3.68c0-.19.09-.29.279-.29h1.69c.189 0 .279.1.279.29v4.71c0 .39.169.58.497.58q.232.01.457-.05a.26.26 0 0 1 .298.128.3.3 0 0 1 .03.112zm15.801 0q.013.054.003.11a.26.26 0 0 1-.127.17.25.25 0 0 1-.105.03 3.8 3.8 0 0 1-1.143.19 2.64 2.64 0 0 1-1.661-.48 1.56 1.56 0 0 1-.666-1.31v-2.35a1.78 1.78 0 0 0-.418-1.23 1.41 1.41 0 0 0-1.114-.47 1.24 1.24 0 0 0-.994.44 1.78 1.78 0 0 0-.378 1.18v3.69c0 .19-.09.29-.278.29h-1.681a.26.26 0 0 1-.288-.29v-3.61a1.87 1.87 0 0 0-.388-1.23 1.3 1.3 0 0 0-.995-.47 1.44 1.44 0 0 0-1.093.44 1.65 1.65 0 0 0-.408 1.18v3.69a.26.26 0 0 1-.074.216.26.26 0 0 1-.215.074h-1.62c-.189 0-.279-.1-.279-.29v-4.71a.5.5 0 0 0-.021-.239.51.51 0 0 0-.566-.351h-.328q-.328 0-.328-.24v-1.18a.32.32 0 0 1 .229-.33 3 3 0 0 1 1.074-.18 1.86 1.86 0 0 1 1.77.92 3.36 3.36 0 0 1 2.526-.92 2.84 2.84 0 0 1 2.356 1.06 3.26 3.26 0 0 1 2.606-1.06 3.13 3.13 0 0 1 2.357.91 3.26 3.26 0 0 1 .885 2.41v1.93c0 .38.169.57.487.57q.232.01.457-.05.309 0 .328.24zM30.622 48.57a13.7 13.7 0 0 1 4.827-7.48 13.57 13.57 0 0 1 8.384-2.905c3.038 0 5.99 1.023 8.384 2.904a13.7 13.7 0 0 1 4.827 7.48H55.85a9.6 9.6 0 0 0-5.638 1.731q-.144.105-.298.19h-.14a3 3 0 0 1-.298-.19 10.07 10.07 0 0 0-11.286 0 3 3 0 0 1-.299.19h-.14a3 3 0 0 1-.297-.19 9.6 9.6 0 0 0-5.639-1.73zm23.08 6.27a3.34 3.34 0 0 1 2.148-.71h1.601v-3.21h-1.6a6.32 6.32 0 0 0-3.81 1.22 3.61 3.61 0 0 1-4.295 0 6.74 6.74 0 0 0-7.727 0 3.61 3.61 0 0 1-4.296 0 6.32 6.32 0 0 0-3.858-1.22h-1.65v3.21h1.6a3.34 3.34 0 0 1 2.148.71 6.72 6.72 0 0 0 7.717 0 3.36 3.36 0 0 1 2.148-.71 3.32 3.32 0 0 1 2.148.71 6.74 6.74 0 0 0 7.726 0m0 5.74a3.34 3.34 0 0 1 2.148-.71h1.601v-3.21h-1.6a6.32 6.32 0 0 0-3.81 1.22 3.61 3.61 0 0 1-4.295 0 6.74 6.74 0 0 0-7.727 0 3.61 3.61 0 0 1-4.296 0 6.32 6.32 0 0 0-3.858-1.22h-1.65v3.21h1.6a3.34 3.34 0 0 1 2.148.71 6.72 6.72 0 0 0 7.717 0 3.36 3.36 0 0 1 2.148-.71 3.32 3.32 0 0 1 2.148.71 6.735 6.735 0 0 0 7.726 0"/></g></svg>