<svg xmlns="http://www.w3.org/2000/svg" width="80.000000" height="80.000000" fill="none" viewBox="0 0 80 80"><defs><clipPath id="a"><path fill="#fff" fill-opacity="0" d="M18 18h44v44H18z"/></clipPath></defs><rect width="80.000000" height="80.000000" fill="#3F53D8" fill-opacity="0.300000" rx="20.000000"/><g clip-path="url(#a)"><path fill="#080829" fill-opacity="1.000000" fill-rule="evenodd" d="M31.439 21.668H48.56c6.236 0 9.756 3.536 9.774 9.771v17.124c0 6.233-3.538 9.771-9.774 9.771H31.44c-6.235 0-9.772-3.538-9.772-9.772V31.44c0-6.235 3.537-9.771 9.772-9.771m8.651 29.076c.79 0 1.449-.587 1.522-1.375V30.688a1.5 1.5 0 0 0-.695-1.449 1.54 1.54 0 0 0-2.348 1.448V49.37a1.545 1.545 0 0 0 1.521 1.375m8.436 0c.77 0 1.428-.587 1.521-1.375v-6.013a1.537 1.537 0 0 0-2.347-1.448c-.496.311-.77.86-.696 1.448v6.013a1.516 1.516 0 0 0 1.522 1.375M33.069 49.37a1.516 1.516 0 0 1-1.522 1.375 1.514 1.514 0 0 1-1.52-1.375V36.701a1.54 1.54 0 0 1 .715-1.449 1.51 1.51 0 0 1 1.614 0c.493.312.77.879.713 1.449z"/></g></svg>