<svg xmlns="http://www.w3.org/2000/svg" width="80.000000" height="80.000000" fill="none" viewBox="0 0 80 80"><defs><clipPath id="a"><path fill="#fff" fill-opacity="0" d="M18 18h44v44H18z"/></clipPath></defs><rect width="80.000000" height="80.000000" fill="#2CAE76" fill-opacity="0.300000" rx="20.000000"/><g clip-path="url(#a)"><path fill="#080829" fill-opacity="1.000000" d="M57.298 22.734a3.54 3.54 0 0 0-3.54-.923l-29.51 8.582c-1.335.37-2.282 1.435-2.536 2.788-.261 1.377.649 3.125 1.837 3.855l9.228 5.672a2.39 2.39 0 0 0 2.95-.355l10.567-10.632a1.345 1.345 0 0 1 1.944 0 1.4 1.4 0 0 1 0 1.957L37.653 44.31a2.426 2.426 0 0 0-.354 2.968l5.638 9.32a3.5 3.5 0 0 0 3.045 1.735c.147 0 .312 0 .459-.02 1.43-.184 2.567-1.162 2.99-2.546l8.748-29.472a3.6 3.6 0 0 0-.88-3.562"/></g></svg>