<svg xmlns="http://www.w3.org/2000/svg" width="178.000000" height="100.000000" fill="none" viewBox="0 0 178 100"><defs><clipPath id="a"><path fill="#fff" fill-opacity="0" d="M0 0h178v100H0z"/></clipPath></defs><g clip-path="url(#a)"><path fill="#080829" fill-opacity="1.000000" d="M32.055 62.825h25.65v-25.65h-25.65zm20.713-15.293h-5.42v-5.42h5.42zm-15.777-5.42h5.423v10.356h10.354v5.42H36.99zm37.417-4.937A12.826 12.826 0 1 0 87.233 50a12.84 12.84 0 0 0-12.825-12.825m0 20.713A7.888 7.888 0 1 1 82.296 50a7.9 7.9 0 0 1-7.888 7.888m58.719-20.713a12.83 12.83 0 0 0-11.85 7.916 12.83 12.83 0 0 0 2.78 13.977 12.823 12.823 0 0 0 19.732-1.943A12.8 12.8 0 0 0 145.951 50a12.84 12.84 0 0 0-12.824-12.825m0 20.713a7.89 7.89 0 0 1-7.738-9.426 7.895 7.895 0 0 1 6.198-6.198 7.885 7.885 0 0 1 8.097 3.354 7.9 7.9 0 0 1 1.33 4.382 7.9 7.9 0 0 1-7.887 7.888m-29.36-20.713A12.825 12.825 0 1 0 116.592 50a12.84 12.84 0 0 0-12.825-12.825m0 20.713a7.887 7.887 0 1 1 7.488-10.356h-7.488v4.936h7.488a7.9 7.9 0 0 1-7.488 5.42"/></g></svg>