<svg xmlns="http://www.w3.org/2000/svg" width="80.000000" height="80.000000" fill="none" viewBox="0 0 80 80"><defs><clipPath id="a"><path fill="#fff" fill-opacity="0" d="M18 18h44v44H18z"/></clipPath></defs><rect width="80.000000" height="80.000000" fill="#67E4FF" fill-opacity="0.400000" rx="20.000000"/><g clip-path="url(#a)"><path fill="#080829" fill-opacity="1.000000" fill-rule="evenodd" d="M47.624 33.094c0 4.307-3.435 7.761-7.718 7.761s-7.716-3.454-7.716-7.761c0-4.31 3.434-7.76 7.717-7.76s7.717 3.45 7.717 7.76m-7.718 21.573c-6.29 0-11.661-.998-11.661-4.987 0-3.99 5.336-5.024 11.662-5.024 6.29 0 11.661.997 11.661 4.988 0 3.99-5.337 5.023-11.661 5.023m11.015-21.433a10.57 10.57 0 0 1-1.804 5.942.29.29 0 0 0 .196.447q.432.075.886.086c3.012.08 5.716-1.87 6.463-4.806 1.106-4.36-2.142-8.275-6.28-8.275-.449 0-.88.047-1.298.133-.057.013-.118.04-.15.091-.04.063-.01.147.029.201a10.65 10.65 0 0 1 1.958 6.18m4.989 9.54c2.024.397 3.355 1.21 3.907 2.39.466.97.466 2.093 0 3.061-.844 1.831-3.564 2.419-4.621 2.57-.218.034-.394-.156-.371-.376.54-5.073-3.756-7.48-4.867-8.032-.048-.025-.058-.063-.053-.086.003-.017.023-.043.06-.048 2.404-.045 4.99.286 5.945.52m-26.109-3.065q.453-.01.887-.086a.29.29 0 0 0 .195-.447 10.57 10.57 0 0 1-1.804-5.943c0-2.291.716-4.428 1.958-6.18.04-.054.068-.138.03-.201-.033-.05-.095-.078-.151-.09a6.5 6.5 0 0 0-1.3-.135c-4.137 0-7.386 3.915-6.278 8.276.747 2.935 3.45 4.886 6.463 4.806m.293 2.59c.005.026-.005.062-.05.089-1.114.553-5.41 2.958-4.87 8.03.024.222-.15.41-.369.379-1.057-.152-3.777-.74-4.62-2.571a3.51 3.51 0 0 1 0-3.061c.55-1.181 1.88-1.993 3.905-2.393.957-.233 3.54-.563 5.947-.518a.07.07 0 0 1 .057.046"/></g></svg>