<svg xmlns="http://www.w3.org/2000/svg" width="178.000000" height="100.000000" fill="none" viewBox="0 0 178 100"><defs><clipPath id="a"><path fill="#fff" fill-opacity="0" d="M0 0h178v100H0z"/></clipPath></defs><g fill="#080829" fill-opacity="1.000000" clip-path="url(#a)"><path d="M41.961 48.371a3.66 3.66 0 0 0-1.04 2.929l-.018-.018a4.37 4.37 0 0 1-1.25 3.437 4.32 4.32 0 0 1-3.418 1.257l.018.018a3.64 3.64 0 0 0-2.155.47 3.67 3.67 0 0 0-1.495 1.63 3.7 3.7 0 0 0 .726 4.164 3.64 3.64 0 0 0 4.142.726 3.67 3.67 0 0 0 1.62-1.505 3.7 3.7 0 0 0 .465-2.167l.019.018a4.37 4.37 0 0 1 1.25-3.437 4.32 4.32 0 0 1 3.417-1.257l-.018-.018a3.63 3.63 0 0 0 3.22-1.418 3.68 3.68 0 0 0 .537-3.493 3.7 3.7 0 0 0-1.024-1.506 3.64 3.64 0 0 0-3.433-.762 3.65 3.65 0 0 0-1.56.932zm-7.335 5.265-.02-.018a3.6 3.6 0 0 0 2.915-1.044 3.64 3.64 0 0 0 1.04-2.93l.02.018a4.36 4.36 0 0 1 1.25-3.437 4.32 4.32 0 0 1 3.417-1.257l-.019-.018a3.64 3.64 0 0 0 2.156-.468 3.67 3.67 0 0 0 1.496-1.629 3.7 3.7 0 0 0-.724-4.166 3.64 3.64 0 0 0-4.142-.728 3.66 3.66 0 0 0-1.62 1.505 3.7 3.7 0 0 0-.465 2.168l-.018-.019a4.37 4.37 0 0 1-1.25 3.438 4.32 4.32 0 0 1-3.418 1.256l.018.019a3.6 3.6 0 0 0-2.914 1.044 3.63 3.63 0 0 0-1.04 2.93l-.019-.018a4.37 4.37 0 0 1-1.25 3.437 4.3 4.3 0 0 1-3.418 1.257l.018.018a3.64 3.64 0 0 0-2.155.468 3.67 3.67 0 0 0-1.497 1.629 3.695 3.695 0 0 0 .724 4.166 3.64 3.64 0 0 0 4.142.728 3.66 3.66 0 0 0 1.62-1.505 3.7 3.7 0 0 0 .466-2.168l.019.018a4.37 4.37 0 0 1 1.25-3.437 4.3 4.3 0 0 1 3.418-1.257m-6.666-2.007A3.65 3.65 0 0 0 29 48.7l.019.018a4.37 4.37 0 0 1 1.25-3.438 4.32 4.32 0 0 1 3.42-1.256l-.02-.018a3.64 3.64 0 0 0 2.156-.468 3.67 3.67 0 0 0 1.495-1.629 3.695 3.695 0 0 0-.724-4.164 3.64 3.64 0 0 0-4.14-.728 3.67 3.67 0 0 0-1.62 1.504 3.7 3.7 0 0 0-.466 2.167l-.018-.018a4.37 4.37 0 0 1-1.25 3.437 4.32 4.32 0 0 1-3.417 1.257l.018.018a3.63 3.63 0 0 0-3.22 1.418 3.68 3.68 0 0 0 .488 5 3.64 3.64 0 0 0 3.432.761 3.64 3.64 0 0 0 1.56-.932zm30.805-9.974h2.953v14.453h-2.953zm4.625 9.504a5.27 5.27 0 0 1 .87-2.92 5.23 5.23 0 0 1 2.337-1.943 5.19 5.19 0 0 1 5.694 1.124 5.27 5.27 0 0 1 1.14 5.72 5.24 5.24 0 0 1-1.921 2.36 5.2 5.2 0 0 1-2.901.885 5.13 5.13 0 0 1-3.7-1.512 5.2 5.2 0 0 1-1.518-3.714m7.483 0a2.3 2.3 0 0 0-.412-1.248 2.254 2.254 0 0 0-3.476-.277 2.28 2.28 0 0 0-.463 2.474A2.26 2.26 0 0 0 68.61 53.5a2.2 2.2 0 0 0 1.642-.672 2.23 2.23 0 0 0 .622-1.67m14.723-4.948v9.399c0 3.326-2.58 4.732-5.198 4.732a5 5 0 0 1-2.668-.541 5.04 5.04 0 0 1-1.997-1.859l2.52-1.465a2.24 2.24 0 0 0 2.244 1.247 1.95 1.95 0 0 0 1.618-.522 1.98 1.98 0 0 0 .606-1.596V54.7a3.5 3.5 0 0 1-2.875 1.287 5 5 0 0 1-3.435-1.528 5.05 5.05 0 0 1-1.41-3.5c0-1.307.506-2.563 1.41-3.501a5 5 0 0 1 3.435-1.528 3.48 3.48 0 0 1 2.875 1.287v-1.01zm-2.874 4.75a2.4 2.4 0 0 0-.353-1.36 2.4 2.4 0 0 0-1.05-.928 2.37 2.37 0 0 0-2.634.457 2.4 2.4 0 0 0-.56 2.628 2.39 2.39 0 0 0 2.216 1.503 2.22 2.22 0 0 0 1.698-.619 2.24 2.24 0 0 0 .683-1.68m4.547.198a5.27 5.27 0 0 1 .869-2.92 5.23 5.23 0 0 1 2.337-1.943 5.19 5.19 0 0 1 5.693 1.124 5.28 5.28 0 0 1 1.14 5.72 5.24 5.24 0 0 1-1.92 2.36 5.2 5.2 0 0 1-2.902.885 5.13 5.13 0 0 1-3.699-1.512 5.2 5.2 0 0 1-1.518-3.714m7.482 0a2.3 2.3 0 0 0-.412-1.248 2.255 2.255 0 0 0-3.476-.277 2.28 2.28 0 0 0-.464 2.474 2.26 2.26 0 0 0 2.087 1.392 2.2 2.2 0 0 0 1.643-.672 2.23 2.23 0 0 0 .622-1.67m4.33-7.602a1.79 1.79 0 0 1 1.094-1.646 1.765 1.765 0 0 1 1.931.386 1.79 1.79 0 0 1 .384 1.942 1.77 1.77 0 0 1-1.637 1.1 1.8 1.8 0 0 1-1.248-.527 1.8 1.8 0 0 1-.524-1.255m.299 2.653h2.954v9.9h-2.958zm15.706 4.951a5 5 0 0 1-1.271 3.596 4.92 4.92 0 0 1-3.434 1.629 3.68 3.68 0 0 1-2.933-1.208v4.891h-2.953V46.209h2.953v.93a3.7 3.7 0 0 1 2.933-1.207 4.93 4.93 0 0 1 3.434 1.63 4.98 4.98 0 0 1 1.271 3.597m-2.953 0a2.37 2.37 0 0 0-.423-1.293 2.34 2.34 0 0 0-2.412-.952 2.36 2.36 0 0 0-1.809 1.865 2.36 2.36 0 0 0 1.006 2.401 2.34 2.34 0 0 0 1.296.393 2.23 2.23 0 0 0 1.71-.68 2.28 2.28 0 0 0 .632-1.735m12.067 1.98c0 2.277-1.968 3.247-4.094 3.247a4.3 4.3 0 0 1-2.476-.524 4.3 4.3 0 0 1-1.757-1.832l2.559-1.465a1.61 1.61 0 0 0 1.67 1.168c.708 0 1.063-.218 1.063-.613 0-1.09-4.843-.515-4.843-3.94 0-2.159 1.811-3.247 3.859-3.247a4.31 4.31 0 0 1 3.838 2.118l-2.52 1.366a1.43 1.43 0 0 0-1.318-.871c-.512 0-.828.2-.828.554.004 1.129 4.847.376 4.847 4.039m10.789-6.929v9.9h-2.954v-.931a3.36 3.36 0 0 1-2.814 1.208c-1.989 0-3.679-1.425-3.679-4.1v-6.077h2.953v5.642a1.6 1.6 0 0 0 .079.698 1.62 1.62 0 0 0 1.633 1.102c1.083 0 1.831-.633 1.831-2.04v-5.399zm16.934 3.821v6.078h-2.953v-5.821c0-.99-.472-1.623-1.417-1.623-.984 0-1.536.693-1.536 1.861v5.583h-2.953v-5.821c0-.99-.472-1.623-1.418-1.623-.984 0-1.535.693-1.535 1.861v5.583h-2.954v-9.9h2.954v.91a3.01 3.01 0 0 1 2.638-1.187 2.92 2.92 0 0 1 2.579 1.306 3.23 3.23 0 0 1 2.855-1.306c2.26.001 3.74 1.624 3.74 4.099m2.498-3.882a2.2 2.2 0 0 0 2.192-2.204 2.2 2.2 0 0 0-2.192-2.204c-1.21 0-2.191.987-2.191 2.204s.981 2.204 2.191 2.204"/></g></svg>