<svg xmlns="http://www.w3.org/2000/svg" width="150.000000" height="45.000000" fill="none" viewBox="0 0 150 45"><defs><clipPath id="a"><path fill="#fff" fill-opacity="0" d="M0 0h150v45H0z"/></clipPath></defs><g fill-opacity="1.000000" clip-path="url(#a)"><path fill="#080829" d="M13.326 36.571q2.527 0 4.516-.845 2.02-.845 3.41-2.222 1.39-1.41 1.99-3.068L19.39 28.65q-.695 1.754-2.274 2.912-1.548 1.126-3.79 1.127-2.21 0-3.884-1.033-1.674-1.034-2.621-2.85-.948-1.846-.947-4.288 0-2.442.947-4.257.947-1.848 2.621-2.849 1.674-1.033 3.884-1.033 2.242 0 3.79 1.158 1.579 1.128 2.274 2.88l3.852-1.784q-.6-1.659-1.99-3.037-1.39-1.408-3.41-2.253-1.989-.846-4.516-.846-2.526 0-4.673.908a10.8 10.8 0 0 0-3.727 2.504q-1.578 1.597-2.463 3.82-.885 2.19-.884 4.79 0 2.597.884 4.82.884 2.19 2.463 3.82a11.2 11.2 0 0 0 3.727 2.535q2.147.876 4.673.876m20.2 0q2.495 0 4.547-1.127a8.97 8.97 0 0 0 3.284-3.161q1.232-2.035 1.232-4.602t-1.232-4.57a8.7 8.7 0 0 0-3.252-3.162q-2.053-1.158-4.58-1.159-2.556 0-4.61 1.159a8.97 8.97 0 0 0-3.284 3.161q-1.2 2.005-1.2 4.57 0 2.568 1.2 4.571a8.97 8.97 0 0 0 3.284 3.162Q31 36.57 33.525 36.57m0-3.756q-1.39 0-2.495-.658a4.75 4.75 0 0 1-1.705-1.815q-.6-1.19-.6-2.661t.6-2.63a4.75 4.75 0 0 1 1.705-1.815q1.105-.69 2.495-.689 1.39 0 2.431.689a4.5 4.5 0 0 1 1.674 1.815q.632 1.158.632 2.63t-.632 2.66a4.5 4.5 0 0 1-1.674 1.816q-1.042.658-2.431.658m11.253 3.38h4.137V12.499h-4.137zm7.009 0h4.137V12.499h-4.137zm12.22.376q3.346 0 5.368-2.191v1.816h3.916V24.864q0-1.785-.916-3.162t-2.526-2.129q-1.58-.783-3.695-.783-2.59 0-4.61 1.221-2.022 1.221-2.78 3.225l3.38 1.627a4.03 4.03 0 0 1 1.483-1.846q1.01-.72 2.369-.72 1.42 0 2.273.75.885.72.885 1.816v.564l-5.116.814q-3.032.5-4.484 1.91-1.453 1.409-1.453 3.537 0 2.253 1.61 3.569 1.611 1.314 4.295 1.314m-1.611-5.04q0-1.784 2.431-2.254l4.327-.72v.69q0 1.753-1.232 2.973-1.2 1.22-3.158 1.22-1.042 0-1.705-.5-.663-.532-.663-1.409m23.15 5.04q2.494 0 4.452-1.158a8.7 8.7 0 0 0 3.095-3.193q1.137-2.035 1.137-4.54 0-2.503-1.137-4.507a8.4 8.4 0 0 0-3.095-3.193q-1.958-1.19-4.42-1.19-3.348 0-5.274 2.098v-8.39h-4.137v23.698h3.884v-1.91q.946 1.095 2.368 1.69 1.453.595 3.127.595m-.474-3.756q-1.358 0-2.463-.658a4.75 4.75 0 0 1-1.706-1.815q-.6-1.159-.6-2.661t.6-2.661a4.75 4.75 0 0 1 1.706-1.816 4.73 4.73 0 0 1 2.463-.657q1.42 0 2.495.689a4.67 4.67 0 0 1 1.737 1.815q.63 1.158.631 2.63 0 1.471-.632 2.66a4.67 4.67 0 0 1-1.736 1.816q-1.074.658-2.495.658"/><path fill="#3F53D8" d="M98.395 36.196h4.168v-4.383h-4.168zM126.809 0a22.82 22.82 0 0 0-16.042 6.598 22.43 22.43 0 0 0-6.655 15.902v18.975c.001.935.376 1.83 1.043 2.492A3.57 3.57 0 0 0 107.667 45h19.142c6.02 0 11.793-2.37 16.049-6.59a22.4 22.4 0 0 0 6.649-15.91 22.4 22.4 0 0 0-6.649-15.91A22.8 22.8 0 0 0 126.809 0"/><path fill="#FFF" d="M114.426 17.257h4.137v-4.383h-4.137zm0 18.939h4.137v-17.03h-4.137zm15.41.375q2.494 0 4.547-1.127a8.97 8.97 0 0 0 3.284-3.161q1.232-2.035 1.232-4.602t-1.232-4.57a8.7 8.7 0 0 0-3.252-3.162q-2.054-1.158-4.579-1.159-2.558 0-4.611 1.159a8.97 8.97 0 0 0-3.284 3.161q-1.2 2.005-1.201 4.57 0 2.568 1.201 4.571a8.97 8.97 0 0 0 3.284 3.162q2.084 1.158 4.611 1.158m0-3.756q-1.39 0-2.495-.658a4.74 4.74 0 0 1-1.705-1.815q-.6-1.19-.6-2.661t.6-2.63a4.74 4.74 0 0 1 1.705-1.815q1.104-.69 2.495-.689 1.39 0 2.431.689a4.5 4.5 0 0 1 1.674 1.815q.632 1.158.632 2.63t-.632 2.66a4.5 4.5 0 0 1-1.674 1.816q-1.041.658-2.431.658"/></g></svg>