<svg xmlns="http://www.w3.org/2000/svg" width="178.000000" height="100.000000" fill="none" viewBox="0 0 178 100"><defs><clipPath id="a"><path fill="#fff" fill-opacity="0" d="M0 0h178v100H0z"/></clipPath></defs><g fill-opacity="1.000000" clip-path="url(#a)"><path fill="#080829" d="M10.922 30.047V65.5h157.692V30.047zM166.625 63.5H86.077V32.047h80.548z"/><path fill="#FFF" d="M19.304 53.713V41.926h4.045v8.648h7.136v3.139zm27.129-5.976c0 3.753-2.329 6.156-7.869 6.156-5.031 0-7.883-2.072-7.883-6.156 0-3.619 2.718-6.081 7.883-6.081 5.246 0 7.87 2.267 7.87 6.081m-4.061.045c0-1.7-.702-3.063-3.823-3.063-2.852 0-3.778 1.216-3.778 3.063 0 1.877.85 3.093 3.791 3.093 2.96 0 3.81-1.291 3.81-3.093m16.574 5.931-.105-1.142a7.13 7.13 0 0 1-4.658 1.322c-2.493 0-4.57-.75-5.734-2.267a6.23 6.23 0 0 1-1.105-3.784 5.9 5.9 0 0 1 1.139-3.679c1.178-1.471 3.314-2.447 6.494-2.447 3.658 0 5.808 1.126 6.733 3.018.199.446.315.924.344 1.411h-3.87a1.6 1.6 0 0 0-.522-.751 4.1 4.1 0 0 0-2.613-.675 3.83 3.83 0 0 0-3.016.946 3.27 3.27 0 0 0-.612 2.207 3.35 3.35 0 0 0 .567 2.117 3.92 3.92 0 0 0 3.09 1.036 4.3 4.3 0 0 0 3.076-.96c.186-.234.313-.508.373-.801h-4.164v-2.533h7.793v6.982zm20.097-5.976c0 3.753-2.33 6.156-7.869 6.156-5.032 0-7.884-2.072-7.884-6.156 0-3.619 2.72-6.081 7.884-6.081 5.242 0 7.869 2.267 7.869 6.081m-4.061.045c0-1.7-.702-3.063-3.823-3.063-2.852 0-3.778 1.216-3.778 3.063 0 1.877.85 3.093 3.791 3.093 2.96 0 3.81-1.291 3.81-3.093"/><path fill="#080829" d="M92.891 53.668V41.881h2.884v11.787zm17.693-4.925c-.731.961-1.989 1.4-3.762 1.411-.374 0-5.331-.015-5.331-.015v3.53h-2.822V41.88h8.154a4.68 4.68 0 0 1 3.628 1.186c.644.844.957 1.897.881 2.958a4.27 4.27 0 0 1-.748 2.718M108.27 44.9c-.299-.45-.942-.7-2.031-.7h-4.763v3.588h4.732c1.165 0 1.778-.24 2.062-.706.169-.328.24-.698.209-1.066a2.3 2.3 0 0 0-.209-1.116m11.378 8.948c-5.316 0-6.943-2-6.943-3.98h3.016c0 .977 1.328 1.713 4.061 1.713 2.717 0 3.434-.481 3.434-1.262 0-.871-.537-1.141-3.061-1.426a66 66 0 0 1-2.359-.285c-3.58-.406-4.958-1.472-4.958-3.38 0-2.011 2.017-3.527 6.391-3.527 4.749 0 6.57 1.877 6.57 3.829h-2.983c0-.991-1.12-1.562-3.763-1.562-2.718 0-3.299.375-3.299 1.111 0 .766.596 1.006 3.48 1.35.657.092 2.12.257 2.523.301 3.047.315 4.42 1.426 4.42 3.393-.005 2.343-2.095 3.725-6.529 3.725m15.021-.015c-3.896 0-6.434-1.547-6.434-4.8v-7.152h2.851v7.192c0 1.487 1.21 2.477 3.703 2.477 2.254 0 3.599-.93 3.599-2.477v-7.192h2.822V49.3c0 2.957-2.36 4.533-6.541 4.533m21.994-.165V45.8l-3.659 7.868h-2.776l-3.554-7.868v7.868h-2.685V41.881h3.638l4.031 8.979 4.121-8.979h3.58v11.787z"/></g></svg>