<svg xmlns="http://www.w3.org/2000/svg" width="80.000000" height="80.000000" fill="none" viewBox="0 0 80 80"><defs><clipPath id="a"><path fill="#fff" fill-opacity="0" d="M18 18h44v44H18z"/></clipPath></defs><rect width="80.000000" height="80.000000" fill="#A259FF" fill-opacity="0.300000" rx="20.000000"/><g clip-path="url(#a)"><path fill="#080829" fill-opacity="1.000000" fill-rule="evenodd" d="M47.058 22.585c1.157 0 2.312.163 3.41.531 6.767 2.2 9.205 9.625 7.168 16.115a23.3 23.3 0 0 1-5.516 8.817 70.5 70.5 0 0 1-11.607 9.093l-.458.277-.477-.295a70 70 0 0 1-11.677-9.093 23.7 23.7 0 0 1-5.52-8.799c-2.071-6.49.367-13.915 7.207-16.153a8.3 8.3 0 0 1 1.63-.383h.22q.772-.112 1.54-.11h.202q1.732.051 3.356.605h.109a.6.6 0 0 1 .165.108c.405.13.788.277 1.155.478l.696.312c.169.09.358.227.52.345.104.076.198.143.269.187l.09.053c.158.092.322.187.46.293a11.5 11.5 0 0 1 7.058-2.381m4.877 13.2a1.507 1.507 0 0 0 1.448-1.395v-.219c.055-2.568-1.501-4.895-3.868-5.793-.752-.259-1.577.147-1.852.917a1.5 1.5 0 0 0 .917 1.886c1.175.44 1.961 1.597 1.961 2.878v.057c-.034.42.092.825.349 1.137.256.312.641.493 1.045.532"/></g></svg>