<svg xmlns="http://www.w3.org/2000/svg" width="100" height="73" fill="none" viewBox="0 0 100 73"><ellipse cx="2.53392" cy="3.87248" fill="#EB00FF" rx="2.5" ry="2.62469" transform="rotate(-.745 2.534 3.872)"/><ellipse cx="3.10325" cy="47.6532" fill="#EB00FF" rx="2.5" ry="2.62469" transform="rotate(-.745 3.103 47.653)"/><ellipse cx="39.9209" cy="3.38627" fill="#EB00FF" rx="2.5" ry="2.62469" transform="rotate(-.745 39.92 3.386)"/><ellipse cx="40.4902" cy="47.167" fill="#EB00FF" rx="2.5" ry="2.62469" transform="rotate(-.745 40.49 47.167)"/><ellipse cx="77.3076" cy="2.90007" fill="#EB00FF" rx="2.5" ry="2.62469" transform="rotate(-.745 77.308 2.9)"/><ellipse cx="77.8769" cy="46.6808" fill="#EB00FF" rx="2.5" ry="2.62469" transform="rotate(-.745 77.877 46.68)"/><ellipse cx="2.81859" cy="25.7627" fill="#EB00FF" rx="2.5" ry="2.62469" transform="rotate(-.745 2.819 25.763)"/><ellipse cx="3.38792" cy="69.5431" fill="#EB00FF" rx="2.5" ry="2.62469" transform="rotate(-.745 3.388 69.543)"/><ellipse cx="40.2055" cy="25.2765" fill="#EB00FF" rx="2.5" ry="2.62469" transform="rotate(-.745 40.206 25.276)"/><ellipse cx="40.7749" cy="69.0571" fill="#EB00FF" rx="2.5" ry="2.62469" transform="rotate(-.745 40.775 69.057)"/><ellipse cx="77.5923" cy="24.7903" fill="#EB00FF" rx="2.5" ry="2.62469" transform="rotate(-.745 77.592 24.79)"/><ellipse cx="78.1616" cy="68.5708" fill="#EB00FF" rx="2.5" ry="2.62469" transform="rotate(-.745 78.162 68.57)"/><ellipse cx="21.2273" cy="3.62944" fill="#EB00FF" rx="2.5" ry="2.62469" transform="rotate(-.745 21.227 3.63)"/><ellipse cx="21.7966" cy="47.4101" fill="#EB00FF" rx="2.5" ry="2.62469" transform="rotate(-.745 21.797 47.41)"/><ellipse cx="58.6142" cy="3.14323" fill="#EB00FF" rx="2.5" ry="2.62469" transform="rotate(-.745 58.614 3.143)"/><ellipse cx="59.1836" cy="46.9239" fill="#EB00FF" rx="2.5" ry="2.62469" transform="rotate(-.745 59.184 46.924)"/><ellipse cx="96.001" cy="2.65703" fill="#EB00FF" rx="2.5" ry="2.62469" transform="rotate(-.745 96.001 2.657)"/><ellipse cx="96.5703" cy="46.4378" fill="#EB00FF" rx="2.5" ry="2.62469" transform="rotate(-.745 96.57 46.438)"/><ellipse cx="21.5119" cy="25.5196" fill="#EB00FF" rx="2.5" ry="2.62469" transform="rotate(-.745 21.512 25.52)"/><ellipse cx="22.0813" cy="69.3001" fill="#EB00FF" rx="2.5" ry="2.62469" transform="rotate(-.745 22.081 69.3)"/><ellipse cx="58.8989" cy="25.0335" fill="#EB00FF" rx="2.5" ry="2.62469" transform="rotate(-.745 58.899 25.034)"/><ellipse cx="59.4682" cy="68.8139" fill="#EB00FF" rx="2.5" ry="2.62469" transform="rotate(-.745 59.468 68.814)"/><ellipse cx="96.2856" cy="24.5473" fill="#EB00FF" rx="2.5" ry="2.62469" transform="rotate(-.745 96.286 24.547)"/><ellipse cx="96.855" cy="68.3277" fill="#EB00FF" rx="2.5" ry="2.62469" transform="rotate(-.745 96.855 68.328)"/></svg>