<svg xmlns="http://www.w3.org/2000/svg" width="80.000000" height="80.000000" fill="none" viewBox="0 0 80 80"><defs><clipPath id="a"><path fill="#fff" fill-opacity="0" d="M18 18h44v44H18z"/></clipPath></defs><rect width="80.000000" height="80.000000" fill="#FA5B68" fill-opacity="0.300000" rx="20.000000"/><g clip-path="url(#a)"><path fill="#080829" fill-opacity="1.000000" fill-rule="evenodd" d="M50.576 33.367h7.757c0-6.229-3.732-9.867-10.054-9.867H31.72c-6.323 0-10.054 3.638-10.054 9.787v13.426c0 6.149 3.731 9.787 10.054 9.787h16.56c6.322 0 10.054-3.638 10.054-9.787v-.572h-7.757c-3.6 0-6.518-2.846-6.518-6.355s2.918-6.356 6.518-6.356zm0 2.732h6.388c.756 0 1.37.598 1.37 1.335v4.64c-.01.733-.617 1.326-1.37 1.334h-6.241c-1.823.024-3.416-1.193-3.83-2.923a3.63 3.63 0 0 1 .794-3.03 3.84 3.84 0 0 1 2.89-1.356m.277 4.878h.603c.774 0 1.402-.612 1.402-1.366s-.628-1.367-1.402-1.367h-.603a1.4 1.4 0 0 0-.99.39c-.263.254-.411.6-.411.96 0 .758.625 1.374 1.401 1.383m-20.5-7.61H40.7c.774 0 1.401-.612 1.401-1.367 0-.754-.627-1.366-1.401-1.366H30.353c-.768 0-1.393.602-1.402 1.35 0 .758.625 1.374 1.402 1.383"/></g></svg>