<svg xmlns="http://www.w3.org/2000/svg" width="54" height="50" fill="none" viewBox="0 0 54 50"><path fill="#39435A" d="m33.266 1.874 12.27 21.253c.67 1.16.67 2.587 0 3.747l-12.27 21.253A3.746 3.746 0 0 1 30.022 50h7.19a3.746 3.746 0 0 0 3.245-1.873l12.27-21.253c.67-1.16.67-2.588 0-3.747L40.457 1.874A3.746 3.746 0 0 0 37.212 0h-7.19c1.338 0 2.575.715 3.244 1.874Z"/><path fill="#2C374C" d="m33.266 1.874.547.947c.929.013 1.894.09 2.88.235 1.96.288 3.767.814 5.31 1.498l-1.547-2.68A3.745 3.745 0 0 0 37.212 0h-7.19c1.338 0 2.575.715 3.244 1.874Z"/><path fill="#39435A" d="m19.424 1.874 12.27 21.253c.67 1.16.67 2.587 0 3.747l-12.27 21.253A3.746 3.746 0 0 1 16.179 50h7.191a3.746 3.746 0 0 0 3.244-1.873l12.271-21.253c.67-1.16.67-2.588 0-3.747L26.615 1.874A3.747 3.747 0 0 0 23.37 0h-7.19c1.338 0 2.574.715 3.244 1.874Z"/><path fill="#435F94" d="M19.963 48.126 7.693 26.873a3.747 3.747 0 0 1 0-3.747l12.27-21.253A3.746 3.746 0 0 1 23.208 0h-7.191a3.746 3.746 0 0 0-3.245 1.873L.502 23.126a3.747 3.747 0 0 0 0 3.747l12.27 21.253A3.746 3.746 0 0 0 16.017 50h7.19a3.746 3.746 0 0 1-3.244-1.874Z"/><path fill="#377DFF" d="M27.053 48.127 14.782 26.872a3.747 3.747 0 0 1 0-3.746l12.27-21.254A3.747 3.747 0 0 1 30.298 0h-7.19a3.746 3.746 0 0 0-3.245 1.874L7.592 23.127a3.747 3.747 0 0 0 0 3.747l12.27 21.253A3.746 3.746 0 0 0 23.106 50h7.191a3.747 3.747 0 0 1-3.244-1.873Z"/><path fill="#37DBFF" d="m34.279 48.127-12.27-21.254a3.747 3.747 0 0 1 0-3.746l12.27-21.254A3.747 3.747 0 0 1 37.523 0h-7.19a3.746 3.746 0 0 0-3.245 1.874l-12.27 21.253a3.747 3.747 0 0 0 0 3.747l12.27 21.253A3.746 3.746 0 0 0 30.333 50h7.19a3.747 3.747 0 0 1-3.244-1.873Z"/></svg>