<svg xmlns="http://www.w3.org/2000/svg" width="136" height="50" fill="none" viewBox="0 0 136 50"><path fill="#39435A" d="m33.266 1.874 12.27 21.253c.67 1.16.67 2.587 0 3.747l-12.27 21.253A3.746 3.746 0 0 1 30.022 50h7.19a3.746 3.746 0 0 0 3.245-1.873l12.27-21.253c.67-1.16.67-2.588 0-3.747L40.457 1.874A3.746 3.746 0 0 0 37.212 0h-7.19c1.338 0 2.575.715 3.244 1.874Z"/><path fill="#2C374C" d="m33.266 1.874.547.947c.929.013 1.894.09 2.88.235 1.96.288 3.767.814 5.31 1.498l-1.547-2.68A3.745 3.745 0 0 0 37.212 0h-7.19c1.338 0 2.575.715 3.244 1.874Z"/><path fill="#39435A" d="m19.424 1.874 12.27 21.253c.67 1.16.67 2.587 0 3.747l-12.27 21.253A3.746 3.746 0 0 1 16.179 50h7.191a3.746 3.746 0 0 0 3.244-1.873l12.271-21.253c.67-1.16.67-2.588 0-3.747L26.615 1.874A3.747 3.747 0 0 0 23.37 0h-7.19c1.338 0 2.574.715 3.244 1.874Z"/><path fill="#435F94" d="M19.963 48.126 7.693 26.873a3.747 3.747 0 0 1 0-3.747l12.27-21.253A3.746 3.746 0 0 1 23.208 0h-7.191a3.746 3.746 0 0 0-3.245 1.873L.502 23.126a3.747 3.747 0 0 0 0 3.747l12.27 21.253A3.746 3.746 0 0 0 16.017 50h7.19a3.746 3.746 0 0 1-3.244-1.874Z"/><path fill="#377DFF" d="M27.053 48.127 14.782 26.872a3.747 3.747 0 0 1 0-3.746l12.27-21.254A3.747 3.747 0 0 1 30.298 0h-7.19a3.746 3.746 0 0 0-3.245 1.874L7.592 23.127a3.747 3.747 0 0 0 0 3.747l12.27 21.253A3.746 3.746 0 0 0 23.106 50h7.191a3.747 3.747 0 0 1-3.244-1.873Z"/><path fill="#37DBFF" d="m34.279 48.127-12.27-21.254a3.747 3.747 0 0 1 0-3.746l12.27-21.254A3.747 3.747 0 0 1 37.523 0h-7.19a3.746 3.746 0 0 0-3.245 1.874l-12.27 21.253a3.747 3.747 0 0 0 0 3.747l12.27 21.253A3.746 3.746 0 0 0 30.333 50h7.19a3.747 3.747 0 0 1-3.244-1.873Z"/><path fill="#E2E2E2" d="M70.64 9.14 66.32 19.3c-.093.253-.24.453-.44.6-.187.133-.393.2-.62.2-.36 0-.627-.1-.8-.3a1.09 1.09 0 0 1-.26-.74c0-.12.02-.247.06-.38l4.98-11.96c.107-.267.267-.473.48-.62.227-.147.467-.207.72-.18.24 0 .46.073.66.22.213.133.367.327.46.58l4.92 11.72c.067.173.1.333.1.48 0 .36-.12.647-.36.86a1.083 1.083 0 0 1-1.42.1 1.469 1.469 0 0 1-.44-.6l-4.3-10.02.58-.12Zm-3.7 7.72 1.1-2.3h5.4l.38 2.3h-6.88ZM82.713 9.1a4.392 4.392 0 0 1 2.74.92c.347.267.614.54.8.82.2.267.3.493.3.68l-.52.26v-1.46c0-.347.114-.633.34-.86.227-.24.514-.36.86-.36.347 0 .634.113.86.34.227.227.34.52.34.88v8.9c0 1.16-.253 2.087-.76 2.78a4.1 4.1 0 0 1-1.96 1.52c-.813.32-1.686.48-2.62.48-.266 0-.613-.033-1.04-.1a15.246 15.246 0 0 1-1.22-.24 6.848 6.848 0 0 1-.88-.26c-.4-.173-.68-.393-.84-.66a.978.978 0 0 1-.08-.82c.12-.387.314-.653.58-.8.267-.133.547-.147.84-.04.134.04.354.12.66.24.307.12.64.227 1 .32.374.107.7.16.98.16 1 0 1.74-.2 2.22-.6.48-.4.72-.953.72-1.66V17.8l.24.18c0 .173-.093.387-.28.64-.173.24-.42.48-.74.72-.306.24-.673.447-1.1.62-.426.16-.88.24-1.36.24-.946 0-1.8-.233-2.56-.7a5.108 5.108 0 0 1-1.8-1.96c-.44-.84-.66-1.8-.66-2.88 0-1.093.22-2.053.66-2.88.44-.84 1.034-1.493 1.78-1.96.747-.48 1.58-.72 2.5-.72Zm.38 2.2c-.6 0-1.126.147-1.58.44a2.99 2.99 0 0 0-1.06 1.2c-.253.507-.38 1.08-.38 1.72 0 .627.127 1.193.38 1.7a2.99 2.99 0 0 0 1.06 1.2c.454.293.98.44 1.58.44.614 0 1.147-.147 1.6-.44a2.988 2.988 0 0 0 1.06-1.2 3.74 3.74 0 0 0 .38-1.7c0-.64-.126-1.213-.38-1.72a2.988 2.988 0 0 0-1.06-1.2c-.453-.293-.986-.44-1.6-.44Zm12.784 8.9c-1.134 0-2.12-.233-2.96-.7a5.063 5.063 0 0 1-1.92-1.94c-.44-.813-.66-1.733-.66-2.76 0-1.2.24-2.22.72-3.06.493-.853 1.133-1.507 1.92-1.96a4.93 4.93 0 0 1 2.5-.68c.68 0 1.32.14 1.92.42a5.16 5.16 0 0 1 1.62 1.16c.466.48.833 1.04 1.1 1.68.28.64.42 1.32.42 2.04-.014.32-.14.58-.38.78-.24.2-.52.3-.84.3h-7.64l-.6-2h7.34l-.44.4v-.54a1.79 1.79 0 0 0-.42-1.04 2.464 2.464 0 0 0-.92-.72 2.483 2.483 0 0 0-1.16-.28c-.4 0-.774.053-1.12.16a2.147 2.147 0 0 0-.9.54c-.254.253-.454.593-.6 1.02-.147.427-.22.967-.22 1.62 0 .72.146 1.333.44 1.84.306.493.693.873 1.16 1.14.48.253.986.38 1.52.38.493 0 .886-.04 1.18-.12.293-.08.526-.173.7-.28.186-.12.353-.22.5-.3.24-.12.466-.18.68-.18.293 0 .533.1.72.3.2.2.3.433.3.7 0 .36-.187.687-.56.98-.347.293-.834.553-1.46.78a5.98 5.98 0 0 1-1.94.32Zm12.677-11.1c.986 0 1.733.207 2.24.62.52.413.873.967 1.06 1.66.2.68.3 1.44.3 2.28v5.12c0 .347-.114.64-.34.88-.227.227-.514.34-.86.34-.347 0-.634-.113-.86-.34a1.232 1.232 0 0 1-.34-.88v-5.12c0-.44-.06-.833-.18-1.18a1.594 1.594 0 0 0-.6-.86c-.294-.213-.714-.32-1.26-.32-.534 0-.987.107-1.36.32-.36.213-.64.5-.84.86-.187.347-.28.74-.28 1.18v5.12c0 .347-.114.64-.34.88-.227.227-.514.34-.86.34-.347 0-.634-.113-.86-.34a1.232 1.232 0 0 1-.34-.88v-8.26c0-.347.113-.633.34-.86.226-.24.513-.36.86-.36.346 0 .633.12.86.36.226.227.34.513.34.86v.86l-.3-.06a3.69 3.69 0 0 1 .52-.72c.226-.267.493-.513.8-.74a3.83 3.83 0 0 1 1.04-.54c.386-.147.806-.22 1.26-.22Zm11.154 0c.76 0 1.42.08 1.98.24.573.16 1.013.387 1.32.68.32.28.48.62.48 1.02 0 .267-.08.52-.24.76-.16.227-.394.34-.7.34-.214 0-.394-.027-.54-.08a1.663 1.663 0 0 1-.36-.24 2.144 2.144 0 0 0-.38-.26c-.134-.08-.34-.14-.62-.18a3.38 3.38 0 0 0-.6-.08c-.68 0-1.26.147-1.74.44a2.935 2.935 0 0 0-1.08 1.2c-.254.493-.38 1.067-.38 1.72 0 .64.126 1.213.38 1.72.266.493.626.887 1.08 1.18.466.293 1 .44 1.6.44.333 0 .62-.02.86-.06.24-.04.44-.1.6-.18.186-.107.353-.22.5-.34.146-.12.366-.18.66-.18.346 0 .613.113.8.34.186.213.28.48.28.8 0 .333-.187.64-.56.92-.374.267-.867.487-1.48.66-.6.16-1.254.24-1.96.24-1.054 0-1.967-.24-2.74-.72a5.01 5.01 0 0 1-1.8-2c-.414-.84-.62-1.78-.62-2.82 0-1.093.22-2.053.66-2.88a4.968 4.968 0 0 1 1.86-1.96c.8-.48 1.713-.72 2.74-.72Zm13.77.2c.347 0 .634.12.86.36.227.227.34.513.34.86v8.5c0 1.227-.233 2.2-.7 2.92a3.849 3.849 0 0 1-1.84 1.58c-.773.32-1.64.48-2.6.48a9.91 9.91 0 0 1-1.36-.1c-.48-.067-.873-.167-1.18-.3-.4-.173-.68-.393-.84-.66a.981.981 0 0 1-.08-.82c.12-.387.314-.653.58-.8.267-.133.547-.147.84-.04.214.067.494.167.84.3.347.147.747.22 1.2.22.614 0 1.12-.087 1.52-.26.414-.16.72-.44.92-.84.214-.387.32-.92.32-1.6v-1.34l.42.48a3.53 3.53 0 0 1-.86 1.1c-.333.28-.733.493-1.2.64-.466.147-1 .22-1.6.22-.706 0-1.326-.16-1.86-.48a3.448 3.448 0 0 1-1.22-1.36c-.293-.587-.44-1.253-.44-2v-5.84c0-.347.114-.633.34-.86.227-.24.514-.36.86-.36.347 0 .634.12.86.36.227.227.34.513.34.86v5.12c0 .867.187 1.48.56 1.84.387.347.92.52 1.6.52.467 0 .86-.087 1.18-.26.32-.187.567-.453.74-.8.174-.36.26-.793.26-1.3v-5.12c0-.347.114-.633.34-.86.227-.24.514-.36.86-.36ZM73.68 33.632a.481.481 0 0 1 .224.336.523.523 0 0 1-.096.384.398.398 0 0 1-.288.16.613.613 0 0 1-.336-.064 5.295 5.295 0 0 0-1.312-.624 4.781 4.781 0 0 0-1.488-.224 4.71 4.71 0 0 0-1.824.352 4.115 4.115 0 0 0-1.456.992 4.595 4.595 0 0 0-.976 1.52 5.386 5.386 0 0 0-.336 1.936c0 .725.117 1.387.352 1.984a4.6 4.6 0 0 0 .976 1.52c.427.427.917.752 1.472.976a4.74 4.74 0 0 0 1.792.336c.523 0 1.013-.075 1.472-.224.47-.15.907-.352 1.312-.608a.473.473 0 0 1 .336-.064c.128.01.23.07.304.176.096.117.128.245.096.384a.434.434 0 0 1-.208.304 6.58 6.58 0 0 1-2.096.832 5.606 5.606 0 0 1-3.376-.272 5.716 5.716 0 0 1-1.792-1.168 5.564 5.564 0 0 1-1.232-1.824c-.288-.704-.432-1.488-.432-2.352 0-.832.144-1.595.432-2.288a5.483 5.483 0 0 1 1.2-1.824 5.58 5.58 0 0 1 3.984-1.632c.608 0 1.195.085 1.76.256.565.17 1.077.41 1.536.72ZM76.357 44a.447.447 0 0 1-.352-.144.49.49 0 0 1-.128-.336v-7.168a.49.49 0 0 1 .128-.336.479.479 0 0 1 .352-.144c.139 0 .25.048.336.144a.46.46 0 0 1 .144.336v2.4l-.24.048c.032-.373.123-.741.272-1.104a3.95 3.95 0 0 1 .64-1.024c.267-.31.582-.56.944-.752a2.69 2.69 0 0 1 1.248-.288c.192 0 .379.043.56.128.181.075.272.203.272.384 0 .16-.043.283-.128.368a.415.415 0 0 1-.304.128.784.784 0 0 1-.32-.08.976.976 0 0 0-.432-.08c-.299 0-.597.09-.896.272-.299.17-.57.405-.816.704a3.803 3.803 0 0 0-.592 1.008 3.07 3.07 0 0 0-.208 1.104v3.952a.46.46 0 0 1-.144.336.46.46 0 0 1-.336.144Zm9.173.16c-.821 0-1.547-.176-2.176-.528a3.757 3.757 0 0 1-1.472-1.472c-.352-.63-.528-1.365-.528-2.208 0-.907.176-1.68.528-2.32.363-.64.827-1.13 1.392-1.472a3.443 3.443 0 0 1 1.824-.528c.47 0 .923.085 1.36.256.448.16.843.405 1.184.736.352.32.63.715.832 1.184.213.47.33 1.013.352 1.632a.49.49 0 0 1-.496.464h-6.416l-.192-.864h6.304l-.208.192v-.32c-.043-.501-.203-.928-.48-1.28a2.71 2.71 0 0 0-1.008-.8 2.92 2.92 0 0 0-1.232-.272c-.32 0-.65.064-.992.192a2.63 2.63 0 0 0-.912.608c-.267.267-.485.613-.656 1.04-.17.416-.256.912-.256 1.488 0 .63.128 1.2.384 1.712s.624.917 1.104 1.216c.49.299 1.072.448 1.744.448a2.883 2.883 0 0 0 1.792-.576c.224-.181.41-.368.56-.56a.557.557 0 0 1 .352-.144.35.35 0 0 1 .272.128.398.398 0 0 1 .128.288.44.44 0 0 1-.16.336c-.32.384-.736.72-1.248 1.008a3.471 3.471 0 0 1-1.68.416Zm12.277-8.336c.139 0 .251.048.336.144a.479.479 0 0 1 .144.352v7.2a.46.46 0 0 1-.144.336.46.46 0 0 1-.336.144.479.479 0 0 1-.352-.144.49.49 0 0 1-.128-.336v-1.904l.272-.128c0 .299-.085.603-.256.912a3.16 3.16 0 0 1-.672.864 3.582 3.582 0 0 1-1.024.656c-.384.16-.8.24-1.248.24a3.51 3.51 0 0 1-1.952-.56 3.93 3.93 0 0 1-1.344-1.536c-.32-.65-.48-1.381-.48-2.192 0-.832.166-1.563.496-2.192a3.843 3.843 0 0 1 1.344-1.504 3.479 3.479 0 0 1 1.92-.544c.459 0 .886.08 1.28.24.406.16.758.379 1.056.656.299.277.528.597.688.96.171.352.256.72.256 1.104l-.336-.24V36.32a.51.51 0 0 1 .128-.352.479.479 0 0 1 .352-.144Zm-3.328 7.44a2.67 2.67 0 0 0 1.504-.432 3.017 3.017 0 0 0 1.024-1.216 3.911 3.911 0 0 0 .384-1.744c0-.63-.128-1.195-.384-1.696a3.04 3.04 0 0 0-1.024-1.2 2.603 2.603 0 0 0-1.504-.448c-.554 0-1.056.144-1.504.432a3.039 3.039 0 0 0-1.04 1.184c-.245.501-.368 1.077-.368 1.728 0 .64.123 1.221.368 1.744.256.512.603.917 1.04 1.216.438.288.939.432 1.504.432Zm5.959-7.408h3.728a.41.41 0 0 1 .32.144.432.432 0 0 1 .128.32.413.413 0 0 1-.128.304.434.434 0 0 1-.32.128h-3.728a.49.49 0 0 1-.336-.128.471.471 0 0 1-.127-.32c0-.128.042-.235.127-.32a.49.49 0 0 1 .336-.128Zm1.648-2.256c.139 0 .251.048.336.144a.46.46 0 0 1 .144.336v8.032c0 .299.038.523.112.672.086.15.192.25.32.304.128.043.256.064.384.064.086 0 .16-.01.224-.032a.605.605 0 0 1 .24-.048c.096 0 .176.037.24.112.075.075.112.17.112.288 0 .15-.085.277-.256.384-.17.096-.373.144-.608.144-.096 0-.24-.005-.432-.016a1.867 1.867 0 0 1-.592-.176c-.202-.107-.373-.288-.512-.544-.128-.256-.192-.624-.192-1.104v-8.08c0-.128.043-.24.128-.336a.48.48 0 0 1 .352-.144Zm5.39 9.92a.46.46 0 0 1-.144.336.46.46 0 0 1-.336.144.48.48 0 0 1-.352-.144.492.492 0 0 1-.128-.336v-7.36c0-.128.043-.24.128-.336a.48.48 0 0 1 .352-.144c.139 0 .251.048.336.144a.46.46 0 0 1 .144.336v7.36Zm-.48-8.912c-.224 0-.394-.048-.512-.144-.106-.107-.16-.256-.16-.448v-.16c0-.192.059-.336.176-.432.128-.107.299-.16.512-.16.203 0 .358.053.464.16.118.096.176.24.176.432v.16c0 .192-.058.341-.176.448-.106.096-.266.144-.48.144Zm2.942 1.04a.48.48 0 0 1 .256.08c.086.053.15.133.192.24l2.8 6.656-.208.128 2.864-6.784c.086-.213.24-.315.464-.304.107 0 .208.037.304.112.096.064.144.16.144.288 0 .064-.01.117-.032.16l-.032.112-3.136 7.36a.47.47 0 0 1-.432.304.476.476 0 0 1-.288-.064.606.606 0 0 1-.192-.24l-3.152-7.36a.574.574 0 0 1-.048-.224c0-.117.043-.224.128-.32.086-.096.208-.144.368-.144Zm12.439 8.512c-.821 0-1.547-.176-2.176-.528a3.759 3.759 0 0 1-1.472-1.472c-.352-.63-.528-1.365-.528-2.208 0-.907.176-1.68.528-2.32.363-.64.827-1.13 1.392-1.472a3.443 3.443 0 0 1 1.824-.528c.469 0 .923.085 1.36.256.448.16.843.405 1.184.736a3.4 3.4 0 0 1 .832 1.184c.213.47.331 1.013.352 1.632a.49.49 0 0 1-.496.464h-6.416l-.192-.864h6.304l-.208.192v-.32c-.043-.501-.203-.928-.48-1.28a2.705 2.705 0 0 0-1.008-.8 2.92 2.92 0 0 0-1.232-.272c-.32 0-.651.064-.992.192-.331.128-.635.33-.912.608-.267.267-.485.613-.656 1.04-.171.416-.256.912-.256 1.488 0 .63.128 1.2.384 1.712s.624.917 1.104 1.216c.491.299 1.072.448 1.744.448.373 0 .709-.053 1.008-.16.299-.107.56-.245.784-.416.224-.181.411-.368.56-.56a.557.557 0 0 1 .352-.144.35.35 0 0 1 .272.128.4.4 0 0 1 .128.288c0 .128-.053.24-.16.336-.32.384-.736.72-1.248 1.008a3.471 3.471 0 0 1-1.68.416Z"/></svg>