<svg xmlns="http://www.w3.org/2000/svg" width="42" height="42" fill="none" viewBox="0 0 42 42"><g stroke="#fff" stroke-linecap="round" stroke-linejoin="round" stroke-width="3" clip-path="url(#a)"><path d="M21 26.25a5.25 5.25 0 1 0 0-10.5 5.25 5.25 0 0 0 0 10.5"/><path d="M33.95 26.25a2.89 2.89 0 0 0 .578 3.185l.105.105a3.5 3.5 0 0 1-2.477 5.979 3.5 3.5 0 0 1-2.476-1.026l-.105-.105a2.89 2.89 0 0 0-3.185-.578 2.89 2.89 0 0 0-1.75 2.642v.298a3.5 3.5 0 1 1-7 0v-.157a2.89 2.89 0 0 0-1.89-2.643 2.89 2.89 0 0 0-3.185.578l-.105.105a3.5 3.5 0 0 1-5.979-2.477 3.5 3.5 0 0 1 1.027-2.476l.104-.105a2.89 2.89 0 0 0 .578-3.185 2.89 2.89 0 0 0-2.642-1.75H5.25a3.5 3.5 0 1 1 0-7h.157a2.89 2.89 0 0 0 2.643-1.89 2.89 2.89 0 0 0-.578-3.185l-.105-.105a3.5 3.5 0 0 1 3.817-5.712 3.5 3.5 0 0 1 1.136.76l.105.104a2.89 2.89 0 0 0 3.185.578h.14a2.89 2.89 0 0 0 1.75-2.642V5.25a3.5 3.5 0 1 1 7 0v.157a2.89 2.89 0 0 0 1.75 2.643 2.89 2.89 0 0 0 3.185-.578l.105-.105a3.5 3.5 0 0 1 5.712 3.817 3.5 3.5 0 0 1-.76 1.136l-.104.105a2.89 2.89 0 0 0-.578 3.185v.14a2.89 2.89 0 0 0 2.642 1.75h.298a3.5 3.5 0 1 1 0 7h-.157a2.89 2.89 0 0 0-2.643 1.75"/></g><defs><clipPath id="a"><path fill="#fff" d="M0 0h42v42H0z"/></clipPath></defs></svg>