<svg xmlns="http://www.w3.org/2000/svg" width="80.000000" height="80.000000" fill="none" viewBox="0 0 80 80"><defs><clipPath id="a"><path fill="#fff" fill-opacity="0" d="M18 18h44v44H18z"/></clipPath></defs><rect width="80.000000" height="80.000000" fill="#FFC123" fill-opacity="0.300000" rx="20.000000"/><g clip-path="url(#a)"><path fill="#080829" fill-opacity="1.000000" fill-rule="evenodd" d="M52.296 34.127c0 2.302.609 3.66 1.948 5.223 1.015 1.152 1.34 2.631 1.34 4.236 0 1.603-.527 3.124-1.582 4.36-1.381 1.48-3.33 2.426-5.317 2.59-2.88.246-5.763.453-8.684.453-2.923 0-5.803-.124-8.684-.453-1.99-.164-3.938-1.11-5.317-2.59-1.055-1.236-1.583-2.757-1.583-4.36 0-1.605.326-3.084 1.339-4.236 1.381-1.564 1.95-2.92 1.95-5.223v-.782c0-3.083.768-5.1 2.352-7.073 2.354-2.879 6.127-4.605 9.86-4.605h.165c3.814 0 7.71 1.81 10.023 4.811 1.502 1.934 2.19 3.865 2.19 6.868zM34.635 54.778c0-.923.847-1.346 1.63-1.527.917-.194 6.502-.194 7.419 0 .783.181 1.63.604 1.63 1.527-.045.88-.561 1.658-1.273 2.153a6.67 6.67 0 0 1-3.142 1.34 7 7 0 0 1-1.847 0 6.63 6.63 0 0 1-3.142-1.342c-.714-.493-1.23-1.272-1.275-2.15"/></g></svg>