<svg width="80.000000" height="80.000000" viewBox="0 0 80 80" fill="none" xmlns="http://www.w3.org/2000/svg" xmlns:xlink="http://www.w3.org/1999/xlink">
	<desc>
			Created with Pixso.
	</desc>
	<defs>
		<clipPath id="clip1_607">
			<rect id="IMAGE" width="44.000000" height="44.000000" transform="translate(18.000000 18.000000)" fill="white" fill-opacity="0"/>
		</clipPath>
	</defs>
	<rect id="Rectangle" rx="20.000000" width="80.000000" height="80.000000" fill="#FE7F51" fill-opacity="0.300000"/>
	<g clip-path="url(#clip1_607)">
		<path id="Vector" d="M49.4963 26.0851C49.4963 23.6467 51.4763 21.6667 53.9147 21.6667C56.353 21.6667 58.333 23.6467 58.333 26.0851C58.333 28.5234 56.353 30.5034 53.9147 30.5034C51.4763 30.5034 49.4963 28.5234 49.4963 26.0851ZM42.4378 45.0587L47.7361 38.2223L47.6628 38.2589C47.9561 37.8557 48.0111 37.3423 47.8095 36.8839C47.6096 36.4257 47.1678 36.114 46.693 36.0773C46.1961 36.0222 45.703 36.2423 45.4078 36.6456L40.973 42.3839L35.8928 38.3872C35.5811 38.1489 35.2145 38.0554 34.8478 38.094C34.483 38.1489 34.153 38.3488 33.9311 38.6422L28.5063 45.7023L28.3945 45.8673C28.0828 46.4521 28.2295 47.2037 28.7795 47.609C29.0361 47.7739 29.3111 47.8839 29.6228 47.8839C30.0463 47.9022 30.4478 47.6804 30.7045 47.334L35.3061 41.4104L40.5311 45.3357L40.6961 45.4437C41.2828 45.7555 42.0161 45.6107 42.4378 45.0587ZM46.3245 24.9307C46.2511 25.3889 46.2145 25.8473 46.2145 26.3057C46.2145 30.4307 49.5511 33.7655 53.6578 33.7655C54.1161 33.7655 54.5561 33.7123 55.0145 33.6389L55.0145 48.4321C55.0145 54.6489 51.3478 58.334 45.1145 58.334L31.568 58.334C25.3328 58.334 21.6661 54.6489 21.6661 48.4321L21.6661 34.8673C21.6661 28.6339 25.3328 24.9307 31.568 24.9307L46.3245 24.9307Z" fill="#080829" fill-opacity="1.000000" fill-rule="evenodd"/>
	</g>
</svg>
