<svg width="80.000000" height="80.000000" viewBox="0 0 80 80" fill="none" xmlns="http://www.w3.org/2000/svg" xmlns:xlink="http://www.w3.org/1999/xlink">
	<desc>
			Created with Pixso.
	</desc>
	<defs>
		<clipPath id="clip1_614">
			<rect id="IMAGE" width="44.000000" height="44.000000" transform="translate(18.000000 18.000000)" fill="white" fill-opacity="0"/>
		</clipPath>
	</defs>
	<rect id="Rectangle" rx="20.000000" width="80.000000" height="80.000000" fill="#545479" fill-opacity="0.300000"/>
	<g clip-path="url(#clip1_614)">
		<path id="Vector" d="M42.6582 26.947L48.2865 26.947C55.0515 26.947 58.3515 30.5587 58.3332 37.9655L58.3332 46.8937C58.3332 53.9705 53.9698 58.3337 46.8748 58.3337L33.1065 58.3337C26.0482 58.3337 21.6665 53.9705 21.6665 46.8754L21.6665 33.1071C21.6665 25.5171 25.0399 21.6671 31.6948 21.6671L34.5915 21.6671C36.2983 21.6487 37.8915 22.437 38.9365 23.7754L40.5498 25.9204C41.0632 26.562 41.8332 26.947 42.6582 26.947ZM31.5115 46.0321L48.4882 46.0321C49.2398 46.0321 49.8448 45.4087 49.8448 44.6571C49.8448 43.8871 49.2398 43.2821 48.4882 43.2821L31.5115 43.2821C30.7415 43.2821 30.1365 43.8871 30.1365 44.6571C30.1365 45.4087 30.7415 46.0321 31.5115 46.0321Z" fill="#080829" fill-opacity="1.000000" fill-rule="evenodd"/>
	</g>
</svg>
