<svg width="80.000000" height="80.000000" viewBox="0 0 80 80" fill="none" xmlns="http://www.w3.org/2000/svg" xmlns:xlink="http://www.w3.org/1999/xlink">
	<desc>
			Created with Pixso.
	</desc>
	<defs>
		<clipPath id="clip1_600">
			<rect id="IMAGE" width="44.000000" height="44.000000" transform="translate(18.000000 18.000000)" fill="white" fill-opacity="0"/>
		</clipPath>
	</defs>
	<rect id="Rectangle" rx="20.000000" width="80.000000" height="80.000000" fill="#3F53D8" fill-opacity="0.300000"/>
	<g clip-path="url(#clip1_600)">
		<path id="Vector" d="M31.439 21.6675L48.5605 21.6675C54.7957 21.6675 58.3157 25.204 58.334 31.4392L58.334 48.5625C58.334 54.7959 54.7957 58.3341 48.5605 58.3341L31.439 58.3341C25.2039 58.3341 21.6674 54.7959 21.6674 48.5625L21.6674 31.4392C21.6674 25.204 25.2039 21.6675 31.439 21.6675ZM40.0905 50.7441C40.8807 50.7441 41.5389 50.1575 41.6122 49.3691L41.6122 30.6875C41.6855 30.1191 41.4124 29.549 40.9174 29.2391C40.4022 28.9275 39.7789 28.9275 39.2857 29.2391C38.7889 29.549 38.5157 30.1191 38.5689 30.6875L38.5689 49.3691C38.6624 50.1575 39.3205 50.7441 40.0905 50.7441ZM48.5257 50.7441C49.2957 50.7441 49.9539 50.1575 50.0474 49.3691L50.0474 43.3558C50.1005 42.7673 49.8274 42.2191 49.3305 41.9075C48.8374 41.5958 48.214 41.5958 47.7007 41.9075C47.2039 42.2191 46.9307 42.7673 47.004 43.3558L47.004 49.3691C47.0774 50.1575 47.7355 50.7441 48.5257 50.7441ZM33.0689 49.3691C32.9955 50.1575 32.3374 50.7441 31.5472 50.7441C30.7589 50.7441 30.0989 50.1575 30.0274 49.3691L30.0274 36.7008C29.9724 36.1306 30.2455 35.5642 30.7424 35.2524C31.2355 34.9409 31.8607 34.9409 32.3557 35.2524C32.8489 35.5642 33.1257 36.1306 33.0689 36.7008L33.0689 49.3691Z" fill="#080829" fill-opacity="1.000000" fill-rule="evenodd"/>
	</g>
</svg>
