<svg width="80.000000" height="80.000000" viewBox="0 0 80 80" fill="none" xmlns="http://www.w3.org/2000/svg" xmlns:xlink="http://www.w3.org/1999/xlink">
	<desc>
			Created with Pixso.
	</desc>
	<defs>
		<clipPath id="clip1_621">
			<rect id="IMAGE" width="44.000000" height="44.000000" transform="translate(18.000000 18.000000)" fill="white" fill-opacity="0"/>
		</clipPath>
	</defs>
	<rect id="Rectangle" rx="20.000000" width="80.000000" height="80.000000" fill="#2CAE76" fill-opacity="0.300000"/>
	<g clip-path="url(#clip1_621)">
		<path id="Vector" d="M57.2983 22.7338C56.3812 21.7925 55.024 21.4419 53.7585 21.8109L24.248 30.3926C22.9128 30.7634 21.9664 31.8284 21.7115 33.181C21.451 34.5579 22.3608 36.3055 23.5493 37.0364L32.7766 42.7075C33.723 43.2888 34.9445 43.1431 35.7275 42.3533L46.2938 31.7213C46.8257 31.1676 47.7061 31.1676 48.2379 31.7213C48.7698 32.2565 48.7698 33.1239 48.2379 33.6776L37.6534 44.3113C36.8684 45.0994 36.7217 46.3265 37.2994 47.2788L42.9374 56.5986C43.5977 57.7059 44.7347 58.3335 45.9821 58.3335C46.1287 58.3335 46.2938 58.3335 46.4406 58.3149C47.8711 58.1304 49.0082 57.1522 49.4301 55.7682L58.1786 26.2955C58.5638 25.0405 58.2153 23.6749 57.2983 22.7338Z" fill="#080829" fill-opacity="1.000000" fill-rule="nonzero"/>
	</g>
</svg>
