<svg width="80.000000" height="80.000000" viewBox="0 0 80 80" fill="none" xmlns="http://www.w3.org/2000/svg" xmlns:xlink="http://www.w3.org/1999/xlink">
	<desc>
			Created with Pixso.
	</desc>
	<defs>
		<clipPath id="clip1_635">
			<rect id="IMAGE" width="44.000000" height="44.000000" transform="translate(18.000000 18.000000)" fill="white" fill-opacity="0"/>
		</clipPath>
	</defs>
	<rect id="Rectangle" rx="20.000000" width="80.000000" height="80.000000" fill="#A259FF" fill-opacity="0.300000"/>
	<g clip-path="url(#clip1_635)">
		<path id="Vector" d="M47.058 22.5846C48.2148 22.5846 49.3698 22.7478 50.468 23.1163C57.2348 25.3163 59.6731 32.7413 57.6363 39.2313C56.4813 42.5479 54.593 45.5746 52.1198 48.0479C48.5796 51.4761 44.6948 54.5195 40.513 57.1411L40.0546 57.418L39.578 57.1228C35.3815 54.5195 31.4746 51.4761 27.9015 48.0295C25.4448 45.5563 23.5546 42.5479 22.3813 39.2313C20.3096 32.7413 22.748 25.3163 29.5881 23.0778C30.1198 22.8945 30.668 22.7661 31.218 22.6947L31.438 22.6947C31.9531 22.6195 32.4646 22.5846 32.978 22.5846L33.1796 22.5846C34.3346 22.6195 35.453 22.8212 36.5365 23.1897L36.6446 23.1897C36.718 23.2245 36.773 23.2629 36.8096 23.2979C37.2148 23.428 37.598 23.5746 37.9646 23.7764L38.6613 24.088C38.8296 24.1777 39.0186 24.3149 39.1819 24.4335C39.2854 24.5087 39.3785 24.5763 39.4496 24.6196C39.4795 24.6373 39.5099 24.655 39.5406 24.673C39.6978 24.7646 39.8615 24.8602 39.9996 24.9662C42.0365 23.4097 44.5096 22.5663 47.058 22.5846ZM51.9346 35.7845C52.6863 35.7645 53.328 35.1613 53.383 34.3895L53.383 34.1713C53.438 31.6028 51.8815 29.2762 49.5146 28.3781C48.763 28.1195 47.938 28.5247 47.663 29.2946C47.4063 30.0646 47.8096 30.908 48.5796 31.1812C49.7548 31.6211 50.5413 32.778 50.5413 34.0594L50.5413 34.1163C50.5065 34.5361 50.633 34.9413 50.8896 35.2531C51.1463 35.5646 51.5313 35.7461 51.9346 35.7845Z" fill="#080829" fill-opacity="1.000000" fill-rule="evenodd"/>
	</g>
</svg>
