<svg width="80.000000" height="80.000000" viewBox="0 0 80 80" fill="none" xmlns="http://www.w3.org/2000/svg" xmlns:xlink="http://www.w3.org/1999/xlink">
	<desc>
			Created with Pixso.
	</desc>
	<defs>
		<clipPath id="clip1_642">
			<rect id="IMAGE" width="44.000000" height="44.000000" transform="translate(18.000000 18.000000)" fill="white" fill-opacity="0"/>
		</clipPath>
	</defs>
	<rect id="Rectangle" rx="20.000000" width="80.000000" height="80.000000" fill="#FA5B68" fill-opacity="0.300000"/>
	<g clip-path="url(#clip1_642)">
		<path id="Vector" d="M50.5763 33.3666L58.3333 33.3666C58.3333 27.1384 54.6014 23.5 48.2785 23.5L31.7214 23.5C25.3985 23.5 21.6666 27.1384 21.6666 33.2872L21.6666 46.7128C21.6666 52.8616 25.3985 56.5 31.7214 56.5L48.2785 56.5C54.6014 56.5 58.3333 52.8616 58.3333 46.7128L58.3333 46.1407L50.5763 46.1407C46.9762 46.1407 44.0577 43.2955 44.0577 39.7855C44.0577 36.2756 46.9762 33.4302 50.5763 33.4302L50.5763 33.3666ZM50.5763 36.0994L56.9644 36.0994C57.7204 36.0994 58.3333 36.697 58.3333 37.434L58.3333 42.0734C58.3245 42.8069 57.7167 43.3995 56.9644 43.408L50.7229 43.408C48.9004 43.4319 47.3067 42.2153 46.8933 40.4846C46.6863 39.4102 46.9769 38.3015 47.6873 37.4557C48.3976 36.6099 49.4551 36.1135 50.5763 36.0994ZM50.8533 40.9771L51.4563 40.9771C52.2303 40.9771 52.8577 40.3654 52.8577 39.6107C52.8577 38.8561 52.2303 38.2443 51.4563 38.2443L50.8533 38.2443C50.4831 38.2401 50.1266 38.3805 49.8633 38.6342C49.6 38.8879 49.4518 39.2339 49.4518 39.5948C49.4518 40.3521 50.0766 40.9684 50.8533 40.9771ZM30.3526 33.3666L40.7007 33.3666C41.4747 33.3666 42.1022 32.7549 42.1022 32.0002C42.1022 31.2456 41.4747 30.6338 40.7007 30.6338L30.3526 30.6338C29.5849 30.6338 28.96 31.2358 28.9511 31.9844C28.951 32.7416 29.5759 33.3579 30.3526 33.3666Z" fill="#080829" fill-opacity="1.000000" fill-rule="evenodd"/>
	</g>
</svg>
