<svg width="178.000000" height="100.000000" viewBox="0 0 178 100" fill="none" xmlns="http://www.w3.org/2000/svg" xmlns:xlink="http://www.w3.org/1999/xlink">
	<desc>
			Created with Pixso.
	</desc>
	<defs>
		<clipPath id="clip1_540">
			<rect id="logoipsum" width="178.000000" height="100.000000" fill="white" fill-opacity="0"/>
		</clipPath>
	</defs>
	<g clip-path="url(#clip1_540)">
		<path id="logoipsum" d="M88.693 55.374L83.573 55.374L83.573 41.686L88.693 41.686L88.693 55.374ZM84.073 54.874L88.193 54.874L88.193 42.186L84.073 42.186L84.073 54.874ZM95.817 55.374L90.8 55.374L90.8 41.686L101.282 41.686C102.784 41.5643 104.279 41.986 105.496 42.874C106.02 43.3533 106.426 43.9471 106.683 44.6093C106.939 45.2714 107.039 45.9838 106.975 46.691C107.05 47.913 106.661 49.1182 105.886 50.066C104.969 51.118 103.443 51.66 101.351 51.679C100.824 51.693 96.875 51.679 95.82 51.679L95.817 55.374ZM91.297 54.874L95.317 54.874L95.317 51.174L95.568 51.174C95.619 51.174 100.746 51.1899 101.339 51.174C103.288 51.157 104.689 50.674 105.508 49.731C106.198 48.8735 106.54 47.7882 106.468 46.6899C106.529 46.0564 106.444 45.4171 106.219 44.8218C105.993 44.2264 105.634 43.691 105.168 43.257C104.04 42.4471 102.659 42.0669 101.275 42.1849L91.3 42.1849L91.297 54.874ZM100.22 48.604L95.283 48.604L95.283 44.8779L100.253 44.8779C100.605 44.8292 100.964 44.8704 101.296 44.9974C101.629 45.1246 101.923 45.3336 102.153 45.605C102.362 45.952 102.46 46.354 102.435 46.7579C102.454 47.1331 102.373 47.5065 102.2 47.84C101.963 48.1259 101.656 48.3459 101.309 48.4791C100.963 48.6122 100.588 48.6538 100.22 48.6L100.22 48.604ZM95.783 48.104L100.22 48.104C101.04 48.104 101.548 47.933 101.773 47.5809C101.897 47.3252 101.953 47.0417 101.936 46.7579C101.958 46.4601 101.893 46.1622 101.75 45.9L101.744 45.891C101.506 45.541 101.033 45.3779 100.253 45.3779L95.783 45.3779L95.783 48.104ZM116.1 55.5759C111.61 55.5759 108.93 54.4609 107.909 52.168C107.742 51.7251 107.628 51.2638 107.571 50.7939L107.527 50.506L112.869 50.506L112.904 50.7159C112.945 50.9293 113.036 51.1299 113.168 51.302C113.379 51.557 114.083 51.985 116.419 51.985C119.227 51.985 119.227 51.4919 119.227 51.2269C119.227 50.78 118.902 50.627 116.612 50.3829L116.177 50.342C115.315 50.261 114.225 50.158 113.727 50.115C109.527 49.735 107.652 48.4299 107.652 45.885C107.652 43.212 110.843 41.485 115.782 41.485C119.811 41.485 122.407 42.547 123.496 44.644C123.754 45.1318 123.928 45.66 124.009 46.2059L124.044 46.4869L118.696 46.4869L118.674 46.261C118.653 46.0844 118.578 45.9187 118.458 45.787C118.258 45.519 117.626 45.0759 115.664 45.0759C113.255 45.0759 112.923 45.384 112.923 45.7159C112.923 46.1589 113.684 46.316 116.123 46.577C117.14 46.66 118.775 46.828 119.335 46.896C122.856 47.278 124.427 48.551 124.427 51.025C124.428 53.1 122.983 55.5759 116.1 55.5759ZM108.111 51.006C108.161 51.3358 108.247 51.6591 108.368 51.97C109.298 54.059 111.828 55.0759 116.1 55.0759C119.672 55.0759 123.931 54.376 123.931 51.025C123.931 48.832 122.541 47.746 119.282 47.3929C118.722 47.325 117.097 47.158 116.082 47.074C113.482 46.792 112.425 46.642 112.425 45.7159C112.425 44.7579 113.564 44.5759 115.666 44.5759C117.327 44.5759 118.4 44.876 118.855 45.481C118.979 45.6301 119.073 45.802 119.131 45.9869L123.465 45.9869C123.378 45.6003 123.24 45.2267 123.055 44.876C122.055 42.957 119.612 41.985 115.784 41.985C111.149 41.985 108.154 43.516 108.154 45.885C108.154 48.145 109.835 49.261 113.773 49.6169C114.273 49.66 115.362 49.7629 116.226 49.845L116.664 49.886C118.791 50.11 119.729 50.25 119.729 51.2269C119.729 52.2789 118.516 52.485 116.421 52.485C114.483 52.485 113.259 52.194 112.786 51.621C112.64 51.4382 112.53 51.2296 112.462 51.006L108.111 51.006ZM133.927 55.559C128.707 55.559 125.827 53.448 125.827 49.614L125.827 41.686L130.879 41.686L130.879 49.614C130.879 50.929 132.056 51.683 134.107 51.683C136.067 51.683 137.284 50.896 137.284 49.631L137.284 41.686L142.284 41.686L142.284 50.0339C142.289 53.545 139.24 55.559 133.924 55.559L133.927 55.559ZM126.327 42.186L126.327 49.614C126.327 54.3519 131.085 55.059 133.927 55.059C136.865 55.059 141.792 54.406 141.792 50.0339L141.792 42.186L137.792 42.186L137.792 49.631C137.792 51.181 136.348 52.183 134.115 52.183C131.781 52.183 130.387 51.223 130.387 49.614L130.387 42.186L126.327 42.186ZM163.472 55.374L158.704 55.374L158.704 49.194L156 55.374L151.841 55.374L149.165 49.2059L149.165 55.374L144.38 55.374L144.38 41.686L150.674 41.686L153.944 49.233L157.372 41.686L163.478 41.686L163.472 55.374ZM159.204 54.874L162.972 54.874L162.972 42.186L157.69 42.186L153.928 50.465L150.342 42.186L144.876 42.186L144.876 54.874L148.661 54.874L148.661 46.7999L152.161 54.877L155.661 54.877L159.198 46.812L159.204 54.874ZM19.054 41.936L14.5 41.936L14.5 55.124L27.084 55.124L27.084 51.613L19.054 51.613L19.054 41.936ZM36.276 41.636C30.463 41.636 27.406 44.391 27.406 48.436C27.406 53.006 30.615 55.324 36.276 55.324C42.508 55.324 45.129 52.636 45.129 48.436C45.129 44.171 42.172 41.634 36.276 41.634L36.276 41.636ZM36.259 45.063C36.6547 45.0612 37.0502 45.0842 37.443 45.132L32.352 50.223C32.1111 49.6781 31.9936 49.0865 32.008 48.491C32.008 46.422 33.05 45.061 36.259 45.061L36.259 45.063ZM36.276 51.9509C35.8947 51.9526 35.5137 51.9313 35.135 51.887L40.235 46.787C40.4669 47.3229 40.5779 47.9033 40.56 48.4869C40.56 50.5 39.6 51.949 36.276 51.949L36.276 51.9509ZM54.152 50.151L58.839 50.151C58.77 50.4763 58.6262 50.781 58.419 51.041C57.4473 51.8326 56.2072 52.2178 54.958 52.116C54.3292 52.1832 53.6934 52.1146 53.0935 51.9146C52.4935 51.7147 51.9436 51.3881 51.481 50.957C51.0071 50.2618 50.782 49.4271 50.842 48.588C50.7653 47.7087 51.0101 46.8315 51.531 46.119C52.186 45.379 53.295 45.0599 54.925 45.0599C55.9621 44.9741 56.9979 45.2405 57.865 45.816C58.1383 46.0331 58.3426 46.3248 58.453 46.656L62.8 46.656C62.7684 46.1105 62.6372 45.5753 62.413 45.077C61.372 42.96 58.952 41.7 54.837 41.7C51.258 41.7 48.856 42.792 47.529 44.439C46.6526 45.6284 46.2027 47.0784 46.252 48.5549C46.1953 50.0649 46.6335 51.5521 47.5 52.79C48.811 54.49 51.146 55.3259 53.952 55.3259C55.8175 55.4561 57.6703 54.9336 59.193 53.848L59.311 55.124L62.922 55.124L62.922 47.312L54.152 47.312L54.152 50.151ZM73.171 41.6329C67.359 41.6329 64.301 44.3879 64.301 48.433C64.301 53.0029 67.509 55.321 73.171 55.321C79.404 55.321 82.025 52.6329 82.025 48.433C82.025 44.171 79.068 41.634 73.171 41.634L73.171 41.6329ZM73.155 45.0599C73.5403 45.0588 73.9253 45.0809 74.308 45.126L69.237 50.2C69.0036 49.6611 68.89 49.0781 68.904 48.491C68.9 46.422 69.946 45.061 73.155 45.061L73.155 45.0599ZM73.171 51.948C72.7796 51.9497 72.3885 51.927 72 51.88L77.117 46.762C77.3577 47.3049 77.4729 47.8953 77.454 48.489C77.456 50.5 76.5 51.949 73.171 51.949L73.171 51.948Z" fill="#080829" fill-opacity="1.000000" fill-rule="nonzero"/>
	</g>
</svg>
