<svg width="178.000000" height="100.000000" viewBox="0 0 178 100" fill="none" xmlns="http://www.w3.org/2000/svg" xmlns:xlink="http://www.w3.org/1999/xlink">
	<desc>
			Created with Pixso.
	</desc>
	<defs>
		<clipPath id="clip1_555">
			<rect id="logoipsum-2" width="178.000000" height="100.000000" fill="white" fill-opacity="0"/>
		</clipPath>
	</defs>
	<g clip-path="url(#clip1_555)">
		<path id="Vector" d="M41.9612 48.371C41.5844 48.7523 41.2958 49.2124 41.116 49.7188C40.9362 50.225 40.8697 50.7649 40.9211 51.3L40.9032 51.282C40.956 51.9119 40.8716 52.5457 40.6557 53.1393C40.4398 53.733 40.0977 54.2721 39.6532 54.7191C39.2088 55.166 38.6727 55.51 38.0823 55.7271C37.4921 55.9442 36.8617 56.0292 36.2354 55.976L36.2533 55.994C35.5041 55.924 34.7516 56.0878 34.0984 56.4635C33.4453 56.8392 32.9232 57.4083 32.6035 58.0933C32.2837 58.7783 32.1819 59.5457 32.3118 60.291C32.4417 61.0364 32.797 61.7233 33.3293 62.2581C33.8616 62.7928 34.545 63.1497 35.2863 63.2795C36.0275 63.4095 36.7906 63.3063 37.4715 62.9843C38.1523 62.662 38.7178 62.1365 39.0908 61.4794C39.4638 60.8223 39.6262 60.0653 39.5558 59.312L39.5747 59.33C39.5218 58.7001 39.6062 58.0663 39.8221 57.4727C40.038 56.879 40.3801 56.3398 40.8246 55.8929C41.269 55.446 41.8051 55.1019 42.3954 54.8848C42.9858 54.6677 43.6161 54.5828 44.2424 54.636L44.2235 54.618C44.8355 54.6733 45.4515 54.5724 46.0145 54.3246C46.5773 54.0768 47.069 53.6901 47.4437 53.2004C47.8184 52.7107 48.0641 52.1337 48.1581 51.5229C48.252 50.9124 48.1912 50.2877 47.9811 49.707C47.7711 49.1263 47.4187 48.6083 46.9566 48.201C46.4945 47.7937 45.9376 47.5103 45.3376 47.3771C44.7375 47.2439 44.1138 47.2651 43.5241 47.4388C42.9344 47.6125 42.3979 47.9332 41.9642 48.371L41.9612 48.371Z" fill="#080829" fill-opacity="1.000000" fill-rule="nonzero"/>
		<path id="Vector" d="M34.6255 53.636L34.6066 53.618C35.1389 53.6719 35.6765 53.6062 36.1805 53.4257C36.6845 53.245 37.1422 52.9541 37.5207 52.5739C37.8992 52.1935 38.1888 51.7333 38.3688 51.2266C38.5488 50.7198 38.6146 50.1794 38.5614 49.644L38.5803 49.662C38.5273 49.0321 38.6118 48.3983 38.8277 47.8046C39.0435 47.2111 39.3857 46.6719 39.8301 46.2249C40.2746 45.778 40.8107 45.434 41.401 45.2169C41.9914 44.9998 42.6216 44.9148 43.248 44.968L43.2291 44.95C43.9784 45.0208 44.7311 44.8574 45.3846 44.4821C46.0381 44.1068 46.5607 43.538 46.8809 42.8531C47.2011 42.1682 47.3034 41.4008 47.174 40.6552C47.0445 39.9097 46.6894 39.2225 46.1573 38.6874C45.6252 38.1522 44.9418 37.7952 44.2005 37.665C43.4591 37.5347 42.6958 37.6377 42.0149 37.9597C41.3338 38.2817 40.7681 38.8071 40.395 39.4644C40.0218 40.1215 39.8593 40.8785 39.9297 41.632L39.9118 41.613C39.9648 42.2429 39.8804 42.8768 39.6647 43.4706C39.4489 44.0643 39.1067 44.6035 38.6622 45.0505C38.2177 45.4974 37.6816 45.8416 37.0911 46.0585C36.5007 46.2755 35.8704 46.3604 35.244 46.307L35.2619 46.326C34.7295 46.2721 34.1919 46.3378 33.6879 46.5184C33.184 46.6989 32.7261 46.9899 32.3477 47.3702C31.9692 47.7505 31.6795 48.2107 31.4995 48.7174C31.3196 49.2241 31.2538 49.7646 31.3071 50.3L31.2892 50.282C31.3419 50.9117 31.2573 51.5457 31.0414 52.1392C30.8254 52.7327 30.4833 53.2719 30.0389 53.7188C29.5944 54.1656 29.0584 54.5096 28.4682 54.7268C27.878 54.9438 27.2477 55.0291 26.6214 54.976L26.6393 54.994C25.89 54.9232 25.1373 55.0865 24.4837 55.4619C23.8302 55.8372 23.3077 56.406 22.9875 57.0909C22.6672 57.7758 22.5649 58.5433 22.6945 59.2888C22.824 60.0343 23.179 60.7216 23.7112 61.2566C24.2433 61.7917 24.9267 62.1488 25.668 62.2791C26.4093 62.4092 27.1725 62.3063 27.8536 61.9843C28.5347 61.6624 29.1003 61.137 29.4735 60.4796C29.8466 59.8224 30.0091 59.0656 29.9388 58.312L29.9577 58.33C29.9048 57.7001 29.9892 57.0663 30.2051 56.4727C30.421 55.879 30.7632 55.3398 31.2076 54.8929C31.6521 54.446 32.1882 54.1019 32.7784 53.8848C33.3688 53.6678 33.9991 53.5828 34.6255 53.636Z" fill="#080829" fill-opacity="1.000000" fill-rule="nonzero"/>
		<path id="Vector" d="M27.9609 51.629C28.3379 51.2478 28.6265 50.7876 28.8061 50.2812C28.9857 49.775 29.052 49.235 29.0001 48.7L29.019 48.718C28.9661 48.088 29.0506 47.4539 29.2666 46.8601C29.4826 46.2664 29.8249 45.7271 30.2696 45.2802C30.7143 44.8331 31.2506 44.4891 31.8412 44.2722C32.4317 44.0552 33.0623 43.9705 33.6888 44.024L33.6699 44.006C34.4189 44.0767 35.1713 43.9131 35.8246 43.5378C36.4778 43.1626 37.0001 42.5939 37.3201 41.9092C37.64 41.2246 37.7424 40.4573 37.6128 39.7122C37.4833 38.9669 37.1284 38.2799 36.5964 37.745C36.0645 37.2101 35.3814 36.8531 34.6404 36.7229C33.8993 36.5927 33.1364 36.6955 32.4555 37.0173C31.7747 37.3392 31.2091 37.8643 30.836 38.5212C30.4629 39.1781 30.3003 39.9348 30.3704 40.688L30.3525 40.67C30.4054 41.2999 30.321 41.9337 30.1051 42.5275C29.8892 43.121 29.5471 43.6602 29.1026 44.1071C28.6582 44.554 28.122 44.8981 27.5317 45.1151C26.9415 45.3322 26.3111 45.4172 25.6847 45.364L25.7026 45.382C25.0907 45.3268 24.4747 45.4279 23.9119 45.6758C23.349 45.9237 22.8576 46.3105 22.483 46.8003C22.1084 47.29 21.8628 47.8671 21.7689 48.4777C21.675 49.0883 21.736 49.7129 21.9461 50.2935C22.1562 50.8741 22.5087 51.3921 22.9708 51.7993C23.433 52.2067 23.9898 52.4899 24.5898 52.623C25.1898 52.7562 25.8135 52.7349 26.4032 52.5612C26.9929 52.3875 27.5294 52.0668 27.9629 51.629L27.9609 51.629Z" fill="#080829" fill-opacity="1.000000" fill-rule="nonzero"/>
		<path id="Vector" d="M58.7649 41.655L61.7183 41.655L61.7183 56.108L58.7649 56.108L58.7649 41.655Z" fill="#080829" fill-opacity="1.000000" fill-rule="nonzero"/>
		<path id="Vector" d="M63.3909 51.1589C63.3867 50.1202 63.6892 49.1038 64.26 48.2382C64.8308 47.3726 65.6442 46.6968 66.5973 46.2964C67.5503 45.8961 68.6001 45.7892 69.6136 45.9893C70.6271 46.1893 71.5588 46.6874 72.2906 47.4204C73.0224 48.1533 73.5214 49.0881 73.7244 50.1066C73.9274 51.125 73.8254 52.181 73.431 53.1411C73.0367 54.101 72.368 54.9218 71.5095 55.4991C70.651 56.0767 69.6414 56.385 68.6086 56.385C67.9229 56.3928 67.2426 56.2632 66.6074 56.0035C65.9723 55.744 65.3948 55.3597 64.9091 54.873C64.4233 54.3866 64.0388 53.8075 63.7781 53.1698C63.5175 52.5321 63.3858 51.8485 63.3909 51.1589ZM70.8729 51.1589C70.8605 50.7113 70.7172 50.2772 70.4609 49.9109C70.2046 49.5447 69.8466 49.2625 69.4316 49.0997C69.0168 48.937 68.5633 48.9008 68.1281 48.9957C67.6928 49.0908 67.2952 49.3126 66.9846 49.6337C66.674 49.9547 66.4645 50.3607 66.3822 50.8009C66.2998 51.241 66.3484 51.6958 66.5217 52.1084C66.6949 52.5209 66.9853 52.8729 67.3565 53.1205C67.7277 53.368 68.1632 53.5 68.6086 53.5C68.9136 53.5082 69.2169 53.4526 69.4996 53.337C69.7822 53.2214 70.0379 53.0483 70.2508 52.8284C70.4634 52.6084 70.6285 52.3464 70.7356 52.0592C70.8427 51.7719 70.8895 51.4653 70.8729 51.1589Z" fill="#080829" fill-opacity="1.000000" fill-rule="nonzero"/>
		<path id="Vector" d="M85.5971 46.2091L85.5971 55.609C85.5971 58.9351 83.0176 60.3411 80.3993 60.3411C79.4774 60.4104 78.5544 60.2231 77.7313 59.7998C76.9083 59.3765 76.2171 58.7334 75.7335 57.941L78.2534 56.4761C78.4566 56.889 78.7805 57.2297 79.1815 57.4526C79.5827 57.6754 80.0419 57.7699 80.4977 57.723C80.7891 57.7637 81.0858 57.7378 81.366 57.6476C81.646 57.5573 81.9024 57.4049 82.116 57.2014C82.3296 56.998 82.4949 56.749 82.5999 56.4727C82.7049 56.1964 82.7466 55.8999 82.7223 55.6051L82.7223 54.7001C82.3764 55.1256 81.9362 55.4636 81.437 55.6871C80.9377 55.9106 80.3932 56.0133 79.8474 55.9871C78.5485 55.9458 77.3165 55.3981 76.4122 54.4595C75.5079 53.521 75.0022 52.2654 75.0022 50.9585C75.0022 49.6517 75.5079 48.3961 76.4122 47.4576C77.3165 46.519 78.5485 45.9713 79.8474 45.9301C80.3932 45.9038 80.9377 46.0065 81.437 46.23C81.9362 46.4535 82.3764 46.7915 82.7223 47.217L82.7223 46.207L85.5971 46.2091ZM82.7233 50.9601C82.7431 50.4814 82.62 50.0078 82.3699 49.6001C82.1198 49.1923 81.7541 48.8691 81.3198 48.6722C80.8856 48.4752 80.4026 48.4136 79.9332 48.495C79.4638 48.5764 79.0292 48.7971 78.6856 49.129C78.3421 49.4608 78.1051 49.8884 78.0052 50.3568C77.9053 50.8253 77.9471 51.3131 78.1252 51.7573C78.3034 52.2017 78.6096 52.5823 79.0046 52.8501C79.3996 53.1178 79.8652 53.2606 80.3416 53.26C80.652 53.2819 80.9633 53.238 81.2558 53.1315C81.5482 53.0249 81.8152 52.8578 82.0396 52.6411C82.2639 52.4244 82.4407 52.163 82.5585 51.8734C82.6762 51.5839 82.7323 51.2727 82.7233 50.9601Z" fill="#080829" fill-opacity="1.000000" fill-rule="nonzero"/>
		<path id="Vector" d="M87.2697 51.1589C87.2657 50.1202 87.5681 49.1038 88.1389 48.2382C88.7097 47.3726 89.5232 46.6968 90.4762 46.2964C91.4293 45.8961 92.479 45.7892 93.4925 45.9893C94.506 46.1893 95.4377 46.6874 96.1694 47.4204C96.9012 48.1533 97.4002 49.0881 97.6033 50.1066C97.8063 51.125 97.7042 52.181 97.3099 53.1411C96.9156 54.101 96.2469 54.9218 95.3884 55.4991C94.5299 56.0767 93.5203 56.385 92.4874 56.385C91.8019 56.3928 91.1216 56.2632 90.4864 56.0035C89.8511 55.744 89.2738 55.3597 88.788 54.873C88.3022 54.3866 87.9177 53.8075 87.657 53.1698C87.3963 52.5321 87.2646 51.8485 87.2697 51.1589ZM94.7517 51.1589C94.7393 50.7113 94.5962 50.2772 94.3398 49.9109C94.0834 49.5447 93.7255 49.2625 93.3106 49.0997C92.8956 48.937 92.4423 48.9008 92.007 48.9957C91.5718 49.0908 91.174 49.3126 90.8634 49.6337C90.553 49.9547 90.3435 50.3607 90.2611 50.8009C90.1788 51.241 90.2272 51.6958 90.4005 52.1084C90.5739 52.5209 90.8642 52.8729 91.2354 53.1205C91.6066 53.368 92.0421 53.5 92.4874 53.5C92.7924 53.5082 93.0958 53.4526 93.3785 53.337C93.6611 53.2214 93.9169 53.0483 94.1296 52.8284C94.3423 52.6084 94.5075 52.3464 94.6146 52.0592C94.7216 51.7719 94.7683 51.4653 94.7517 51.1589Z" fill="#080829" fill-opacity="1.000000" fill-rule="nonzero"/>
		<path id="Vector" d="M99.0823 43.5559C99.0823 43.2034 99.1862 42.8589 99.3809 42.5659C99.5756 42.2728 99.8521 42.0444 100.176 41.9095C100.5 41.7748 100.856 41.7394 101.2 41.8081C101.544 41.877 101.86 42.0466 102.107 42.2958C102.355 42.545 102.524 42.8627 102.593 43.2083C102.66 43.554 102.625 43.9122 102.491 44.2378C102.357 44.5635 102.13 44.8418 101.839 45.0376C101.548 45.2334 101.204 45.3379 100.854 45.3379C100.386 45.3333 99.9376 45.144 99.6064 44.8108C99.2752 44.4777 99.0869 44.0271 99.0823 43.5559ZM99.3806 46.209L102.335 46.209L102.335 56.1089L99.3766 56.1089L99.3806 46.209Z" fill="#080829" fill-opacity="1.000000" fill-rule="nonzero"/>
		<path id="Vector" d="M115.087 51.1591C115.121 51.8134 115.027 52.4679 114.808 53.0852C114.59 53.7025 114.252 54.2704 113.816 54.756C113.378 55.2416 112.85 55.6356 112.26 55.9153C111.671 56.1947 111.032 56.3544 110.382 56.385C109.835 56.415 109.287 56.3223 108.78 56.1133C108.273 55.9043 107.818 55.5845 107.449 55.177L107.449 60.068L104.496 60.068L104.496 46.209L107.449 46.209L107.449 47.139C107.818 46.7318 108.274 46.4122 108.781 46.2035C109.288 45.9948 109.835 45.902 110.382 45.932C111.033 45.9625 111.672 46.1221 112.26 46.4017C112.85 46.6813 113.379 47.0753 113.816 47.5612C114.253 48.0469 114.591 48.6149 114.809 49.2324C115.027 49.8499 115.122 50.5046 115.087 51.1591ZM112.134 51.1591C112.122 50.6957 111.975 50.2461 111.711 49.8665C111.447 49.4868 111.077 49.194 110.647 49.0248C110.219 48.8555 109.749 48.8173 109.299 48.9148C108.848 49.0123 108.437 49.2413 108.115 49.5731C107.792 49.905 107.576 50.325 107.49 50.7803C107.405 51.2357 107.454 51.7063 107.633 52.1334C107.812 52.5605 108.113 52.9249 108.496 53.1813C108.88 53.4374 109.332 53.5741 109.792 53.574C110.108 53.5883 110.425 53.5349 110.719 53.4177C111.013 53.3007 111.28 53.1221 111.502 52.8942C111.722 52.666 111.893 52.3937 112.002 52.0946C112.111 51.7957 112.156 51.4767 112.134 51.1591Z" fill="#080829" fill-opacity="1.000000" fill-rule="nonzero"/>
		<path id="Vector" d="M124.201 53.1379C124.201 55.415 122.233 56.385 120.107 56.385C119.248 56.4633 118.386 56.2805 117.631 55.8606C116.876 55.4404 116.264 54.8025 115.874 54.0289L118.433 52.564C118.536 52.9216 118.759 53.2325 119.062 53.4452C119.366 53.6577 119.734 53.759 120.103 53.7319C120.811 53.7319 121.166 53.5139 121.166 53.119C121.166 52.0289 116.323 52.604 116.323 49.179C116.323 47.02 118.134 45.932 120.182 45.932C120.952 45.9075 121.713 46.0911 122.388 46.4636C123.064 46.8362 123.627 47.384 124.02 48.0499L121.5 49.416C121.39 49.1567 121.206 48.9358 120.971 48.7809C120.737 48.626 120.462 48.5439 120.182 48.5449C119.67 48.5449 119.354 48.745 119.354 49.099C119.358 50.228 124.201 49.475 124.201 53.1379Z" fill="#080829" fill-opacity="1.000000" fill-rule="nonzero"/>
		<path id="Vector" d="M134.99 46.209L134.99 56.109L132.036 56.109L132.036 55.178C131.695 55.5887 131.263 55.9125 130.773 56.1224C130.284 56.3325 129.753 56.4227 129.222 56.386C127.233 56.386 125.543 54.9609 125.543 52.286L125.543 46.209L128.496 46.209L128.496 51.851C128.471 52.0868 128.498 52.3252 128.575 52.5494C128.65 52.7739 128.775 52.9789 128.938 53.1501C129.101 53.3215 129.299 53.4551 129.518 53.5415C129.737 53.6279 129.973 53.6654 130.208 53.651C131.291 53.651 132.039 53.0179 132.039 51.6119L132.039 46.212L134.99 46.209Z" fill="#080829" fill-opacity="1.000000" fill-rule="nonzero"/>
		<path id="Vector" d="M151.924 50.03L151.924 56.108L148.971 56.108L148.971 50.287C148.971 49.297 148.499 48.6639 147.554 48.6639C146.57 48.6639 146.018 49.3569 146.018 50.525L146.018 56.108L143.065 56.108L143.065 50.287C143.065 49.297 142.593 48.6639 141.647 48.6639C140.663 48.6639 140.112 49.3569 140.112 50.525L140.112 56.108L137.158 56.108L137.158 46.208L140.112 46.208L140.112 47.118C140.418 46.7142 140.82 46.394 141.28 46.1868C141.742 45.9794 142.247 45.8915 142.75 45.931C143.255 45.9061 143.758 46.0134 144.211 46.2422C144.662 46.4711 145.047 46.8137 145.329 47.2369C145.656 46.7943 146.089 46.4423 146.588 46.2139C147.088 45.9855 147.637 45.8882 148.184 45.931C150.444 45.932 151.924 47.5549 151.924 50.03Z" fill="#080829" fill-opacity="1.000000" fill-rule="nonzero"/>
		<path id="Vector" d="M154.422 46.1479C155.633 46.1479 156.614 45.1611 156.614 43.944C156.614 42.7268 155.633 41.74 154.422 41.74C153.212 41.74 152.231 42.7268 152.231 43.944C152.231 45.1611 153.212 46.1479 154.422 46.1479Z" fill="#080829" fill-opacity="1.000000" fill-rule="nonzero"/>
	</g>
</svg>
