<svg width="178.000000" height="100.000000" viewBox="0 0 178 100" fill="none" xmlns="http://www.w3.org/2000/svg" xmlns:xlink="http://www.w3.org/1999/xlink">
	<desc>
			Created with Pixso.
	</desc>
	<defs>
		<clipPath id="clip1_553">
			<rect id="logoipsum-5" width="178.000000" height="100.000000" fill="white" fill-opacity="0"/>
		</clipPath>
	</defs>
	<g clip-path="url(#clip1_553)">
		<path id="Vector" d="M32.0549 62.8251L57.705 62.8251L57.705 37.175L32.0549 37.175L32.0549 62.8251ZM52.7679 47.5321L47.3479 47.5321L47.3479 42.1121L52.7679 42.1121L52.7679 47.5321ZM36.9909 42.1121L42.4139 42.1121L42.4139 52.468L52.7679 52.468L52.7679 57.8881L36.9909 57.8881L36.9909 42.1121ZM74.408 37.175C71.8715 37.175 69.3918 37.9272 67.2827 39.3364C65.1737 40.7457 63.5299 42.7487 62.5592 45.0922C61.5885 47.4357 61.3345 50.0143 61.8294 52.5022C62.3242 54.99 63.5457 57.2751 65.3394 59.0687C67.1329 60.8623 69.4182 62.0837 71.9059 62.5786C74.3937 63.0735 76.9724 62.8196 79.3159 61.8489C81.6593 60.8782 83.6624 59.2344 85.0715 57.1252C86.4808 55.0161 87.2329 52.5366 87.2329 50C87.229 46.5999 85.8765 43.3401 83.4722 40.9358C81.0679 38.5315 77.8081 37.1791 74.408 37.175ZM74.408 57.8881C72.8478 57.8881 71.3228 57.4254 70.0256 56.5586C68.7285 55.6919 67.7174 54.4601 67.1204 53.0187C66.5233 51.5774 66.3671 49.9913 66.6715 48.4612C66.976 46.931 67.7271 45.5255 68.8303 44.4225C69.9334 43.3192 71.3389 42.568 72.8691 42.2637C74.3992 41.9592 75.9852 42.1155 77.4265 42.7125C78.8679 43.3096 80.0999 44.3206 80.9666 45.6178C81.8333 46.9149 82.2959 48.4399 82.2959 50C82.2928 52.0912 81.4608 54.0957 79.9821 55.5742C78.5035 57.0529 76.499 57.8849 74.408 57.8881ZM133.127 37.175C130.59 37.1748 128.111 37.9269 126.001 39.3359C123.892 40.745 122.248 42.748 121.277 45.0914C120.307 47.4349 120.052 50.0137 120.547 52.5015C121.042 54.9894 122.263 57.2747 124.057 59.0684C125.85 60.8621 128.136 62.0836 130.624 62.5785C133.111 63.0736 135.69 62.8196 138.034 61.849C140.377 60.8783 142.38 59.2345 143.789 57.1254C145.199 55.0162 145.951 52.5366 145.951 50C145.947 46.6001 144.595 43.3405 142.191 40.9362C139.786 38.5319 136.527 37.1793 133.127 37.175ZM133.127 57.8881C131.567 57.8883 130.042 57.4259 128.744 56.5592C127.447 55.6925 126.436 54.4607 125.839 53.0193C125.241 51.578 125.085 49.9919 125.389 48.4618C125.694 46.9316 126.445 45.526 127.548 44.4227C128.651 43.3196 130.057 42.5681 131.587 42.2638C133.117 41.9592 134.703 42.1155 136.144 42.7124C137.586 43.3094 138.818 44.3204 139.684 45.6177C140.551 46.9148 141.014 48.4399 141.014 50C141.011 52.0909 140.179 54.0952 138.7 55.5739C137.222 57.0525 135.218 57.8846 133.127 57.8881ZM103.767 37.175C101.23 37.175 98.7509 37.9272 96.6417 39.3364C94.5327 40.7457 92.8889 42.7487 91.9182 45.0922C90.9475 47.4357 90.6935 50.0143 91.1885 52.5022C91.6832 54.99 92.9048 57.2751 94.6984 59.0687C96.4919 60.8623 98.7771 62.0837 101.265 62.5786C103.753 63.0735 106.331 62.8196 108.675 61.8489C111.018 60.8782 113.021 59.2344 114.431 57.1252C115.84 55.0161 116.592 52.5366 116.592 50C116.588 46.5999 115.235 43.3401 112.831 40.9358C110.427 38.5315 107.167 37.1791 103.767 37.175ZM103.767 57.8881C102.313 57.8888 100.888 57.4878 99.6479 56.7295C98.4078 55.9713 97.4014 54.8851 96.7397 53.5909C96.078 52.2968 95.7869 50.8448 95.8982 49.3956C96.0095 47.9463 96.5193 46.556 97.371 45.3783C98.2225 44.2003 99.3832 43.2806 100.724 42.7207C102.066 42.1609 103.536 41.9824 104.972 42.2053C106.409 42.4281 107.755 43.0435 108.864 43.9834C109.973 44.9235 110.8 46.1516 111.255 47.5321L103.767 47.5321L103.767 52.468L111.255 52.468C110.734 54.0433 109.73 55.4148 108.386 56.3876C107.042 57.3605 105.426 57.8855 103.767 57.8881Z" fill="#080829" fill-opacity="1.000000" fill-rule="nonzero"/>
	</g>
</svg>
