<svg width="178.000000" height="100.000000" viewBox="0 0 178 100" fill="none" xmlns="http://www.w3.org/2000/svg" xmlns:xlink="http://www.w3.org/1999/xlink">
	<desc>
			Created with Pixso.
	</desc>
	<defs>
		<clipPath id="clip1_542">
			<rect id="logoipsum-3" width="178.000000" height="100.000000" fill="white" fill-opacity="0"/>
		</clipPath>
	</defs>
	<g clip-path="url(#clip1_542)">
		<path id="Vector" d="M10.9216 30.047L10.9216 65.5L168.614 65.5L168.614 30.047L10.9216 30.047ZM166.625 63.5L86.0774 63.5L86.0774 32.047L166.625 32.047L166.625 63.5Z" fill="#080829" fill-opacity="1.000000" fill-rule="nonzero"/>
		<path id="Vector" d="M19.3036 53.713L19.3036 41.926L23.3489 41.926L23.3489 50.574L30.4849 50.574L30.4849 53.713L19.3036 53.713Z" fill="#FFFFFF" fill-opacity="1.000000" fill-rule="nonzero"/>
		<path id="Vector" d="M46.4332 47.7371C46.4332 51.49 44.1042 53.8931 38.5644 53.8931C33.5327 53.8931 30.6807 51.821 30.6807 47.7371C30.6807 44.118 33.3994 41.656 38.5644 41.656C43.8099 41.656 46.4332 43.923 46.4332 47.7371ZM42.372 47.782C42.372 46.082 41.6699 44.719 38.5494 44.719C35.6974 44.719 34.7707 45.9351 34.7707 47.782C34.7707 49.6591 35.6209 50.875 38.5624 50.875C41.5228 50.875 42.372 49.584 42.372 47.782Z" fill="#FFFFFF" fill-opacity="1.000000" fill-rule="nonzero"/>
		<path id="Vector" d="M58.9467 53.713L58.8423 52.571C57.4891 53.5422 55.842 54.0096 54.1835 53.8931C51.6905 53.8931 49.6141 53.1421 48.4497 51.6261C47.6817 50.5193 47.2939 49.1907 47.3449 47.842C47.3013 46.5217 47.7026 45.2252 48.4835 44.1631C49.6619 42.692 51.7979 41.7161 54.978 41.7161C58.6365 41.7161 60.7864 42.842 61.7112 44.734C61.9098 45.1797 62.0263 45.6577 62.0553 46.145L58.185 46.145C58.0876 45.8489 57.9061 45.5879 57.663 45.394C56.8921 44.8801 55.9714 44.6422 55.0496 44.7191C54.509 44.6532 53.9606 44.7034 53.4407 44.8665C52.9207 45.0295 52.4412 45.3018 52.0336 45.665C51.5709 46.3021 51.3536 47.0863 51.422 47.8721C51.3684 48.6218 51.5682 49.3678 51.9888 49.989C52.4001 50.3744 52.889 50.6661 53.4222 50.845C53.9554 51.0237 54.5206 51.0852 55.0795 51.025C56.1896 51.1158 57.2917 50.7716 58.1552 50.0641C58.3408 49.8308 58.4685 49.5566 58.5281 49.264L54.3635 49.264L54.3635 46.7311L62.1567 46.7311L62.1567 53.713L58.9467 53.713Z" fill="#FFFFFF" fill-opacity="1.000000" fill-rule="nonzero"/>
		<path id="Vector" d="M79.0439 47.7371C79.0439 51.49 76.7141 53.8931 71.1752 53.8931C66.1434 53.8931 63.2914 51.821 63.2914 47.7371C63.2914 44.118 66.0102 41.656 71.1752 41.656C76.4167 41.656 79.0439 43.923 79.0439 47.7371ZM74.9828 47.782C74.9828 46.082 74.2807 44.719 71.1602 44.719C68.3082 44.719 67.3815 45.9351 67.3815 47.782C67.3815 49.6591 68.2327 50.875 71.1732 50.875C74.1325 50.875 74.9828 49.584 74.9828 47.782Z" fill="#FFFFFF" fill-opacity="1.000000" fill-rule="nonzero"/>
		<path id="Vector" d="M92.8911 53.668L92.8911 41.881L95.7749 41.881L95.7749 53.668L92.8911 53.668Z" fill="#080829" fill-opacity="1.000000" fill-rule="nonzero"/>
		<path id="Vector" d="M110.584 48.743C109.853 49.7041 108.595 50.1431 106.822 50.1541C106.448 50.1541 101.491 50.139 101.491 50.139L101.491 53.6681L98.6687 53.6681L98.6687 41.8811L106.823 41.8811C107.476 41.8115 108.138 41.8812 108.762 42.0856C109.388 42.2899 109.962 42.6244 110.451 43.0671C111.095 43.9113 111.408 44.9639 111.332 46.025C111.397 46.9902 111.134 47.9492 110.584 48.743ZM108.27 44.9C107.971 44.4501 107.328 44.2001 106.239 44.2001L101.476 44.2001L101.476 47.7881L106.208 47.7881C107.373 47.7881 107.986 47.5481 108.27 47.082C108.439 46.7538 108.51 46.384 108.479 46.0161C108.503 45.6323 108.432 45.2484 108.27 44.9Z" fill="#080829" fill-opacity="1.000000" fill-rule="nonzero"/>
		<path id="Vector" d="M119.648 53.8479C114.332 53.8479 112.705 51.8479 112.705 49.8689L115.721 49.8689C115.721 50.845 117.049 51.5809 119.782 51.5809C122.499 51.5809 123.216 51.1 123.216 50.319C123.216 49.4479 122.679 49.178 120.155 48.8929C119.658 48.8479 118.304 48.683 117.796 48.6079C114.216 48.2019 112.838 47.136 112.838 45.2289C112.838 43.2169 114.855 41.7009 119.229 41.7009C123.978 41.7009 125.799 43.5779 125.799 45.5299L122.816 45.5299C122.816 44.5389 121.696 43.9679 119.053 43.9679C116.335 43.9679 115.754 44.3429 115.754 45.079C115.754 45.845 116.35 46.085 119.234 46.4299C119.891 46.5209 121.354 46.6859 121.757 46.73C124.804 47.0449 126.177 48.1559 126.177 50.1229C126.172 52.4659 124.082 53.8479 119.648 53.8479Z" fill="#080829" fill-opacity="1.000000" fill-rule="nonzero"/>
		<path id="Vector" d="M134.669 53.833C130.773 53.833 128.235 52.286 128.235 49.033L128.235 41.881L131.086 41.881L131.086 49.073C131.086 50.5599 132.296 51.5499 134.789 51.5499C137.043 51.5499 138.388 50.62 138.388 49.073L138.388 41.881L141.21 41.881L141.21 49.2999C141.21 52.257 138.85 53.833 134.669 53.833Z" fill="#080829" fill-opacity="1.000000" fill-rule="nonzero"/>
		<path id="Vector" d="M156.663 53.668L156.663 45.7999L153.004 53.668L150.228 53.668L146.674 45.7999L146.674 53.668L143.989 53.668L143.989 41.881L147.627 41.881L151.658 50.86L155.779 41.881L159.359 41.881L159.359 53.668L156.663 53.668Z" fill="#080829" fill-opacity="1.000000" fill-rule="nonzero"/>
	</g>
</svg>
