<svg width="178.000000" height="100.000000" viewBox="0 0 178 100" fill="none" xmlns="http://www.w3.org/2000/svg" xmlns:xlink="http://www.w3.org/1999/xlink">
	<desc>
			Created with Pixso.
	</desc>
	<defs>
		<clipPath id="clip1_582">
			<rect id="logoipsum-4" width="178.000000" height="100.000000" fill="white" fill-opacity="0"/>
		</clipPath>
	</defs>
	<g clip-path="url(#clip1_582)">
		<path id="Vector" d="M67.8329 57.39C67.2414 57.4222 66.6564 57.2532 66.1722 56.91C65.9698 56.7593 65.8071 56.5612 65.698 56.333C65.5888 56.1046 65.5365 55.8531 65.5457 55.6001L65.5457 46.3301C65.5409 46.2909 65.545 46.251 65.5578 46.2136C65.5706 46.1761 65.5917 46.1422 65.6194 46.1143C65.6473 46.0863 65.6811 46.0651 65.7183 46.0521C65.7554 46.0394 65.795 46.0352 65.8341 46.04L67.5048 46.04C67.6937 46.04 67.7831 46.14 67.7831 46.3301L67.7831 54.8801C67.7831 55.2601 67.9522 55.4501 68.3002 55.4501C68.4478 55.4562 68.5953 55.4393 68.7378 55.4C68.9367 55.4 69.0461 55.4601 69.056 55.64L69.2052 56.89C69.2123 56.9265 69.2117 56.9641 69.2031 57.0002C69.1946 57.0364 69.1785 57.0703 69.1559 57.0997C69.1333 57.129 69.1047 57.1532 69.072 57.1705C69.0393 57.1879 69.0033 57.1979 68.9664 57.2001C68.6006 57.3215 68.2182 57.3856 67.8329 57.39Z" fill="#080829" fill-opacity="1.000000" fill-rule="nonzero"/>
		<path id="Vector" d="M77.23 56.3201C76.3906 57.0176 75.3358 57.399 74.2468 57.399C73.1579 57.399 72.103 57.0176 71.2635 56.3201C70.5258 55.571 70.1118 54.5593 70.1118 53.505C70.1118 52.4507 70.5258 51.4391 71.2635 50.6901C72.1047 49.9961 73.1589 49.6169 74.2468 49.6169C75.3348 49.6169 76.389 49.9961 77.23 50.6901C77.9509 51.4459 78.3533 52.4528 78.3533 53.5C78.3533 54.5474 77.9509 55.5542 77.23 56.3101L77.23 56.3201ZM72.8347 55C73.2243 55.355 73.7312 55.5514 74.2567 55.5514C74.7823 55.5514 75.2892 55.355 75.6787 55C76.0314 54.5924 76.2256 54.0703 76.2256 53.53C76.2256 52.9897 76.0314 52.4678 75.6787 52.0601C75.2892 51.7052 74.7823 51.5087 74.2567 51.5087C73.7312 51.5087 73.2243 51.7052 72.8347 52.0601C72.4822 52.4678 72.288 52.9897 72.288 53.53C72.288 54.0703 72.4822 54.5924 72.8347 55Z" fill="#080829" fill-opacity="1.000000" fill-rule="nonzero"/>
		<path id="Vector" d="M87.5521 49.87C87.741 49.87 87.8306 49.97 87.8306 50.1599L87.8306 57.33C87.8478 57.8138 87.7579 58.2957 87.5669 58.7401C87.376 59.1847 87.0889 59.5809 86.7267 59.8999C85.9227 60.5895 84.8885 60.9468 83.833 60.8999C82.8795 60.9336 81.9387 60.6719 81.1381 60.1499C80.7963 59.9242 80.5042 59.6301 80.28 59.286C80.056 58.942 79.9047 58.5553 79.8354 58.1499C79.8354 57.95 79.8354 57.86 80.1039 57.86L81.7745 57.86C81.8455 57.8623 81.9142 57.8854 81.9725 57.9261C82.0306 57.967 82.0759 58.0238 82.1027 58.09C82.211 58.3937 82.427 58.6465 82.7093 58.7999C83.0533 58.9784 83.436 59.0677 83.8231 59.0599C84.0565 59.0729 84.2902 59.0387 84.5105 58.9597C84.7307 58.8809 84.9331 58.7584 85.1058 58.6C85.2635 58.4341 85.3864 58.2378 85.4667 58.0231C85.547 57.8082 85.5833 57.5792 85.5732 57.35L85.5732 56.72C84.9751 57.1624 84.2471 57.3911 83.5048 57.37C82.9854 57.3889 82.4673 57.3021 81.9821 57.1149C81.4968 56.9275 81.0541 56.6436 80.6807 56.2799C79.9637 55.5341 79.563 54.5374 79.563 53.4999C79.563 52.4626 79.9637 51.4658 80.6807 50.72C81.0559 50.3595 81.4991 50.0782 81.9842 49.8928C82.4692 49.7073 82.9863 49.6213 83.5048 49.6399C84.2686 49.6196 85.0161 49.8632 85.6229 50.33L85.6229 50.1699C85.6183 50.1316 85.6223 50.0928 85.6346 50.0562C85.6468 50.0195 85.667 49.9862 85.6937 49.9585C85.7203 49.9307 85.7527 49.9092 85.7887 49.8956C85.8246 49.8821 85.8631 49.8767 85.9014 49.8799L87.5521 49.87ZM83.6938 55.59C83.95 55.5979 84.2047 55.5492 84.4402 55.4473C84.6755 55.3453 84.8858 55.1926 85.0562 54.9999C85.3867 54.5707 85.566 54.043 85.566 53.4999C85.566 52.9569 85.3867 52.4293 85.0562 51.9999C84.8864 51.8098 84.6774 51.6594 84.4438 51.5592C84.2102 51.459 83.9575 51.4115 83.7037 51.4199C83.4446 51.4117 83.1867 51.4602 82.9481 51.5621C82.7094 51.6641 82.4956 51.8169 82.3215 52.0099C81.9553 52.4207 81.7626 52.9587 81.7845 53.5099C81.7665 54.0558 81.9548 54.5881 82.3115 54.9999C82.4861 55.1925 82.7 55.3451 82.9385 55.4468C83.1771 55.5486 83.4348 55.5974 83.6938 55.59Z" fill="#080829" fill-opacity="1.000000" fill-rule="nonzero"/>
		<path id="Vector" d="M96.4124 56.3201C95.5713 57.0139 94.517 57.3932 93.4291 57.3932C92.3412 57.3932 91.287 57.0139 90.4459 56.3201C89.7244 55.5625 89.3217 54.554 89.3217 53.5051C89.3217 52.4561 89.7244 51.4476 90.4459 50.6901C91.2878 49.9979 92.3417 49.6199 93.4291 49.6199C94.5165 49.6199 95.5705 49.9979 96.4124 50.6901C97.1331 51.4459 97.5356 52.4528 97.5356 53.5001C97.5356 54.5474 97.1331 55.5542 96.4124 56.3101L96.4124 56.3201ZM92.0071 55.0001C92.1978 55.1825 92.4225 55.325 92.6683 55.4194C92.9141 55.5138 93.1761 55.5582 93.4391 55.55C93.7004 55.5569 93.9606 55.5117 94.2045 55.4175C94.4485 55.3231 94.6716 55.1813 94.8611 55.0001C95.2078 54.5897 95.3983 54.0687 95.3983 53.53C95.3983 52.9915 95.2078 52.4705 94.8611 52.0601C94.6716 51.8789 94.4485 51.7371 94.2045 51.6427C93.9606 51.5483 93.7004 51.5033 93.4391 51.51C93.1761 51.5018 92.9141 51.5464 92.6683 51.6407C92.4225 51.7352 92.1978 51.8777 92.0071 52.0601C91.6603 52.4705 91.4698 52.9915 91.4698 53.53C91.4698 54.0687 91.6603 54.5897 92.0071 55.0001Z" fill="#080829" fill-opacity="1.000000" fill-rule="nonzero"/>
		<path id="Vector" d="M101.126 48.1699C100.863 48.4014 100.525 48.5288 100.176 48.5288C99.8271 48.5288 99.4891 48.4014 99.2264 48.1699C99.1073 48.0569 99.0123 47.9204 98.9474 47.7692C98.8826 47.6179 98.8491 47.4547 98.8491 47.2899C98.8491 47.1251 98.8826 46.9622 98.9474 46.8108C99.0123 46.6594 99.1073 46.5231 99.2264 46.4099C99.4921 46.1843 99.8281 46.0607 100.176 46.0607C100.524 46.0607 100.86 46.1843 101.126 46.4099C101.245 46.5231 101.34 46.6594 101.405 46.8108C101.47 46.9622 101.503 47.1251 101.503 47.2899C101.503 47.4547 101.47 47.6179 101.405 47.7692C101.34 47.9204 101.245 48.0569 101.126 48.1699ZM101.335 57.39C100.744 57.4192 100.159 57.2502 99.674 56.9099C99.4752 56.757 99.3148 56.5582 99.2075 56.3303C99.1002 56.1024 99.0488 55.8519 99.0574 55.6L99.0574 50.1599C99.0526 50.1207 99.0567 50.0808 99.0695 50.0435C99.0823 50.0061 99.1035 49.9722 99.1312 49.9442C99.159 49.9161 99.1928 49.895 99.23 49.8822C99.2672 49.8693 99.3068 49.8651 99.3458 49.87L101.016 49.87C101.205 49.87 101.295 49.97 101.295 50.1599L101.295 54.88C101.295 55.26 101.464 55.45 101.802 55.45C101.953 55.4554 102.103 55.4386 102.25 55.4C102.448 55.4 102.558 55.46 102.568 55.64L102.717 56.89C102.724 56.9265 102.723 56.964 102.715 57.0001C102.706 57.0363 102.69 57.0702 102.667 57.0996C102.645 57.129 102.617 57.1532 102.584 57.1704C102.551 57.1877 102.515 57.1979 102.478 57.2C102.109 57.3223 101.724 57.3864 101.335 57.39Z" fill="#080829" fill-opacity="1.000000" fill-rule="nonzero"/>
		<path id="Vector" d="M108.862 49.63C109.385 49.6094 109.905 49.6942 110.394 49.8798C110.882 50.0652 111.329 50.3477 111.706 50.71C112.409 51.4689 112.8 52.4678 112.8 53.505C112.8 54.5424 112.409 55.5411 111.706 56.3C111.331 56.6656 110.884 56.9508 110.396 57.1381C109.907 57.3256 109.385 57.4113 108.862 57.39C108.118 57.4067 107.388 57.1785 106.784 56.74L106.784 60.35C106.784 60.54 106.685 60.63 106.496 60.63L104.825 60.63C104.787 60.6372 104.748 60.6349 104.711 60.6234C104.674 60.6118 104.64 60.5914 104.612 60.5638C104.585 60.5363 104.565 60.5023 104.554 60.4651C104.542 60.4279 104.54 60.3883 104.547 60.35L104.547 52.15C104.559 52.0698 104.552 51.988 104.526 51.911C104.501 51.8341 104.458 51.7642 104.401 51.7068C104.344 51.6495 104.274 51.6064 104.198 51.5809C104.121 51.5554 104.04 51.5482 103.96 51.5601L103.632 51.5601C103.413 51.5601 103.304 51.48 103.304 51.3201L103.304 50.14C103.299 50.067 103.319 49.9944 103.36 49.9344C103.402 49.8743 103.463 49.8304 103.532 49.8101C103.876 49.6843 104.24 49.6233 104.606 49.63C104.971 49.5975 105.337 49.6753 105.658 49.8535C105.979 50.0317 106.239 50.302 106.406 50.63C106.726 50.3042 107.109 50.0474 107.532 49.8755C107.955 49.7036 108.407 49.62 108.862 49.63ZM107.311 55C107.488 55.1864 107.701 55.3347 107.938 55.436C108.173 55.5374 108.427 55.5895 108.683 55.5895C108.94 55.5895 109.194 55.5374 109.429 55.436C109.665 55.3347 109.879 55.1864 110.056 55C110.43 54.5811 110.626 54.0322 110.603 53.47C110.629 52.9073 110.432 52.3572 110.056 51.9401C109.879 51.7537 109.665 51.6055 109.429 51.504C109.194 51.4027 108.94 51.3505 108.683 51.3505C108.427 51.3505 108.173 51.4027 107.938 51.504C107.701 51.6055 107.488 51.7537 107.311 51.9401C106.949 52.3646 106.761 52.9114 106.784 53.47C106.764 54.0283 106.952 54.574 107.311 55Z" fill="#080829" fill-opacity="1.000000" fill-rule="nonzero"/>
		<path id="Vector" d="M117.494 57.39C116.601 57.4269 115.716 57.2122 114.938 56.77C114.626 56.5811 114.361 56.3237 114.161 56.0173C113.961 55.7109 113.833 55.3632 113.785 55C113.785 54.8 113.854 54.7 114.073 54.7L115.535 54.7C115.605 54.7028 115.672 54.7247 115.73 54.7635C115.788 54.8024 115.834 54.8566 115.863 54.92C116.072 55.46 116.619 55.73 117.494 55.73C117.799 55.744 118.104 55.6823 118.379 55.55C118.474 55.5068 118.556 55.4384 118.616 55.3521C118.675 55.2659 118.71 55.1648 118.717 55.0601C118.717 54.8 118.558 54.62 118.24 54.5C117.862 54.3737 117.472 54.2898 117.076 54.25C116.607 54.1967 116.143 54.1132 115.684 54C115.239 53.8986 114.833 53.6652 114.521 53.33C114.337 53.1022 114.201 52.8387 114.123 52.556C114.044 52.2733 114.024 51.9773 114.064 51.6866C114.104 51.3958 114.203 51.1165 114.356 50.866C114.508 50.6154 114.71 50.3989 114.948 50.23C115.665 49.7709 116.505 49.5472 117.355 49.59C118.176 49.5621 118.99 49.7665 119.702 50.1801C119.988 50.3435 120.236 50.5692 120.424 50.8408C120.614 51.1124 120.741 51.423 120.795 51.75C120.795 51.95 120.706 52.05 120.527 52.05L119.055 52.05C118.994 52.0537 118.932 52.0385 118.878 52.0065C118.825 51.9744 118.783 51.9268 118.757 51.87C118.658 51.6332 118.473 51.4434 118.24 51.34C117.976 51.2014 117.682 51.1326 117.385 51.14C117.093 51.1241 116.802 51.1825 116.539 51.3101C116.447 51.3461 116.366 51.4091 116.31 51.491C116.253 51.573 116.222 51.6702 116.221 51.77C116.227 51.9069 116.277 52.038 116.363 52.1442C116.449 52.2502 116.566 52.3259 116.698 52.36C117.08 52.5048 117.477 52.6055 117.882 52.66C118.347 52.7216 118.809 52.8083 119.264 52.92C119.709 53.0215 120.115 53.2548 120.427 53.59C120.595 53.7747 120.724 53.9908 120.807 54.226C120.891 54.4611 120.928 54.7106 120.915 54.96C120.924 55.3057 120.842 55.6477 120.68 55.9528C120.518 56.2576 120.28 56.5151 119.99 56.7C119.247 57.1796 118.376 57.4203 117.494 57.39Z" fill="#080829" fill-opacity="1.000000" fill-rule="nonzero"/>
		<path id="Vector" d="M131.426 56.89C131.432 56.9255 131.43 56.9618 131.422 56.9967C131.413 57.0316 131.398 57.0645 131.376 57.0934C131.355 57.1223 131.328 57.1466 131.297 57.1649C131.267 57.1832 131.233 57.1951 131.197 57.2C130.834 57.3192 130.455 57.3832 130.073 57.39C129.695 57.4294 129.314 57.37 128.965 57.2175C128.616 57.0651 128.313 56.825 128.084 56.52C127.382 57.1273 126.473 57.4388 125.549 57.39C125.119 57.4099 124.69 57.3392 124.29 57.1825C123.889 57.0258 123.525 56.7865 123.222 56.48C122.92 56.1589 122.687 55.7799 122.535 55.3658C122.382 54.9517 122.315 54.5109 122.337 54.0699L122.337 50.16C122.337 49.97 122.426 49.87 122.615 49.87L124.286 49.87C124.475 49.87 124.564 49.97 124.564 50.16L124.564 53.77C124.546 54.2198 124.698 54.6595 124.992 55C125.138 55.1559 125.316 55.2786 125.513 55.3597C125.71 55.4407 125.923 55.4784 126.135 55.47C126.353 55.4796 126.571 55.4456 126.776 55.3701C126.981 55.2946 127.169 55.179 127.329 55.03C127.48 54.873 127.598 54.6863 127.675 54.4817C127.752 54.277 127.786 54.0586 127.776 53.84L127.776 50.16C127.776 49.97 127.866 49.87 128.055 49.87L129.745 49.87C129.934 49.87 130.024 49.97 130.024 50.16L130.024 54.87C130.024 55.26 130.193 55.45 130.521 55.45C130.675 55.4561 130.829 55.4392 130.978 55.4C131.016 55.3894 131.055 55.3875 131.094 55.3944C131.132 55.4014 131.168 55.417 131.2 55.4401C131.232 55.4633 131.258 55.4932 131.276 55.5278C131.294 55.5624 131.304 55.6008 131.306 55.64L131.426 56.89Z" fill="#080829" fill-opacity="1.000000" fill-rule="nonzero"/>
		<path id="Vector" d="M147.227 56.89C147.236 56.9258 147.237 56.9631 147.23 56.9993C147.222 57.0355 147.207 57.0697 147.185 57.0992C147.163 57.1289 147.135 57.1533 147.103 57.1707C147.071 57.1881 147.035 57.1981 146.998 57.2C146.628 57.3209 146.243 57.3849 145.855 57.39C145.263 57.4207 144.679 57.2517 144.194 56.91C143.984 56.7635 143.814 56.5675 143.698 56.339C143.581 56.1104 143.523 55.8566 143.528 55.6L143.528 53.25C143.549 52.8016 143.399 52.3619 143.11 52.02C142.971 51.8636 142.798 51.7405 142.606 51.6592C142.413 51.5779 142.205 51.5405 141.996 51.55C141.808 51.5428 141.621 51.5787 141.448 51.655C141.276 51.7312 141.124 51.8457 141.002 51.99C140.739 52.3251 140.605 52.7438 140.624 53.17L140.624 56.86C140.624 57.05 140.534 57.15 140.346 57.15L138.665 57.15C138.626 57.1549 138.586 57.1506 138.55 57.1379C138.512 57.125 138.478 57.1038 138.45 57.0758C138.422 57.0479 138.401 57.0139 138.389 56.9764C138.376 56.9391 138.372 56.8993 138.377 56.86L138.377 53.25C138.398 52.8065 138.26 52.3699 137.989 52.02C137.867 51.873 137.715 51.7546 137.543 51.6735C137.372 51.5922 137.184 51.55 136.994 51.55C136.792 51.5417 136.59 51.5767 136.401 51.6525C136.212 51.7284 136.042 51.8434 135.901 51.99C135.616 52.3143 135.47 52.738 135.493 53.17L135.493 56.86C135.498 56.8993 135.494 56.9391 135.481 56.9764C135.468 57.0139 135.447 57.0479 135.419 57.0758C135.391 57.1038 135.358 57.125 135.321 57.1379C135.283 57.1506 135.243 57.1549 135.204 57.15L133.584 57.15C133.395 57.15 133.305 57.05 133.305 56.86L133.305 52.15C133.317 52.0698 133.31 51.988 133.284 51.911C133.259 51.834 133.217 51.764 133.159 51.7068C133.102 51.6495 133.033 51.6064 132.956 51.5809C132.88 51.5554 132.798 51.5482 132.718 51.5599L132.39 51.5599C132.171 51.5599 132.062 51.48 132.062 51.3199L132.062 50.14C132.057 50.067 132.077 49.9944 132.119 49.9343C132.161 49.8743 132.221 49.8304 132.291 49.8099C132.635 49.6843 132.999 49.6232 133.365 49.63C133.716 49.5999 134.069 49.6703 134.382 49.8331C134.695 49.9958 134.956 50.2444 135.135 50.55C135.47 50.2302 135.868 49.9835 136.302 49.8252C136.737 49.6669 137.199 49.6005 137.661 49.63C138.109 49.608 138.556 49.6925 138.965 49.8767C139.375 50.0609 139.735 50.3395 140.017 50.6899C140.347 50.3303 140.751 50.0486 141.202 49.8652C141.652 49.682 142.137 49.6016 142.623 49.63C143.057 49.6096 143.491 49.6799 143.896 49.8364C144.301 49.9932 144.67 50.2327 144.98 50.54C145.282 50.8605 145.516 51.2394 145.668 51.6536C145.82 52.0679 145.887 52.509 145.865 52.95L145.865 54.88C145.865 55.26 146.034 55.45 146.352 55.45C146.506 55.4572 146.66 55.4404 146.809 55.4C147.015 55.4 147.124 55.48 147.137 55.64L147.227 56.89Z" fill="#080829" fill-opacity="1.000000" fill-rule="nonzero"/>
		<path id="Vector" d="M30.6219 48.5699C31.3556 45.6047 33.0547 42.9714 35.4487 41.0895C37.8428 39.2076 40.7941 38.1853 43.8327 38.1853C46.8715 38.1853 49.8227 39.2076 52.2167 41.0895C54.6108 42.9714 56.3099 45.6047 57.0435 48.5699L55.8502 48.5699C53.8372 48.5402 51.8655 49.1453 50.2119 50.3C50.1165 50.3695 50.0169 50.4329 49.9136 50.49L49.7744 50.49C49.6711 50.4329 49.5715 50.3695 49.476 50.3C47.8078 49.1719 45.8431 48.5695 43.8327 48.5695C41.8224 48.5695 39.8577 49.1719 38.1895 50.3C38.0941 50.3695 37.9944 50.4329 37.8911 50.49L37.7519 50.49C37.6487 50.4329 37.549 50.3695 37.4536 50.3C35.8 49.1453 33.8282 48.5402 31.8152 48.5699L30.6219 48.5699ZM53.7023 54.84C54.3148 54.3604 55.0741 54.1093 55.8502 54.13L57.4512 54.13L57.4512 50.92L55.8502 50.92C54.4832 50.9034 53.1473 51.3313 52.0416 52.14C51.4194 52.6013 50.6667 52.8501 49.8937 52.8501C49.1207 52.8501 48.3679 52.6013 47.7457 52.14C46.612 51.3464 45.2638 50.9209 43.8824 50.9209C42.5011 50.9209 41.1529 51.3464 40.0192 52.14C39.397 52.6013 38.6443 52.8501 37.8712 52.8501C37.0983 52.8501 36.3455 52.6013 35.7233 52.14C34.6039 51.3209 33.249 50.8925 31.8649 50.92L30.2142 50.92L30.2142 54.13L31.8152 54.13C32.5914 54.1093 33.3506 54.3604 33.9632 54.84C35.0948 55.6342 36.4415 56.0601 37.8215 56.0601C39.2014 56.0601 40.5482 55.6342 41.6798 54.84C42.2932 54.3617 43.0519 54.111 43.8278 54.13C44.6042 54.1077 45.364 54.3588 45.9757 54.84C47.1094 55.6335 48.4576 56.0591 49.839 56.0591C51.2203 56.0591 52.5685 55.6335 53.7023 54.84ZM53.7023 60.58C54.3148 60.1003 55.0741 59.8492 55.8502 59.87L57.4512 59.87L57.4512 56.66L55.8502 56.66C54.4832 56.6434 53.1473 57.0713 52.0416 57.88C51.4194 58.3413 50.6667 58.5901 49.8937 58.5901C49.1207 58.5901 48.3679 58.3413 47.7457 57.88C46.612 57.0864 45.2638 56.6609 43.8824 56.6609C42.5011 56.6609 41.1529 57.0864 40.0192 57.88C39.397 58.3413 38.6443 58.5901 37.8712 58.5901C37.0983 58.5901 36.3455 58.3413 35.7233 57.88C34.6039 57.0609 33.249 56.6324 31.8649 56.66L30.2142 56.66L30.2142 59.87L31.8152 59.87C32.5914 59.8492 33.3506 60.1003 33.9632 60.58C35.0948 61.3741 36.4415 61.8 37.8215 61.8C39.2014 61.8 40.5482 61.3741 41.6798 60.58C42.2932 60.1017 43.0519 59.851 43.8278 59.87C44.6042 59.8477 45.364 60.0988 45.9757 60.58C47.1094 61.3737 48.4576 61.7991 49.839 61.7991C51.2203 61.7991 52.5685 61.3737 53.7023 60.58Z" fill="#080829" fill-opacity="1.000000" fill-rule="nonzero"/>
	</g>
</svg>
