<svg width="178.000000" height="100.000000" viewBox="0 0 178 100" fill="none" xmlns="http://www.w3.org/2000/svg" xmlns:xlink="http://www.w3.org/1999/xlink">
	<desc>
			Created with Pixso.
	</desc>
	<defs>
		<clipPath id="clip1_569">
			<rect id="logoipsum-6" width="178.000000" height="100.000000" fill="white" fill-opacity="0"/>
		</clipPath>
	</defs>
	<g clip-path="url(#clip1_569)">
		<path id="Vector" d="M43.2491 40.7297L43.2491 36.9231L31.3141 36.9231L31.3141 63.0769L43.2491 63.0769L43.2491 59.2703C40.8043 59.2703 38.4595 58.2935 36.7307 56.5551C35.0018 54.8165 34.0306 52.4586 34.0306 50C34.0306 47.5414 35.0018 45.1833 36.7307 43.4449C38.4595 41.7064 40.8043 40.7297 43.2491 40.7297Z" fill="#080829" fill-opacity="1.000000" fill-rule="nonzero"/>
		<path id="Vector" d="M43.2494 40.7297L43.2494 59.2704C45.6943 59.2704 48.0391 58.2936 49.7678 56.5551C51.4967 54.8165 52.4679 52.4586 52.4679 50C52.4679 47.5414 51.4967 45.1835 49.7678 43.4449C48.0391 41.7064 45.6943 40.7297 43.2494 40.7297Z" fill="#080829" fill-opacity="1.000000" fill-rule="nonzero"/>
		<path id="Vector" d="M59.1654 43.0586L61.8374 43.0586L61.8374 56.0011L59.1654 56.0011L59.1654 43.0586Z" fill="#080829" fill-opacity="1.000000" fill-rule="nonzero"/>
		<path id="Vector" d="M63.334 51.5675C63.334 50.6364 63.609 49.7262 64.124 48.9523C64.6389 48.1783 65.3708 47.5757 66.2268 47.2206C67.0829 46.8656 68.0244 46.7739 68.9323 46.9575C69.84 47.1412 70.6731 47.5918 71.3259 48.2521C71.9788 48.9125 72.4221 49.7527 72.5995 50.6666C72.7769 51.5807 72.6805 52.527 72.3224 53.3857C71.9644 54.2444 71.361 54.9769 70.5885 55.4904C69.816 56.0038 68.9093 56.275 67.9833 56.2698C67.3691 56.2747 66.7603 56.1561 66.1923 55.9211C65.6243 55.6862 65.1085 55.3396 64.6755 54.9016C64.2426 54.4636 63.9009 53.943 63.6704 53.3705C63.4402 52.7981 63.3257 52.1851 63.334 51.5675ZM70.0319 51.5675C70.0214 51.166 69.8934 50.7765 69.6639 50.448C69.4344 50.1193 69.1139 49.8658 68.7419 49.7196C68.37 49.5731 67.9635 49.5403 67.5732 49.6251C67.183 49.7098 66.8262 49.9084 66.5474 50.196C66.2687 50.4838 66.0806 50.8475 66.0065 51.2422C65.9323 51.6367 65.9755 52.0447 66.1306 52.4147C66.2858 52.7847 66.546 53.1006 66.8788 53.3225C67.2113 53.5447 67.6018 53.6631 68.0011 53.6633C68.2731 53.6687 68.5432 53.6176 68.7944 53.5132C69.0459 53.4088 69.2731 53.2534 69.4619 53.0568C69.6509 52.86 69.7974 52.6261 69.8925 52.37C69.9874 52.1138 70.0288 51.8406 70.0142 51.5675L70.0319 51.5675Z" fill="#080829" fill-opacity="1.000000" fill-rule="nonzero"/>
		<path id="Vector" d="M83.2048 47.1339L83.2048 55.5623C83.2048 58.536 80.889 59.7988 78.5466 59.7988C77.7202 59.8669 76.8915 59.702 76.1536 59.3221C75.4155 58.9424 74.7976 58.3629 74.3693 57.6493L76.6227 56.3416C76.8053 56.7118 77.0957 57.0173 77.4554 57.2173C77.8151 57.4172 78.2267 57.5023 78.6356 57.4612C78.8961 57.4934 79.1605 57.4674 79.4099 57.385C79.6592 57.3025 79.8873 57.1658 80.0779 56.9843C80.2687 56.8027 80.417 56.5813 80.5126 56.3354C80.6082 56.0897 80.6484 55.8257 80.6307 55.5623L80.6307 54.7473C80.3198 55.1263 79.9253 55.4272 79.4785 55.6263C79.0317 55.8253 78.5449 55.9169 78.0566 55.8937C76.8756 55.8937 75.7428 55.4219 74.9077 54.582C74.0725 53.7422 73.6033 52.603 73.6033 51.4153C73.6033 50.2275 74.0725 49.0885 74.9077 48.2487C75.7428 47.4088 76.8756 46.9369 78.0566 46.9369C78.5449 46.9137 79.0317 47.0052 79.4785 47.2042C79.9253 47.4033 80.3198 47.7042 80.6307 48.0834L80.6307 47.1876L83.2048 47.1339ZM80.6307 51.3884C80.6484 50.96 80.5385 50.5359 80.3146 50.1708C80.0907 49.8057 79.7634 49.5162 79.3748 49.3397C78.9861 49.1632 78.5537 49.1077 78.1334 49.1803C77.7131 49.2528 77.3239 49.4501 77.0159 49.7468C76.708 50.0436 76.4955 50.4261 76.4054 50.8455C76.3156 51.2648 76.3523 51.7014 76.5111 52.0995C76.67 52.4974 76.9436 52.8386 77.2968 53.0791C77.65 53.3195 78.0667 53.4481 78.493 53.4485C78.7715 53.4686 79.0509 53.4299 79.3134 53.3347C79.5757 53.2396 79.8154 53.0901 80.017 52.8959C80.2184 52.7018 80.3771 52.4673 80.4828 52.2075C80.5885 51.948 80.6389 51.6688 80.6307 51.3884Z" fill="#080829" fill-opacity="1.000000" fill-rule="nonzero"/>
		<path id="Vector" d="M84.7102 51.5675C84.7102 50.6372 84.9847 49.7277 85.4988 48.9541C86.0131 48.1807 86.7438 47.578 87.5989 47.2223C88.4537 46.8667 89.3944 46.774 90.3018 46.9563C91.209 47.1384 92.0421 47.5872 92.6959 48.2456C93.3494 48.9043 93.7941 49.7429 93.9734 50.6556C94.153 51.5685 94.0591 52.5143 93.7037 53.3733C93.3484 54.2324 92.7477 54.9662 91.9777 55.4817C91.2074 55.9974 90.3025 56.2716 89.3773 56.2699C88.762 56.276 88.1516 56.1583 87.5822 55.924C87.0126 55.6897 86.4954 55.3435 86.0607 54.9054C85.6259 54.4674 85.2826 53.9467 85.0507 53.3734C84.8188 52.8003 84.703 52.1864 84.7102 51.5675ZM91.4081 51.5675C91.3975 51.1658 91.2693 50.776 91.0396 50.447C90.8097 50.1183 90.4884 49.865 90.116 49.7189C89.7437 49.5728 89.3367 49.5404 88.9462 49.626C88.5555 49.7113 88.1987 49.9109 87.9204 50.1995C87.6421 50.4879 87.4546 50.8527 87.3816 51.2478C87.3085 51.6431 87.3529 52.051 87.5093 52.4209C87.6659 52.7909 87.9275 53.1061 88.2614 53.327C88.5952 53.5481 88.9865 53.665 89.3862 53.6635C89.6582 53.6688 89.9281 53.6178 90.1796 53.5132C90.4309 53.4089 90.6581 53.2535 90.8469 53.0569C91.0359 52.8601 91.1824 52.6262 91.2775 52.3701C91.3726 52.1139 91.4139 51.8407 91.3992 51.5675L91.4081 51.5675Z" fill="#080829" fill-opacity="1.000000" fill-rule="nonzero"/>
		<path id="Vector" d="M95.2826 44.7604C95.2826 44.4452 95.3756 44.1368 95.5498 43.8746C95.724 43.6124 95.9717 43.4082 96.2612 43.2875C96.551 43.1667 96.8698 43.1353 97.1772 43.1968C97.4847 43.2583 97.7672 43.41 97.9891 43.6331C98.2107 43.8561 98.3617 44.1401 98.423 44.4493C98.4841 44.7587 98.4526 45.0792 98.3326 45.3706C98.2128 45.6619 98.0095 45.9109 97.7488 46.0861C97.488 46.2612 97.1815 46.3547 96.868 46.3547C96.449 46.3501 96.0483 46.1805 95.7521 45.8826C95.4557 45.5847 95.2871 45.1819 95.2826 44.7604ZM95.5409 47.134L98.2129 47.134L98.2129 56.0012L95.5409 56.0012L95.5409 47.134Z" fill="#080829" fill-opacity="1.000000" fill-rule="nonzero"/>
		<path id="Vector" d="M109.649 51.5676C109.679 52.1573 109.592 52.7472 109.395 53.3033C109.198 53.8593 108.892 54.3706 108.497 54.8076C108.103 55.2446 107.625 55.5988 107.094 55.8499C106.562 56.1007 105.988 56.2435 105.401 56.2699C104.903 56.3032 104.403 56.2231 103.941 56.0354C103.479 55.8477 103.064 55.5574 102.729 55.1862L102.729 59.566L100.057 59.566L100.057 47.134L102.729 47.134L102.729 47.967C103.065 47.5968 103.48 47.3077 103.942 47.1217C104.404 46.9355 104.904 46.8571 105.401 46.8922C105.985 46.9186 106.558 47.0605 107.088 47.3098C107.617 47.5591 108.094 47.9109 108.488 48.345C108.882 48.7792 109.188 49.2872 109.387 49.8402C109.586 50.3931 109.676 50.98 109.649 51.5676ZM106.977 51.5676C106.967 51.1516 106.834 50.748 106.596 50.4073C106.359 50.0667 106.026 49.8041 105.641 49.6526C105.256 49.5011 104.834 49.4674 104.43 49.5555C104.026 49.6439 103.656 49.8502 103.368 50.1488C103.08 50.4473 102.885 50.8247 102.809 51.2339C102.734 51.6429 102.78 52.0654 102.942 52.4484C103.104 52.8313 103.374 53.1577 103.719 53.3866C104.065 53.6156 104.47 53.7368 104.884 53.7352C105.167 53.7472 105.451 53.699 105.714 53.5935C105.978 53.4879 106.216 53.3276 106.413 53.123C106.611 52.9183 106.763 52.674 106.861 52.4059C106.958 52.1378 106.998 51.8522 106.977 51.5676Z" fill="#080829" fill-opacity="1.000000" fill-rule="nonzero"/>
		<path id="Vector" d="M117.781 53.3409C117.781 55.3831 115.999 56.252 114.112 56.252C113.341 56.3215 112.569 56.1573 111.891 55.7806C111.215 55.4038 110.667 54.8315 110.317 54.1381L112.615 52.8304C112.706 53.15 112.904 53.4285 113.174 53.6191C113.445 53.8099 113.773 53.9015 114.103 53.8784C114.735 53.8784 115.056 53.6813 115.056 53.323C115.056 52.3467 110.718 52.8662 110.718 49.7941C110.718 47.8594 112.339 46.8921 114.174 46.8921C114.872 46.8606 115.564 47.0198 116.179 47.3525C116.794 47.6853 117.307 48.1792 117.665 48.7819L115.368 50.0001C115.266 49.769 115.1 49.5725 114.89 49.4342C114.68 49.2959 114.434 49.2218 114.182 49.2208C113.72 49.2208 113.444 49.4 113.444 49.7134C113.444 50.7345 117.781 50.0627 117.781 53.3409Z" fill="#080829" fill-opacity="1.000000" fill-rule="nonzero"/>
		<path id="Vector" d="M127.463 47.1339L127.463 56.0012L124.791 56.0012L124.791 55.1682C124.487 55.5369 124.102 55.8287 123.666 56.0201C123.23 56.2115 122.754 56.297 122.279 56.2699C120.498 56.2699 118.975 54.989 118.975 52.5977L118.975 47.1339L121.647 47.1339L121.647 52.1945C121.626 52.4061 121.651 52.6198 121.72 52.8207C121.789 53.0216 121.9 53.205 122.046 53.3584C122.193 53.5116 122.372 53.6311 122.568 53.7086C122.765 53.786 122.976 53.8195 123.188 53.8068C124.15 53.8068 124.827 53.2335 124.827 52.0154L124.827 47.1339L127.463 47.1339Z" fill="#080829" fill-opacity="1.000000" fill-rule="nonzero"/>
		<path id="Vector" d="M142.604 50.5553L142.604 56.0011L139.932 56.0011L139.932 50.7882C139.932 49.8926 139.513 49.3373 138.667 49.3373C137.822 49.3373 137.287 49.9552 137.287 51.0032L137.287 56.0011L134.615 56.0011L134.615 50.7882C134.615 49.8926 134.196 49.3373 133.35 49.3373C132.504 49.3373 131.97 49.9552 131.97 51.0032L131.97 56.0011L129.298 56.0011L129.298 47.1339L131.97 47.1339L131.97 47.949C132.247 47.589 132.607 47.3037 133.022 47.1193C133.434 46.9347 133.888 46.8567 134.338 46.892C134.791 46.8683 135.241 46.9633 135.645 47.1675C136.05 47.3716 136.395 47.678 136.645 48.0564C136.94 47.6609 137.328 47.3467 137.775 47.1432C138.221 46.9395 138.713 46.8531 139.202 46.892C141.286 46.892 142.604 48.343 142.604 50.5553Z" fill="#080829" fill-opacity="1.000000" fill-rule="nonzero"/>
		<path id="Vector" d="M144.848 47.0802C145.93 47.0802 146.808 46.198 146.808 45.1096C146.808 44.0215 145.93 43.1393 144.848 43.1393C143.766 43.1393 142.889 44.0215 142.889 45.1096C142.889 46.198 143.766 47.0802 144.848 47.0802Z" fill="#080829" fill-opacity="1.000000" fill-rule="nonzero"/>
	</g>
</svg>
