<svg width="136" height="50" viewBox="0 0 136 50" fill="none" xmlns="http://www.w3.org/2000/svg">
<path d="M33.266 1.87377L45.5366 23.127C46.2057 24.2863 46.2057 25.7144 45.5366 26.8736L33.266 48.1269C32.5968 49.2861 31.36 50.0001 30.0215 50.0001H37.2123C38.5508 50.0001 39.7876 49.2861 40.4568 48.1269L52.7274 26.8736C53.3965 25.7144 53.3965 24.2863 52.7274 23.127L40.4568 1.87377C39.7876 0.714544 38.5506 0.000488281 37.2123 0.000488281H30.0215C31.36 0.000488281 32.5968 0.714544 33.266 1.87377Z" fill="#39435A"/>
<path d="M33.266 1.87377L33.8127 2.82078C34.742 2.83436 35.7073 2.9107 36.6924 3.05552C38.6527 3.34389 40.4599 3.86951 42.0038 4.55371L40.4565 1.87377C39.7876 0.714544 38.5508 0.000488281 37.2123 0.000488281H30.0215C31.36 0.000488281 32.5968 0.714544 33.266 1.87377Z" fill="#2C374C"/>
<path d="M19.4237 1.87377L31.6943 23.127C32.3635 24.2863 32.3635 25.7144 31.6943 26.8736L19.4237 48.1269C18.7546 49.2861 17.5177 50.0001 16.1792 50.0001H23.37C24.7085 50.0001 25.9454 49.2861 26.6145 48.1269L38.8851 26.8736C39.5542 25.7144 39.5542 24.2863 38.8851 23.127L26.6145 1.87377C25.9452 0.714544 24.7084 0.000488281 23.3698 0.000488281H16.1792C17.5176 0.000488281 18.7544 0.714544 19.4237 1.87377Z" fill="#39435A"/>
<path d="M19.9632 48.1264L7.69268 26.8731C7.0235 25.7139 7.0235 24.2858 7.69268 23.1265L19.9632 1.87328C20.6324 0.714055 21.8692 0 23.2077 0H16.017C14.6784 0 13.4416 0.714055 12.7724 1.87328L0.501886 23.1265C-0.167295 24.2858 -0.167295 25.7139 0.501886 26.8731L12.7724 48.1264C13.4416 49.2856 14.6784 49.9996 16.017 49.9996H23.2077C21.8692 49.9996 20.6324 49.2856 19.9632 48.1264Z" fill="#435F94"/>
<path d="M27.0526 48.1265L14.782 26.8732C14.1129 25.714 14.1129 24.2859 14.782 23.1267L27.0526 1.87341C27.7218 0.714544 28.9586 0.000488281 30.2971 0.000488281H23.1063C21.7678 0.000488281 20.531 0.714544 19.8618 1.87377L7.59124 23.127C6.92206 24.2863 6.92206 25.7144 7.59124 26.8736L19.8618 48.1269C20.531 49.2861 21.7678 50.0001 23.1063 50.0001H30.2971C28.9586 49.9998 27.7218 49.2857 27.0526 48.1265Z" fill="#377DFF"/>
<path d="M34.2789 48.1265L22.0084 26.8732C21.3392 25.714 21.3392 24.2859 22.0084 23.1267L34.2789 1.87341C34.9481 0.714544 36.1849 0.000488281 37.5234 0.000488281H30.3326C28.9941 0.000488281 27.7573 0.714544 27.0881 1.87377L14.8176 23.127C14.1484 24.2863 14.1484 25.7144 14.8176 26.8736L27.0881 48.1269C27.7573 49.2861 28.9941 50.0001 30.3326 50.0001H37.5234C36.1849 49.9998 34.9481 49.2857 34.2789 48.1265Z" fill="#37DBFF"/>
<path d="M70.64 9.14L66.32 19.3C66.2267 19.5533 66.08 19.7533 65.88 19.9C65.6933 20.0333 65.4867 20.1 65.26 20.1C64.9 20.1 64.6333 20 64.46 19.8C64.2867 19.6 64.2 19.3533 64.2 19.06C64.2 18.94 64.22 18.8133 64.26 18.68L69.24 6.72C69.3467 6.45333 69.5067 6.24667 69.72 6.1C69.9467 5.95333 70.1867 5.89333 70.44 5.92C70.68 5.92 70.9 5.99333 71.1 6.14C71.3133 6.27333 71.4667 6.46667 71.56 6.72L76.48 18.44C76.5467 18.6133 76.58 18.7733 76.58 18.92C76.58 19.28 76.46 19.5667 76.22 19.78C75.9933 19.9933 75.74 20.1 75.46 20.1C75.22 20.1 75 20.0267 74.8 19.88C74.6133 19.7333 74.4667 19.5333 74.36 19.28L70.06 9.26L70.64 9.14ZM66.94 16.86L68.04 14.56H73.44L73.82 16.86H66.94ZM82.7134 9.1C83.2734 9.1 83.7868 9.18667 84.2534 9.36C84.7201 9.53333 85.1201 9.75333 85.4534 10.02C85.8001 10.2867 86.0668 10.56 86.2534 10.84C86.4534 11.1067 86.5534 11.3333 86.5534 11.52L86.0334 11.78V10.32C86.0334 9.97333 86.1468 9.68667 86.3734 9.46C86.6001 9.22 86.8868 9.1 87.2334 9.1C87.5801 9.1 87.8668 9.21333 88.0934 9.44C88.3201 9.66667 88.4334 9.96 88.4334 10.32V19.22C88.4334 20.38 88.1801 21.3067 87.6734 22C87.1801 22.7067 86.5268 23.2133 85.7134 23.52C84.9001 23.84 84.0268 24 83.0934 24C82.8268 24 82.4801 23.9667 82.0534 23.9C81.6268 23.8333 81.2201 23.7533 80.8334 23.66C80.4468 23.5667 80.1534 23.48 79.9534 23.4C79.5534 23.2267 79.2734 23.0067 79.1134 22.74C78.9668 22.4867 78.9401 22.2133 79.0334 21.92C79.1534 21.5333 79.3468 21.2667 79.6134 21.12C79.8801 20.9867 80.1601 20.9733 80.4534 21.08C80.5868 21.12 80.8068 21.2 81.1134 21.32C81.4201 21.44 81.7534 21.5467 82.1134 21.64C82.4868 21.7467 82.8134 21.8 83.0934 21.8C84.0934 21.8 84.8334 21.6 85.3134 21.2C85.7934 20.8 86.0334 20.2467 86.0334 19.54V17.8L86.2734 17.98C86.2734 18.1533 86.1801 18.3667 85.9934 18.62C85.8201 18.86 85.5734 19.1 85.2534 19.34C84.9468 19.58 84.5801 19.7867 84.1534 19.96C83.7268 20.12 83.2734 20.2 82.7934 20.2C81.8468 20.2 80.9934 19.9667 80.2334 19.5C79.4734 19.02 78.8734 18.3667 78.4334 17.54C77.9934 16.7 77.7734 15.74 77.7734 14.66C77.7734 13.5667 77.9934 12.6067 78.4334 11.78C78.8734 10.94 79.4668 10.2867 80.2134 9.82C80.9601 9.34 81.7934 9.1 82.7134 9.1ZM83.0934 11.3C82.4934 11.3 81.9668 11.4467 81.5134 11.74C81.0601 12.0333 80.7068 12.4333 80.4534 12.94C80.2001 13.4467 80.0734 14.02 80.0734 14.66C80.0734 15.2867 80.2001 15.8533 80.4534 16.36C80.7068 16.8667 81.0601 17.2667 81.5134 17.56C81.9668 17.8533 82.4934 18 83.0934 18C83.7068 18 84.2401 17.8533 84.6934 17.56C85.1468 17.2667 85.5001 16.8667 85.7534 16.36C86.0068 15.8533 86.1334 15.2867 86.1334 14.66C86.1334 14.02 86.0068 13.4467 85.7534 12.94C85.5001 12.4333 85.1468 12.0333 84.6934 11.74C84.2401 11.4467 83.7068 11.3 83.0934 11.3ZM95.8767 20.2C94.7434 20.2 93.7567 19.9667 92.9167 19.5C92.0901 19.02 91.4501 18.3733 90.9967 17.56C90.5567 16.7467 90.3367 15.8267 90.3367 14.8C90.3367 13.6 90.5767 12.58 91.0567 11.74C91.5501 10.8867 92.1901 10.2333 92.9767 9.78C93.7634 9.32667 94.5967 9.1 95.4767 9.1C96.1567 9.1 96.7967 9.24 97.3967 9.52C98.0101 9.8 98.5501 10.1867 99.0167 10.68C99.4834 11.16 99.8501 11.72 100.117 12.36C100.397 13 100.537 13.68 100.537 14.4C100.523 14.72 100.397 14.98 100.157 15.18C99.9167 15.38 99.6367 15.48 99.3167 15.48H91.6767L91.0767 13.48H98.4167L97.9767 13.88V13.34C97.9501 12.9533 97.8101 12.6067 97.5567 12.3C97.3167 11.9933 97.0101 11.7533 96.6367 11.58C96.2767 11.3933 95.8901 11.3 95.4767 11.3C95.0767 11.3 94.7034 11.3533 94.3567 11.46C94.0101 11.5667 93.7101 11.7467 93.4567 12C93.2034 12.2533 93.0034 12.5933 92.8567 13.02C92.7101 13.4467 92.6367 13.9867 92.6367 14.64C92.6367 15.36 92.7834 15.9733 93.0767 16.48C93.3834 16.9733 93.7701 17.3533 94.2367 17.62C94.7167 17.8733 95.2234 18 95.7567 18C96.2501 18 96.6434 17.96 96.9367 17.88C97.2301 17.8 97.4634 17.7067 97.6367 17.6C97.8234 17.48 97.9901 17.38 98.1367 17.3C98.3767 17.18 98.6034 17.12 98.8167 17.12C99.1101 17.12 99.3501 17.22 99.5367 17.42C99.7367 17.62 99.8367 17.8533 99.8367 18.12C99.8367 18.48 99.6501 18.8067 99.2767 19.1C98.9301 19.3933 98.4434 19.6533 97.8167 19.88C97.1901 20.0933 96.5434 20.2 95.8767 20.2ZM108.554 9.1C109.54 9.1 110.287 9.30667 110.794 9.72C111.314 10.1333 111.667 10.6867 111.854 11.38C112.054 12.06 112.154 12.82 112.154 13.66V18.78C112.154 19.1267 112.04 19.42 111.814 19.66C111.587 19.8867 111.3 20 110.954 20C110.607 20 110.32 19.8867 110.094 19.66C109.867 19.42 109.754 19.1267 109.754 18.78V13.66C109.754 13.22 109.694 12.8267 109.574 12.48C109.467 12.12 109.267 11.8333 108.974 11.62C108.68 11.4067 108.26 11.3 107.714 11.3C107.18 11.3 106.727 11.4067 106.354 11.62C105.994 11.8333 105.714 12.12 105.514 12.48C105.327 12.8267 105.234 13.22 105.234 13.66V18.78C105.234 19.1267 105.12 19.42 104.894 19.66C104.667 19.8867 104.38 20 104.034 20C103.687 20 103.4 19.8867 103.174 19.66C102.947 19.42 102.834 19.1267 102.834 18.78V10.52C102.834 10.1733 102.947 9.88667 103.174 9.66C103.4 9.42 103.687 9.3 104.034 9.3C104.38 9.3 104.667 9.42 104.894 9.66C105.12 9.88667 105.234 10.1733 105.234 10.52V11.38L104.934 11.32C105.054 11.0933 105.227 10.8533 105.454 10.6C105.68 10.3333 105.947 10.0867 106.254 9.86C106.56 9.63333 106.907 9.45333 107.294 9.32C107.68 9.17333 108.1 9.1 108.554 9.1ZM119.708 9.1C120.468 9.1 121.128 9.18 121.688 9.34C122.261 9.5 122.701 9.72667 123.008 10.02C123.328 10.3 123.488 10.64 123.488 11.04C123.488 11.3067 123.408 11.56 123.248 11.8C123.088 12.0267 122.854 12.14 122.548 12.14C122.334 12.14 122.154 12.1133 122.008 12.06C121.874 11.9933 121.754 11.9133 121.648 11.82C121.541 11.7267 121.414 11.64 121.268 11.56C121.134 11.48 120.928 11.42 120.648 11.38C120.381 11.3267 120.181 11.3 120.048 11.3C119.368 11.3 118.788 11.4467 118.308 11.74C117.841 12.0333 117.481 12.4333 117.228 12.94C116.974 13.4333 116.848 14.0067 116.848 14.66C116.848 15.3 116.974 15.8733 117.228 16.38C117.494 16.8733 117.854 17.2667 118.308 17.56C118.774 17.8533 119.308 18 119.908 18C120.241 18 120.528 17.98 120.768 17.94C121.008 17.9 121.208 17.84 121.368 17.76C121.554 17.6533 121.721 17.54 121.868 17.42C122.014 17.3 122.234 17.24 122.528 17.24C122.874 17.24 123.141 17.3533 123.328 17.58C123.514 17.7933 123.608 18.06 123.608 18.38C123.608 18.7133 123.421 19.02 123.048 19.3C122.674 19.5667 122.181 19.7867 121.568 19.96C120.968 20.12 120.314 20.2 119.608 20.2C118.554 20.2 117.641 19.96 116.868 19.48C116.094 18.9867 115.494 18.32 115.068 17.48C114.654 16.64 114.448 15.7 114.448 14.66C114.448 13.5667 114.668 12.6067 115.108 11.78C115.561 10.94 116.181 10.2867 116.968 9.82C117.768 9.34 118.681 9.1 119.708 9.1ZM133.478 9.3C133.825 9.3 134.112 9.42 134.338 9.66C134.565 9.88667 134.678 10.1733 134.678 10.52V19.02C134.678 20.2467 134.445 21.22 133.978 21.94C133.525 22.6733 132.912 23.2 132.138 23.52C131.365 23.84 130.498 24 129.538 24C129.112 24 128.658 23.9667 128.178 23.9C127.698 23.8333 127.305 23.7333 126.998 23.6C126.598 23.4267 126.318 23.2067 126.158 22.94C126.012 22.6867 125.985 22.4133 126.078 22.12C126.198 21.7333 126.392 21.4667 126.658 21.32C126.925 21.1867 127.205 21.1733 127.498 21.28C127.712 21.3467 127.992 21.4467 128.338 21.58C128.685 21.7267 129.085 21.8 129.538 21.8C130.152 21.8 130.658 21.7133 131.058 21.54C131.472 21.38 131.778 21.1 131.978 20.7C132.192 20.3133 132.298 19.78 132.298 19.1V17.76L132.718 18.24C132.492 18.68 132.205 19.0467 131.858 19.34C131.525 19.62 131.125 19.8333 130.658 19.98C130.192 20.1267 129.658 20.2 129.058 20.2C128.352 20.2 127.732 20.04 127.198 19.72C126.678 19.3867 126.272 18.9333 125.978 18.36C125.685 17.7733 125.538 17.1067 125.538 16.36V10.52C125.538 10.1733 125.652 9.88667 125.878 9.66C126.105 9.42 126.392 9.3 126.738 9.3C127.085 9.3 127.372 9.42 127.598 9.66C127.825 9.88667 127.938 10.1733 127.938 10.52V15.64C127.938 16.5067 128.125 17.12 128.498 17.48C128.885 17.8267 129.418 18 130.098 18C130.565 18 130.958 17.9133 131.278 17.74C131.598 17.5533 131.845 17.2867 132.018 16.94C132.192 16.58 132.278 16.1467 132.278 15.64V10.52C132.278 10.1733 132.392 9.88667 132.618 9.66C132.845 9.42 133.132 9.3 133.478 9.3Z" fill="#E2E2E2"/>
<path d="M73.68 33.632C73.808 33.7173 73.8827 33.8293 73.904 33.968C73.9253 34.096 73.8933 34.224 73.808 34.352C73.7333 34.448 73.6373 34.5013 73.52 34.512C73.4027 34.5227 73.2907 34.5013 73.184 34.448C72.7787 34.1813 72.3413 33.9733 71.872 33.824C71.4133 33.6747 70.9173 33.6 70.384 33.6C69.7333 33.6 69.1253 33.7173 68.56 33.952C68.0053 34.176 67.52 34.5067 67.104 34.944C66.688 35.3707 66.3627 35.8773 66.128 36.464C65.904 37.0507 65.792 37.696 65.792 38.4C65.792 39.1253 65.9093 39.7867 66.144 40.384C66.3787 40.9707 66.704 41.4773 67.12 41.904C67.5467 42.3307 68.0373 42.656 68.592 42.88C69.1467 43.104 69.744 43.216 70.384 43.216C70.9067 43.216 71.3973 43.1413 71.856 42.992C72.3253 42.8427 72.7627 42.64 73.168 42.384C73.2747 42.32 73.3867 42.2987 73.504 42.32C73.632 42.3307 73.7333 42.3893 73.808 42.496C73.904 42.6133 73.936 42.7413 73.904 42.88C73.8827 43.008 73.8133 43.1093 73.696 43.184C73.4293 43.3547 73.1147 43.5147 72.752 43.664C72.3893 43.8133 72.0053 43.9307 71.6 44.016C71.1947 44.112 70.7893 44.16 70.384 44.16C69.616 44.16 68.896 44.0213 68.224 43.744C67.552 43.4667 66.9547 43.0773 66.432 42.576C65.9093 42.064 65.4987 41.456 65.2 40.752C64.912 40.048 64.768 39.264 64.768 38.4C64.768 37.568 64.912 36.8053 65.2 36.112C65.488 35.408 65.888 34.8 66.4 34.288C66.912 33.776 67.5093 33.376 68.192 33.088C68.8747 32.8 69.6053 32.656 70.384 32.656C70.992 32.656 71.5787 32.7413 72.144 32.912C72.7093 33.0827 73.2213 33.3227 73.68 33.632ZM76.3571 44C76.2078 44 76.0905 43.952 76.0051 43.856C75.9198 43.76 75.8771 43.648 75.8771 43.52V36.352C75.8771 36.224 75.9198 36.112 76.0051 36.016C76.1011 35.92 76.2185 35.872 76.3571 35.872C76.4958 35.872 76.6078 35.92 76.6931 36.016C76.7891 36.112 76.8371 36.224 76.8371 36.352V38.752L76.5971 38.8C76.6291 38.4267 76.7198 38.0587 76.8691 37.696C77.0291 37.3227 77.2425 36.9813 77.5091 36.672C77.7758 36.3627 78.0905 36.112 78.4531 35.92C78.8265 35.728 79.2425 35.632 79.7011 35.632C79.8931 35.632 80.0798 35.6747 80.2611 35.76C80.4425 35.8347 80.5331 35.9627 80.5331 36.144C80.5331 36.304 80.4905 36.4267 80.4051 36.512C80.3198 36.5973 80.2185 36.64 80.1011 36.64C80.0051 36.64 79.8985 36.6133 79.7811 36.56C79.6745 36.5067 79.5305 36.48 79.3491 36.48C79.0505 36.48 78.7518 36.5707 78.4531 36.752C78.1545 36.9227 77.8825 37.1573 77.6371 37.456C77.3918 37.7547 77.1945 38.0907 77.0451 38.464C76.9065 38.8267 76.8371 39.1947 76.8371 39.568V43.52C76.8371 43.648 76.7891 43.76 76.6931 43.856C76.5971 43.952 76.4851 44 76.3571 44ZM85.53 44.16C84.7087 44.16 83.9833 43.984 83.354 43.632C82.7247 43.28 82.234 42.7893 81.882 42.16C81.53 41.5307 81.354 40.7947 81.354 39.952C81.354 39.0453 81.53 38.272 81.882 37.632C82.2447 36.992 82.7087 36.5013 83.274 36.16C83.85 35.808 84.458 35.632 85.098 35.632C85.5673 35.632 86.0207 35.7173 86.458 35.888C86.906 36.048 87.3007 36.2933 87.642 36.624C87.994 36.944 88.2713 37.3387 88.474 37.808C88.6873 38.2773 88.8047 38.8213 88.826 39.44C88.8153 39.568 88.762 39.68 88.666 39.776C88.57 39.8613 88.458 39.904 88.33 39.904H81.914L81.722 39.04H88.026L87.818 39.232V38.912C87.7753 38.4107 87.6153 37.984 87.338 37.632C87.0607 37.28 86.7247 37.0133 86.33 36.832C85.9353 36.6507 85.5247 36.56 85.098 36.56C84.778 36.56 84.4473 36.624 84.106 36.752C83.7753 36.88 83.4713 37.0827 83.194 37.36C82.9273 37.6267 82.7087 37.9733 82.538 38.4C82.3673 38.816 82.282 39.312 82.282 39.888C82.282 40.5173 82.41 41.088 82.666 41.6C82.922 42.112 83.29 42.5173 83.77 42.816C84.2607 43.1147 84.842 43.264 85.514 43.264C85.8873 43.264 86.2233 43.2107 86.522 43.104C86.8207 42.9973 87.082 42.8587 87.306 42.688C87.53 42.5067 87.7167 42.32 87.866 42.128C87.9833 42.032 88.1007 41.984 88.218 41.984C88.3247 41.984 88.4153 42.0267 88.49 42.112C88.5753 42.1973 88.618 42.2933 88.618 42.4C88.618 42.528 88.5647 42.64 88.458 42.736C88.138 43.12 87.722 43.456 87.21 43.744C86.698 44.0213 86.138 44.16 85.53 44.16ZM97.8074 35.824C97.946 35.824 98.058 35.872 98.1434 35.968C98.2394 36.064 98.2874 36.1813 98.2874 36.32V43.52C98.2874 43.648 98.2394 43.76 98.1434 43.856C98.0474 43.952 97.9354 44 97.8074 44C97.6687 44 97.5514 43.952 97.4554 43.856C97.37 43.76 97.3274 43.648 97.3274 43.52V41.616L97.5994 41.488C97.5994 41.7867 97.514 42.0907 97.3434 42.4C97.1834 42.7093 96.9594 42.9973 96.6714 43.264C96.3834 43.5307 96.042 43.7493 95.6474 43.92C95.2634 44.08 94.8474 44.16 94.3994 44.16C93.674 44.16 93.0234 43.9733 92.4474 43.6C91.882 43.2267 91.434 42.7147 91.1034 42.064C90.7834 41.4133 90.6234 40.6827 90.6234 39.872C90.6234 39.04 90.7887 38.3093 91.1194 37.68C91.45 37.04 91.898 36.5387 92.4634 36.176C93.0287 35.8133 93.6687 35.632 94.3834 35.632C94.842 35.632 95.2687 35.712 95.6634 35.872C96.0687 36.032 96.4207 36.2507 96.7194 36.528C97.018 36.8053 97.2474 37.1253 97.4074 37.488C97.578 37.84 97.6634 38.208 97.6634 38.592L97.3274 38.352V36.32C97.3274 36.1813 97.37 36.064 97.4554 35.968C97.5514 35.872 97.6687 35.824 97.8074 35.824ZM94.4794 43.264C95.0447 43.264 95.546 43.12 95.9834 42.832C96.4207 42.5333 96.762 42.128 97.0074 41.616C97.2634 41.0933 97.3914 40.512 97.3914 39.872C97.3914 39.2427 97.2634 38.6773 97.0074 38.176C96.762 37.6747 96.4207 37.2747 95.9834 36.976C95.546 36.6773 95.0447 36.528 94.4794 36.528C93.9247 36.528 93.4234 36.672 92.9754 36.96C92.538 37.248 92.1914 37.6427 91.9354 38.144C91.69 38.6453 91.5674 39.2213 91.5674 39.872C91.5674 40.512 91.69 41.0933 91.9354 41.616C92.1914 42.128 92.538 42.5333 92.9754 42.832C93.4127 43.12 93.914 43.264 94.4794 43.264ZM100.438 35.856H104.166C104.294 35.856 104.401 35.904 104.486 36C104.572 36.0853 104.614 36.192 104.614 36.32C104.614 36.4373 104.572 36.5387 104.486 36.624C104.401 36.7093 104.294 36.752 104.166 36.752H100.438C100.31 36.752 100.198 36.7093 100.102 36.624C100.017 36.528 99.9745 36.4213 99.9745 36.304C99.9745 36.176 100.017 36.0693 100.102 35.984C100.198 35.8987 100.31 35.856 100.438 35.856ZM102.086 33.6C102.225 33.6 102.337 33.648 102.422 33.744C102.518 33.84 102.566 33.952 102.566 34.08V42.112C102.566 42.4107 102.604 42.6347 102.678 42.784C102.764 42.9333 102.87 43.0347 102.998 43.088C103.126 43.1307 103.254 43.152 103.382 43.152C103.468 43.152 103.542 43.1413 103.606 43.12C103.681 43.088 103.761 43.072 103.846 43.072C103.942 43.072 104.022 43.1093 104.086 43.184C104.161 43.2587 104.198 43.3547 104.198 43.472C104.198 43.6213 104.113 43.7493 103.942 43.856C103.772 43.952 103.569 44 103.334 44C103.238 44 103.094 43.9947 102.902 43.984C102.71 43.9627 102.513 43.904 102.31 43.808C102.108 43.7013 101.937 43.52 101.798 43.264C101.67 43.008 101.606 42.64 101.606 42.16V34.08C101.606 33.952 101.649 33.84 101.734 33.744C101.83 33.648 101.948 33.6 102.086 33.6ZM107.476 43.52C107.476 43.648 107.428 43.76 107.332 43.856C107.236 43.952 107.124 44 106.996 44C106.858 44 106.74 43.952 106.644 43.856C106.559 43.76 106.516 43.648 106.516 43.52V36.16C106.516 36.032 106.559 35.92 106.644 35.824C106.74 35.728 106.858 35.68 106.996 35.68C107.135 35.68 107.247 35.728 107.332 35.824C107.428 35.92 107.476 36.032 107.476 36.16V43.52ZM106.996 34.608C106.772 34.608 106.602 34.56 106.484 34.464C106.378 34.3573 106.324 34.208 106.324 34.016V33.856C106.324 33.664 106.383 33.52 106.5 33.424C106.628 33.3173 106.799 33.264 107.012 33.264C107.215 33.264 107.37 33.3173 107.476 33.424C107.594 33.52 107.652 33.664 107.652 33.856V34.016C107.652 34.208 107.594 34.3573 107.476 34.464C107.37 34.56 107.21 34.608 106.996 34.608ZM109.938 35.648C110.024 35.648 110.109 35.6747 110.194 35.728C110.28 35.7813 110.344 35.8613 110.386 35.968L113.186 42.624L112.978 42.752L115.842 35.968C115.928 35.7547 116.082 35.6533 116.306 35.664C116.413 35.664 116.514 35.7013 116.61 35.776C116.706 35.84 116.754 35.936 116.754 36.064C116.754 36.128 116.744 36.1813 116.722 36.224C116.712 36.256 116.701 36.2933 116.69 36.336L113.554 43.696C113.469 43.888 113.325 43.9893 113.122 44C113.026 44.0107 112.93 43.9893 112.834 43.936C112.749 43.872 112.685 43.792 112.642 43.696L109.49 36.336C109.48 36.3147 109.469 36.2827 109.458 36.24C109.448 36.1973 109.442 36.1547 109.442 36.112C109.442 35.9947 109.485 35.888 109.57 35.792C109.656 35.696 109.778 35.648 109.938 35.648ZM122.377 44.16C121.556 44.16 120.83 43.984 120.201 43.632C119.572 43.28 119.081 42.7893 118.729 42.16C118.377 41.5307 118.201 40.7947 118.201 39.952C118.201 39.0453 118.377 38.272 118.729 37.632C119.092 36.992 119.556 36.5013 120.121 36.16C120.697 35.808 121.305 35.632 121.945 35.632C122.414 35.632 122.868 35.7173 123.305 35.888C123.753 36.048 124.148 36.2933 124.489 36.624C124.841 36.944 125.118 37.3387 125.321 37.808C125.534 38.2773 125.652 38.8213 125.673 39.44C125.662 39.568 125.609 39.68 125.513 39.776C125.417 39.8613 125.305 39.904 125.177 39.904H118.761L118.569 39.04H124.873L124.665 39.232V38.912C124.622 38.4107 124.462 37.984 124.185 37.632C123.908 37.28 123.572 37.0133 123.177 36.832C122.782 36.6507 122.372 36.56 121.945 36.56C121.625 36.56 121.294 36.624 120.953 36.752C120.622 36.88 120.318 37.0827 120.041 37.36C119.774 37.6267 119.556 37.9733 119.385 38.4C119.214 38.816 119.129 39.312 119.129 39.888C119.129 40.5173 119.257 41.088 119.513 41.6C119.769 42.112 120.137 42.5173 120.617 42.816C121.108 43.1147 121.689 43.264 122.361 43.264C122.734 43.264 123.07 43.2107 123.369 43.104C123.668 42.9973 123.929 42.8587 124.153 42.688C124.377 42.5067 124.564 42.32 124.713 42.128C124.83 42.032 124.948 41.984 125.065 41.984C125.172 41.984 125.262 42.0267 125.337 42.112C125.422 42.1973 125.465 42.2933 125.465 42.4C125.465 42.528 125.412 42.64 125.305 42.736C124.985 43.12 124.569 43.456 124.057 43.744C123.545 44.0213 122.985 44.16 122.377 44.16Z" fill="#E2E2E2"/>
</svg>
