<?xml version="1.0" standalone="no"?>
<!DOCTYPE svg PUBLIC "-//W3C//DTD SVG 20010904//EN"
 "http://www.w3.org/TR/2001/REC-SVG-20010904/DTD/svg10.dtd">
<svg version="1.0" xmlns="http://www.w3.org/2000/svg"
 width="178.000000pt" height="300.000000pt" viewBox="0 0 178.000000 300.000000"
 preserveAspectRatio="xMidYMid meet">

<g transform="translate(0.000000,300.000000) scale(0.100000,-0.100000)"
fill="#000000" stroke="none">
<path d="M0 2969 c0 -35 0 -35 63 -46 121 -21 141 -40 158 -144 6 -35 12 -65
14 -68 3 -2 13 7 24 21 40 50 186 114 258 112 23 0 40 3 38 6 -8 13 72 5 88
-9 19 -15 23 -1 5 17 -18 18 -1 15 29 -5 15 -10 24 -13 20 -7 -4 8 1 12 16 11
12 0 29 2 37 5 8 2 12 3 7 1 -4 -3 -5 -9 -1 -14 3 -5 18 -2 34 6 16 8 37 15
46 15 10 0 25 7 35 16 19 17 116 34 205 34 298 1 494 -196 599 -600 22 -84 23
-85 56 -88 l34 -3 0 228 c0 125 4 299 8 387 l8 159 -103 -9 c-133 -12 -1223
-11 -1480 0 l-198 9 0 -34z"/>
<path d="M825 2840 c-8 -13 -1 -24 14 -19 6 3 7 10 2 18 -6 10 -10 10 -16 1z"/>
<path d="M600 2836 c0 -2 7 -7 16 -10 8 -3 12 -2 9 4 -6 10 -25 14 -25 6z"/>
<path d="M577 2822 c8 -5 0 -18 -25 -41 -20 -18 -38 -32 -40 -31 -2 1 -6 -1
-9 -3 -3 -3 2 -5 9 -3 8 1 34 17 57 35 32 25 39 36 29 42 -7 5 -17 9 -23 9 -5
0 -5 -4 2 -8z"/>
<path d="M418 2813 c-10 -2 -18 -9 -18 -14 0 -14 20 -11 36 6 16 15 13 16 -18
8z"/>
<path d="M435 2780 c-3 -6 1 -7 9 -4 18 7 21 14 7 14 -6 0 -13 -4 -16 -10z"/>
<path d="M481 2781 c-8 -5 -9 -11 -3 -15 5 -3 15 1 22 9 14 16 3 20 -19 6z"/>
<path d="M852 2758 c-8 -18 -31 -82 -53 -142 -66 -183 -112 -260 -213 -361
-77 -76 -159 -131 -260 -171 -43 -18 -82 -36 -87 -41 -4 -4 -9 -258 -11 -563
-3 -493 -5 -559 -20 -592 -21 -47 -64 -69 -145 -76 -63 -5 -63 -5 -63 -36 l0
-31 615 0 615 -1 0 31 0 32 -109 10 c-132 13 -183 36 -215 98 -20 38 -21 57
-24 483 l-3 442 51 0 c181 0 346 -144 406 -355 18 -64 19 -65 53 -65 l34 0 -9
153 c-4 83 -8 287 -9 452 l0 300 -30 0 c-28 0 -32 -5 -51 -60 -34 -100 -75
-167 -149 -240 -81 -81 -152 -115 -241 -115 l-54 0 0 440 c0 242 -4 440 -8
440 -4 0 -13 -15 -20 -32z"/>
<path d="M366 2751 c-18 -7 -18 -8 -2 -14 28 -11 43 -8 50 8 6 16 -15 19 -48
6z"/>
<path d="M751 2744 c0 -11 3 -14 6 -6 3 7 2 16 -1 19 -3 4 -6 -2 -5 -13z"/>
<path d="M457 2713 c-16 -8 -31 -21 -34 -29 -3 -8 -10 -11 -16 -7 -6 3 -7 1
-3 -5 4 -7 4 -18 -1 -24 -4 -7 -8 -17 -9 -23 -1 -5 -5 -22 -9 -36 -4 -17 -2
-30 5 -34 7 -4 10 -1 9 6 -5 21 39 111 68 142 30 30 29 31 -10 10z"/>
<path d="M316 2712 c-3 -5 1 -9 9 -9 8 0 12 4 9 9 -3 4 -7 8 -9 8 -2 0 -6 -4
-9 -8z"/>
<path d="M750 2706 c0 -9 5 -16 10 -16 6 0 10 4 10 9 0 6 -4 13 -10 16 -5 3
-10 -1 -10 -9z"/>
<path d="M661 2659 c0 -15 -4 -41 -7 -58 -4 -18 -2 -31 4 -31 14 0 18 29 11
75 -4 28 -7 32 -8 14z"/>
<path d="M288 2663 c7 -3 16 -2 19 1 4 3 -2 6 -13 5 -11 0 -14 -3 -6 -6z"/>
<path d="M527 2652 c-9 -10 -14 -21 -11 -25 9 -8 36 21 32 34 -2 6 -11 2 -21
-9z"/>
<path d="M295 2598 c-11 -6 -22 -12 -24 -14 -1 -1 5 -13 14 -26 9 -13 15 -16
12 -8 -2 8 2 23 11 33 19 22 13 29 -13 15z"/>
<path d="M581 2584 c0 -11 3 -14 6 -6 3 7 2 16 -1 19 -3 4 -6 -2 -5 -13z"/>
<path d="M481 2574 c0 -11 3 -14 6 -6 3 7 2 16 -1 19 -3 4 -6 -2 -5 -13z"/>
<path d="M441 2564 c0 -11 3 -14 6 -6 3 7 2 16 -1 19 -3 4 -6 -2 -5 -13z"/>
<path d="M325 2549 c-4 -6 -5 -12 -2 -15 2 -3 7 2 10 11 7 17 1 20 -8 4z"/>
<path d="M495 2540 c3 -5 8 -10 11 -10 2 0 4 5 4 10 0 6 -5 10 -11 10 -5 0 -7
-4 -4 -10z"/>
<path d="M560 2530 c-9 -16 -8 -18 5 -14 8 4 15 12 15 20 0 20 -7 17 -20 -6z"/>
<path d="M210 2490 c0 -11 4 -20 9 -20 5 0 7 9 4 20 -3 11 -7 20 -9 20 -2 0
-4 -9 -4 -20z"/>
<path d="M372 2475 c0 -16 2 -22 5 -12 2 9 2 23 0 30 -3 6 -5 -1 -5 -18z"/>
<path d="M432 2480 c0 -14 2 -19 5 -12 2 6 2 18 0 25 -3 6 -5 1 -5 -13z"/>
<path d="M580 2466 c0 -31 6 -34 13 -6 3 11 1 23 -4 26 -5 3 -9 -6 -9 -20z"/>
<path d="M521 2428 c-1 -16 4 -28 9 -28 12 0 12 8 0 35 -8 18 -9 17 -9 -7z"/>
<path d="M612 2441 c4 -13 18 -16 19 -4 0 4 -5 9 -11 12 -7 2 -11 -2 -8 -8z"/>
<path d="M246 2404 c-13 -29 -14 -39 -5 -48 9 -8 10 -8 5 1 -3 6 3 28 15 47
11 20 17 36 12 36 -5 0 -17 -16 -27 -36z"/>
<path d="M370 2402 c0 -18 5 -32 10 -32 6 0 8 11 4 28 -10 39 -14 40 -14 4z"/>
<path d="M322 2400 c0 -14 2 -19 5 -12 2 6 2 18 0 25 -3 6 -5 1 -5 -13z"/>
<path d="M586 2403 c-11 -11 -6 -23 9 -23 8 0 15 4 15 9 0 13 -16 22 -24 14z"/>
<path d="M433 2385 c-8 -22 6 -33 17 -15 13 20 12 30 0 30 -6 0 -13 -7 -17
-15z"/>
<path d="M211 2345 c1 -19 18 -51 18 -35 0 8 -4 22 -9 30 -5 8 -9 11 -9 5z"/>
<path d="M301 2302 c-7 -13 -9 -32 -6 -43 7 -21 7 -21 21 -1 9 14 11 28 5 43
l-8 23 -12 -22z"/>
<path d="M447 2289 c7 -7 15 -10 18 -7 3 3 -2 9 -12 12 -14 6 -15 5 -6 -5z"/>
<path d="M210 2236 c0 -9 5 -16 10 -16 6 0 10 4 10 9 0 6 -4 13 -10 16 -5 3
-10 -1 -10 -9z"/>
<path d="M331 2224 c0 -11 3 -14 6 -6 3 7 2 16 -1 19 -3 4 -6 -2 -5 -13z"/>
<path d="M291 2184 c0 -11 3 -14 6 -6 3 7 2 16 -1 19 -3 4 -6 -2 -5 -13z"/>
<path d="M316 2165 c-9 -26 -7 -32 5 -12 6 10 9 21 6 23 -2 3 -7 -2 -11 -11z"/>
<path d="M30 275 l0 -275 30 0 30 0 0 115 0 114 143 3 c134 3 142 4 142 23 0
19 -8 20 -142 23 l-143 3 0 109 0 110 160 0 160 0 0 25 0 25 -190 0 -190 0 0
-275z"/>
<path d="M532 278 l3 -273 198 -3 197 -2 0 25 0 25 -170 0 -170 0 0 100 0 99
143 3 142 3 0 25 0 25 -142 3 -143 3 0 94 0 95 159 0 c163 0 171 2 171 41 0 5
-83 9 -195 9 l-195 0 2 -272z"/>
<path d="M1070 546 c-3 -2 -4 -126 -2 -276 l3 -271 27 3 27 3 0 216 c0 141 4
215 10 212 6 -2 31 -32 57 -66 50 -66 64 -84 146 -186 74 -92 73 -91 110 -139
23 -29 41 -42 58 -42 l24 0 0 275 0 275 -30 0 -30 0 0 -217 c0 -201 -1 -216
-16 -201 -9 9 -87 106 -173 215 -119 150 -163 199 -182 201 -14 2 -27 1 -29
-2z"/>
<path d="M1712 278 l3 -273 28 -3 27 -3 0 275 0 276 -30 0 -30 0 2 -272z"/>
</g>
</svg>
