<svg width="40" height="40" viewBox="0 0 40 40" fill="none" xmlns="http://www.w3.org/2000/svg">
<ellipse cx="20" cy="20.004" rx="20" ry="20.004" fill="white"/>
<path d="M24 15.0254C25.5913 15.0254 27.1174 15.6575 28.2426 16.7828C29.3679 17.908 30 19.4341 30 21.0254V28.0254H26V21.0254C26 20.495 25.7893 19.9863 25.4142 19.6112C25.0391 19.2361 24.5304 19.0254 24 19.0254C23.4696 19.0254 22.9609 19.2361 22.5858 19.6112C22.2107 19.9863 22 20.495 22 21.0254V28.0254H18V21.0254C18 19.4341 18.6321 17.908 19.7574 16.7828C20.8826 15.6575 22.4087 15.0254 24 15.0254V15.0254Z" stroke="#383638" stroke-width="2" stroke-linecap="round" stroke-linejoin="round"/>
<path d="M14 16.0254H10V28.0254H14V16.0254Z" stroke="#383638" stroke-width="2" stroke-linecap="round" stroke-linejoin="round"/>
<path d="M12 13.0254C13.1046 13.0254 14 12.13 14 11.0254C14 9.92082 13.1046 9.02539 12 9.02539C10.8954 9.02539 10 9.92082 10 11.0254C10 12.13 10.8954 13.0254 12 13.0254Z" stroke="#383638" stroke-width="2" stroke-linecap="round" stroke-linejoin="round"/>
</svg>
