<svg width="122" height="112" viewBox="0 0 122 112" fill="none" xmlns="http://www.w3.org/2000/svg">
<ellipse cx="37.7981" cy="3.54388" rx="2.5" ry="2.62469" transform="rotate(31.479 37.7981 3.54388)" fill="#24F639"/>
<ellipse cx="14.9346" cy="40.8847" rx="2.5" ry="2.62469" transform="rotate(31.479 14.9346 40.8847)" fill="#24F639"/>
<ellipse cx="69.6856" cy="23.0685" rx="2.5" ry="2.62469" transform="rotate(31.479 69.6856 23.0685)" fill="#24F639"/>
<ellipse cx="46.8218" cy="60.4091" rx="2.5" ry="2.62469" transform="rotate(31.479 46.8218 60.4091)" fill="#24F639"/>
<ellipse cx="101.573" cy="42.593" rx="2.5" ry="2.62469" transform="rotate(31.479 101.573 42.593)" fill="#24F639"/>
<ellipse cx="78.7093" cy="79.9338" rx="2.5" ry="2.62469" transform="rotate(31.479 78.7093 79.9338)" fill="#24F639"/>
<ellipse cx="26.3665" cy="22.2141" rx="2.5" ry="2.62469" transform="rotate(31.479 26.3665 22.2141)" fill="#24F639"/>
<ellipse cx="3.50296" cy="59.5546" rx="2.5" ry="2.62469" transform="rotate(31.479 3.50296 59.5546)" fill="#24F639"/>
<ellipse cx="58.2537" cy="41.7387" rx="2.5" ry="2.62469" transform="rotate(31.479 58.2537 41.7387)" fill="#24F639"/>
<ellipse cx="35.3904" cy="79.0793" rx="2.5" ry="2.62469" transform="rotate(31.479 35.3904 79.0793)" fill="#24F639"/>
<ellipse cx="90.1411" cy="61.2634" rx="2.5" ry="2.62469" transform="rotate(31.479 90.1411 61.2634)" fill="#24F639"/>
<ellipse cx="67.2776" cy="98.6037" rx="2.5" ry="2.62469" transform="rotate(31.479 67.2776 98.6037)" fill="#24F639"/>
<ellipse cx="53.7417" cy="13.3061" rx="2.5" ry="2.62469" transform="rotate(31.479 53.7417 13.3061)" fill="#24F639"/>
<ellipse cx="30.8782" cy="50.6469" rx="2.5" ry="2.62469" transform="rotate(31.479 30.8782 50.6469)" fill="#24F639"/>
<ellipse cx="85.6292" cy="32.8307" rx="2.5" ry="2.62469" transform="rotate(31.479 85.6292 32.8307)" fill="#24F639"/>
<ellipse cx="62.7657" cy="70.1713" rx="2.5" ry="2.62469" transform="rotate(31.479 62.7657 70.1713)" fill="#24F639"/>
<ellipse cx="117.517" cy="52.3552" rx="2.5" ry="2.62469" transform="rotate(31.479 117.517 52.3552)" fill="#24F639"/>
<ellipse cx="94.6531" cy="89.696" rx="2.5" ry="2.62469" transform="rotate(31.479 94.6531 89.696)" fill="#24F639"/>
<ellipse cx="42.3101" cy="31.9765" rx="2.5" ry="2.62469" transform="rotate(31.479 42.3101 31.9765)" fill="#24F639"/>
<ellipse cx="19.4466" cy="69.3171" rx="2.5" ry="2.62469" transform="rotate(31.479 19.4466 69.3171)" fill="#24F639"/>
<ellipse cx="74.1975" cy="51.5009" rx="2.5" ry="2.62469" transform="rotate(31.479 74.1975 51.5009)" fill="#24F639"/>
<ellipse cx="51.334" cy="88.8415" rx="2.5" ry="2.62469" transform="rotate(31.479 51.334 88.8415)" fill="#24F639"/>
<ellipse cx="106.085" cy="71.0256" rx="2.5" ry="2.62469" transform="rotate(31.479 106.085 71.0256)" fill="#24F639"/>
<ellipse cx="83.2215" cy="108.366" rx="2.5" ry="2.62469" transform="rotate(31.479 83.2215 108.366)" fill="#24F639"/>
</svg>
