<svg width="100" height="72" viewBox="0 0 100 72" fill="none" xmlns="http://www.w3.org/2000/svg">
<ellipse cx="3.42554" cy="2.92889" rx="2.5" ry="2.62469" fill="#377DFF"/>
<ellipse cx="3.42554" cy="46.7133" rx="2.5" ry="2.62469" fill="#377DFF"/>
<ellipse cx="40.8157" cy="2.92889" rx="2.5" ry="2.62469" fill="#377DFF"/>
<ellipse cx="40.8157" cy="46.7133" rx="2.5" ry="2.62469" fill="#377DFF"/>
<ellipse cx="78.2056" cy="2.92889" rx="2.5" ry="2.62469" fill="#377DFF"/>
<ellipse cx="78.2056" cy="46.7133" rx="2.5" ry="2.62469" fill="#377DFF"/>
<ellipse cx="3.42554" cy="24.821" rx="2.5" ry="2.62469" fill="#377DFF"/>
<ellipse cx="3.42554" cy="68.6052" rx="2.5" ry="2.62469" fill="#377DFF"/>
<ellipse cx="40.8157" cy="24.821" rx="2.5" ry="2.62469" fill="#377DFF"/>
<ellipse cx="40.8157" cy="68.6052" rx="2.5" ry="2.62469" fill="#377DFF"/>
<ellipse cx="78.2056" cy="24.821" rx="2.5" ry="2.62469" fill="#377DFF"/>
<ellipse cx="78.2056" cy="68.6052" rx="2.5" ry="2.62469" fill="#377DFF"/>
<ellipse cx="22.1206" cy="2.92889" rx="2.5" ry="2.62469" fill="#377DFF"/>
<ellipse cx="22.1206" cy="46.7133" rx="2.5" ry="2.62469" fill="#377DFF"/>
<ellipse cx="59.5105" cy="2.92889" rx="2.5" ry="2.62469" fill="#377DFF"/>
<ellipse cx="59.5105" cy="46.7133" rx="2.5" ry="2.62469" fill="#377DFF"/>
<ellipse cx="96.9006" cy="2.92889" rx="2.5" ry="2.62469" fill="#377DFF"/>
<ellipse cx="96.9006" cy="46.7133" rx="2.5" ry="2.62469" fill="#377DFF"/>
<ellipse cx="22.1206" cy="24.821" rx="2.5" ry="2.62469" fill="#377DFF"/>
<ellipse cx="22.1206" cy="68.6052" rx="2.5" ry="2.62469" fill="#377DFF"/>
<ellipse cx="59.5105" cy="24.821" rx="2.5" ry="2.62469" fill="#377DFF"/>
<ellipse cx="59.5105" cy="68.6052" rx="2.5" ry="2.62469" fill="#377DFF"/>
<ellipse cx="96.9006" cy="24.821" rx="2.5" ry="2.62469" fill="#377DFF"/>
<ellipse cx="96.9006" cy="68.6052" rx="2.5" ry="2.62469" fill="#377DFF"/>
</svg>
