<svg width="100" height="73" viewBox="0 0 100 73" fill="none" xmlns="http://www.w3.org/2000/svg">
<ellipse cx="2.53392" cy="3.87248" rx="2.5" ry="2.62469" transform="rotate(-0.745038 2.53392 3.87248)" fill="#EB00FF"/>
<ellipse cx="3.10325" cy="47.6532" rx="2.5" ry="2.62469" transform="rotate(-0.745038 3.10325 47.6532)" fill="#EB00FF"/>
<ellipse cx="39.9209" cy="3.38627" rx="2.5" ry="2.62469" transform="rotate(-0.745038 39.9209 3.38627)" fill="#EB00FF"/>
<ellipse cx="40.4902" cy="47.167" rx="2.5" ry="2.62469" transform="rotate(-0.745038 40.4902 47.167)" fill="#EB00FF"/>
<ellipse cx="77.3076" cy="2.90007" rx="2.5" ry="2.62469" transform="rotate(-0.745038 77.3076 2.90007)" fill="#EB00FF"/>
<ellipse cx="77.8769" cy="46.6808" rx="2.5" ry="2.62469" transform="rotate(-0.745038 77.8769 46.6808)" fill="#EB00FF"/>
<ellipse cx="2.81859" cy="25.7627" rx="2.5" ry="2.62469" transform="rotate(-0.745038 2.81859 25.7627)" fill="#EB00FF"/>
<ellipse cx="3.38792" cy="69.5431" rx="2.5" ry="2.62469" transform="rotate(-0.745038 3.38792 69.5431)" fill="#EB00FF"/>
<ellipse cx="40.2055" cy="25.2765" rx="2.5" ry="2.62469" transform="rotate(-0.745038 40.2055 25.2765)" fill="#EB00FF"/>
<ellipse cx="40.7749" cy="69.0571" rx="2.5" ry="2.62469" transform="rotate(-0.745038 40.7749 69.0571)" fill="#EB00FF"/>
<ellipse cx="77.5923" cy="24.7903" rx="2.5" ry="2.62469" transform="rotate(-0.745038 77.5923 24.7903)" fill="#EB00FF"/>
<ellipse cx="78.1616" cy="68.5708" rx="2.5" ry="2.62469" transform="rotate(-0.745038 78.1616 68.5708)" fill="#EB00FF"/>
<ellipse cx="21.2273" cy="3.62944" rx="2.5" ry="2.62469" transform="rotate(-0.745038 21.2273 3.62944)" fill="#EB00FF"/>
<ellipse cx="21.7966" cy="47.4101" rx="2.5" ry="2.62469" transform="rotate(-0.745038 21.7966 47.4101)" fill="#EB00FF"/>
<ellipse cx="58.6142" cy="3.14323" rx="2.5" ry="2.62469" transform="rotate(-0.745038 58.6142 3.14323)" fill="#EB00FF"/>
<ellipse cx="59.1836" cy="46.9239" rx="2.5" ry="2.62469" transform="rotate(-0.745038 59.1836 46.9239)" fill="#EB00FF"/>
<ellipse cx="96.001" cy="2.65703" rx="2.5" ry="2.62469" transform="rotate(-0.745038 96.001 2.65703)" fill="#EB00FF"/>
<ellipse cx="96.5703" cy="46.4378" rx="2.5" ry="2.62469" transform="rotate(-0.745038 96.5703 46.4378)" fill="#EB00FF"/>
<ellipse cx="21.5119" cy="25.5196" rx="2.5" ry="2.62469" transform="rotate(-0.745038 21.5119 25.5196)" fill="#EB00FF"/>
<ellipse cx="22.0813" cy="69.3001" rx="2.5" ry="2.62469" transform="rotate(-0.745038 22.0813 69.3001)" fill="#EB00FF"/>
<ellipse cx="58.8989" cy="25.0335" rx="2.5" ry="2.62469" transform="rotate(-0.745038 58.8989 25.0335)" fill="#EB00FF"/>
<ellipse cx="59.4682" cy="68.8139" rx="2.5" ry="2.62469" transform="rotate(-0.745038 59.4682 68.8139)" fill="#EB00FF"/>
<ellipse cx="96.2856" cy="24.5473" rx="2.5" ry="2.62469" transform="rotate(-0.745038 96.2856 24.5473)" fill="#EB00FF"/>
<ellipse cx="96.855" cy="68.3277" rx="2.5" ry="2.62469" transform="rotate(-0.745038 96.855 68.3277)" fill="#EB00FF"/>
</svg>
