<svg width="211" height="71" viewBox="0 0 211 71" fill="none" xmlns="http://www.w3.org/2000/svg">
<ellipse cx="2.39812" cy="2.5" rx="2.39812" ry="2.5" fill="#FF5C00"/>
<ellipse cx="2.39812" cy="46.2843" rx="2.39812" ry="2.5" fill="#FF5C00"/>
<ellipse cx="40.0533" cy="2.5" rx="2.39812" ry="2.5" fill="#FF5C00"/>
<ellipse cx="40.0533" cy="46.2843" rx="2.39812" ry="2.5" fill="#FF5C00"/>
<ellipse cx="77.7084" cy="2.5" rx="2.39812" ry="2.5" fill="#FF5C00"/>
<ellipse cx="77.7084" cy="46.2843" rx="2.39812" ry="2.5" fill="#FF5C00"/>
<ellipse cx="2.39812" cy="24.3921" rx="2.39812" ry="2.5" fill="#FF5C00"/>
<ellipse cx="2.39812" cy="68.1764" rx="2.39812" ry="2.5" fill="#FF5C00"/>
<ellipse cx="40.0533" cy="24.3921" rx="2.39812" ry="2.5" fill="#FF5C00"/>
<ellipse cx="40.0533" cy="68.1764" rx="2.39812" ry="2.5" fill="#FF5C00"/>
<ellipse cx="77.7084" cy="24.3921" rx="2.39812" ry="2.5" fill="#FF5C00"/>
<ellipse cx="77.7084" cy="68.1764" rx="2.39812" ry="2.5" fill="#FF5C00"/>
<ellipse cx="21.2258" cy="2.5" rx="2.39812" ry="2.5" fill="#FF5C00"/>
<ellipse cx="21.2258" cy="46.2843" rx="2.39812" ry="2.5" fill="#FF5C00"/>
<ellipse cx="58.8809" cy="2.5" rx="2.39812" ry="2.5" fill="#FF5C00"/>
<ellipse cx="58.8809" cy="46.2843" rx="2.39812" ry="2.5" fill="#FF5C00"/>
<ellipse cx="96.5361" cy="2.5" rx="2.39812" ry="2.5" fill="#FF5C00"/>
<ellipse cx="96.5361" cy="46.2843" rx="2.39812" ry="2.5" fill="#FF5C00"/>
<ellipse cx="21.2258" cy="24.3921" rx="2.39812" ry="2.5" fill="#FF5C00"/>
<ellipse cx="21.2258" cy="68.1764" rx="2.39812" ry="2.5" fill="#FF5C00"/>
<ellipse cx="58.8809" cy="24.3921" rx="2.39812" ry="2.5" fill="#FF5C00"/>
<ellipse cx="58.8809" cy="68.1764" rx="2.39812" ry="2.5" fill="#FF5C00"/>
<ellipse cx="96.5361" cy="24.3921" rx="2.39812" ry="2.5" fill="#FF5C00"/>
<ellipse cx="96.5361" cy="68.1764" rx="2.39812" ry="2.5" fill="#FF5C00"/>
<ellipse cx="114.23" cy="2.62469" rx="2.5" ry="2.62469" fill="#FF5C00"/>
<ellipse cx="114.23" cy="46.4091" rx="2.5" ry="2.62469" fill="#FF5C00"/>
<ellipse cx="151.62" cy="2.62469" rx="2.5" ry="2.62469" fill="#FF5C00"/>
<ellipse cx="151.62" cy="46.4091" rx="2.5" ry="2.62469" fill="#FF5C00"/>
<ellipse cx="189.01" cy="2.62469" rx="2.5" ry="2.62469" fill="#FF5C00"/>
<ellipse cx="189.01" cy="46.4091" rx="2.5" ry="2.62469" fill="#FF5C00"/>
<ellipse cx="114.23" cy="24.5168" rx="2.5" ry="2.62469" fill="#FF5C00"/>
<ellipse cx="114.23" cy="68.301" rx="2.5" ry="2.62469" fill="#FF5C00"/>
<ellipse cx="151.62" cy="24.5168" rx="2.5" ry="2.62469" fill="#FF5C00"/>
<ellipse cx="151.62" cy="68.301" rx="2.5" ry="2.62469" fill="#FF5C00"/>
<ellipse cx="189.01" cy="24.5168" rx="2.5" ry="2.62469" fill="#FF5C00"/>
<ellipse cx="189.01" cy="68.301" rx="2.5" ry="2.62469" fill="#FF5C00"/>
<ellipse cx="132.926" cy="2.62469" rx="2.5" ry="2.62469" fill="#FF5C00"/>
<ellipse cx="132.926" cy="46.4091" rx="2.5" ry="2.62469" fill="#FF5C00"/>
<ellipse cx="170.316" cy="2.62469" rx="2.5" ry="2.62469" fill="#FF5C00"/>
<ellipse cx="170.316" cy="46.4091" rx="2.5" ry="2.62469" fill="#FF5C00"/>
<ellipse cx="207.706" cy="2.62469" rx="2.5" ry="2.62469" fill="#FF5C00"/>
<ellipse cx="207.706" cy="46.4091" rx="2.5" ry="2.62469" fill="#FF5C00"/>
<ellipse cx="132.926" cy="24.5168" rx="2.5" ry="2.62469" fill="#FF5C00"/>
<ellipse cx="132.926" cy="68.301" rx="2.5" ry="2.62469" fill="#FF5C00"/>
<ellipse cx="170.316" cy="24.5168" rx="2.5" ry="2.62469" fill="#FF5C00"/>
<ellipse cx="170.316" cy="68.301" rx="2.5" ry="2.62469" fill="#FF5C00"/>
<ellipse cx="207.706" cy="24.5168" rx="2.5" ry="2.62469" fill="#FF5C00"/>
<ellipse cx="207.706" cy="68.301" rx="2.5" ry="2.62469" fill="#FF5C00"/>
</svg>
