<svg xmlns="http://www.w3.org/2000/svg" width="237.333" height="400" version="1.0" viewBox="0 0 178 300"><path d="M0 3.1c0 3.5 0 3.5 6.3 4.6 12.1 2.1 14.1 4 15.8 14.4.6 3.5 1.2 6.5 1.4 6.8.3.2 1.3-.7 2.4-2.1 4-5 18.6-11.4 25.8-11.2 2.3 0 4-.3 3.8-.6-.8-1.3 7.2-.5 8.8.9 1.9 1.5 2.3.1.5-1.7-1.8-1.8-.1-1.5 2.9.5 1.5 1 2.4 1.3 2 .7-.4-.8.1-1.2 1.6-1.1 1.2 0 2.9-.2 3.7-.5.8-.2 1.2-.3.7-.1-.4.3-.5.9-.1 1.4.3.5 1.8.2 3.4-.6 1.6-.8 3.7-1.5 4.6-1.5 1 0 2.5-.7 3.5-1.6C89 9.7 98.7 8 107.6 8c29.8-.1 49.4 19.6 59.9 60 2.2 8.4 2.3 8.5 5.6 8.8l3.4.3V54.3c0-12.5.4-29.9.8-38.7l.8-15.9-10.3.9c-13.3 1.2-122.3 1.1-148 0L0-.3v3.4z"/><path d="M82.5 16c-.8 1.3-.1 2.4 1.4 1.9.6-.3.7-1 .2-1.8-.6-1-1-1-1.6-.1zm-22.5.4c0 .2.7.7 1.6 1 .8.3 1.2.2.9-.4-.6-1-2.5-1.4-2.5-.6zm-2.3 1.4c.8.5 0 1.8-2.5 4.1-2 1.8-3.8 3.2-4 3.1-.2-.1-.6.1-.9.3-.3.3.2.5.9.3.8-.1 3.4-1.7 5.7-3.5 3.2-2.5 3.9-3.6 2.9-4.2-.7-.5-1.7-.9-2.3-.9-.5 0-.5.4.2.8zm-15.9.9c-1 .2-1.8.9-1.8 1.4 0 1.4 2 1.1 3.6-.6 1.6-1.5 1.3-1.6-1.8-.8zm1.7 3.3c-.3.6.1.7.9.4 1.8-.7 2.1-1.4.7-1.4-.6 0-1.3.4-1.6 1zm4.6-.1c-.8.5-.9 1.1-.3 1.5.5.3 1.5-.1 2.2-.9 1.4-1.6.3-2-1.9-.6zm37.1 2.3c-.8 1.8-3.1 8.2-5.3 14.2-6.6 18.3-11.2 26-21.3 36.1-7.7 7.6-15.9 13.1-26 17.1-4.3 1.8-8.2 3.6-8.7 4.1-.4.4-.9 25.8-1.1 56.3-.3 49.3-.5 55.9-2 59.2-2.1 4.7-6.4 6.9-14.5 7.6-6.3.5-6.3.5-6.3 3.6v3.1h61.5l61.5.1v-6.3l-10.9-1c-13.2-1.3-18.3-3.6-21.5-9.8-2-3.8-2.1-5.7-2.4-48.3l-.3-44.2H93c18.1 0 34.6 14.4 40.6 35.5 1.8 6.4 1.9 6.5 5.3 6.5h3.4l-.9-15.3c-.4-8.3-.8-28.7-.9-45.2v-30h-3c-2.8 0-3.2.5-5.1 6-3.4 10-7.5 16.7-14.9 24-8.1 8.1-15.2 11.5-24.1 11.5H88V65c0-24.2-.4-44-.8-44s-1.3 1.5-2 3.2zm-48.6.7c-1.8.7-1.8.8-.2 1.4 2.8 1.1 4.3.8 5-.8.6-1.6-1.5-1.9-4.8-.6zm38.5.7c0 1.1.3 1.4.6.6.3-.7.2-1.6-.1-1.9-.3-.4-.6.2-.5 1.3zm-29.4 3.1c-1.6.8-3.1 2.1-3.4 2.9-.3.8-1 1.1-1.6.7-.6-.3-.7-.1-.3.5.4.7.4 1.8-.1 2.4-.4.7-.8 1.7-.9 2.3-.1.5-.5 2.2-.9 3.6-.4 1.7-.2 3 .5 3.4.7.4 1 .1.9-.6-.5-2.1 3.9-11.1 6.8-14.2 3-3 2.9-3.1-1-1zm-14.1.1c-.3.5.1.9.9.9s1.2-.4.9-.9c-.3-.4-.7-.8-.9-.8-.2 0-.6.4-.9.8zm43.4.6c0 .9.5 1.6 1 1.6.6 0 1-.4 1-.9 0-.6-.4-1.3-1-1.6-.5-.3-1 .1-1 .9zm-8.9 4.7c0 1.5-.4 4.1-.7 5.8-.4 1.8-.2 3.1.4 3.1 1.4 0 1.8-2.9 1.1-7.5-.4-2.8-.7-3.2-.8-1.4zm-37.3-.4c.7.3 1.6.2 1.9-.1.4-.3-.2-.6-1.3-.5-1.1 0-1.4.3-.6.6zm23.9 1.1c-.9 1-1.4 2.1-1.1 2.5.9.8 3.6-2.1 3.2-3.4-.2-.6-1.1-.2-2.1.9zm-23.2 5.4c-1.1.6-2.2 1.2-2.4 1.4-.1.1.5 1.3 1.4 2.6.9 1.3 1.5 1.6 1.2.8-.2-.8.2-2.3 1.1-3.3 1.9-2.2 1.3-2.9-1.3-1.5zm28.6 1.4c0 1.1.3 1.4.6.6.3-.7.2-1.6-.1-1.9-.3-.4-.6.2-.5 1.3zm-10 1c0 1.1.3 1.4.6.6.3-.7.2-1.6-.1-1.9-.3-.4-.6.2-.5 1.3zm-4 1c0 1.1.3 1.4.6.6.3-.7.2-1.6-.1-1.9-.3-.4-.6.2-.5 1.3zm-11.6 1.5c-.4.6-.5 1.2-.2 1.5.2.3.7-.2 1-1.1.7-1.7.1-2-.8-.4zm17 .9c.3.5.8 1 1.1 1 .2 0 .4-.5.4-1 0-.6-.5-1-1.1-1-.5 0-.7.4-.4 1zm6.5 1c-.9 1.6-.8 1.8.5 1.4.8-.4 1.5-1.2 1.5-2 0-2-.7-1.7-2 .6zm-35 4c0 1.1.4 2 .9 2s.7-.9.4-2c-.3-1.1-.7-2-.9-2-.2 0-.4.9-.4 2zm16.2 1.5c0 1.6.2 2.2.5 1.2.2-.9.2-2.3 0-3-.3-.6-.5.1-.5 1.8zm6-.5c0 1.4.2 1.9.5 1.2.2-.6.2-1.8 0-2.5-.3-.6-.5-.1-.5 1.3z"/><path d="M58 53.4c0 3.1.6 3.4 1.3.6.3-1.1.1-2.3-.4-2.6-.5-.3-.9.6-.9 2zm-5.9 3.8c-.1 1.6.4 2.8.9 2.8 1.2 0 1.2-.8 0-3.5-.8-1.8-.9-1.7-.9.7zm9.1-1.3c.4 1.3 1.8 1.6 1.9.4 0-.4-.5-.9-1.1-1.2-.7-.2-1.1.2-.8.8zm-36.6 3.7c-1.3 2.9-1.4 3.9-.5 4.8.9.8 1 .8.5-.1-.3-.6.3-2.8 1.5-4.7 1.1-2 1.7-3.6 1.2-3.6s-1.7 1.6-2.7 3.6zm12.4.2c0 1.8.5 3.2 1 3.2.6 0 .8-1.1.4-2.8-1-3.9-1.4-4-1.4-.4zm-4.8.2c0 1.4.2 1.9.5 1.2.2-.6.2-1.8 0-2.5-.3-.6-.5-.1-.5 1.3zm26.4-.3c-1.1 1.1-.6 2.3.9 2.3.8 0 1.5-.4 1.5-.9 0-1.3-1.6-2.2-2.4-1.4zm-15.3 1.8c-.8 2.2.6 3.3 1.7 1.5 1.3-2 1.2-3 0-3-.6 0-1.3.7-1.7 1.5zm-22.2 4c.1 1.9 1.8 5.1 1.8 3.5 0-.8-.4-2.2-.9-3-.5-.8-.9-1.1-.9-.5zm9 4.3c-.7 1.3-.9 3.2-.6 4.3.7 2.1.7 2.1 2.1.1.9-1.4 1.1-2.8.5-4.3l-.8-2.3-1.2 2.2zm14.6 1.3c.7.7 1.5 1 1.8.7.3-.3-.2-.9-1.2-1.2-1.4-.6-1.5-.5-.6.5zM21 76.4c0 .9.5 1.6 1 1.6.6 0 1-.4 1-.9 0-.6-.4-1.3-1-1.6-.5-.3-1 .1-1 .9zm12.1 1.2c0 1.1.3 1.4.6.6.3-.7.2-1.6-.1-1.9-.3-.4-.6.2-.5 1.3zm-4 4c0 1.1.3 1.4.6.6.3-.7.2-1.6-.1-1.9-.3-.4-.6.2-.5 1.3zm2.5 1.9c-.9 2.6-.7 3.2.5 1.2.6-1 .9-2.1.6-2.3-.2-.3-.7.2-1.1 1.1zM3 272.5V300h6v-22.9l14.3-.3c13.4-.3 14.2-.4 14.2-2.3s-.8-2-14.2-2.3L9 271.9V250h32v-5H3v27.5zm50.2-.3.3 27.3 19.8.3 19.7.2v-5H59v-19.9l14.3-.3 14.2-.3v-5l-14.2-.3-14.3-.3V250h15.9c16.3 0 17.1-.2 17.1-4.1 0-.5-8.3-.9-19.5-.9H53l.2 27.2zm53.8-26.8c-.3.2-.4 12.6-.2 27.6l.3 27.1 2.7-.3 2.7-.3v-21.6c0-14.1.4-21.5 1-21.2.6.2 3.1 3.2 5.7 6.6 5 6.6 6.4 8.4 14.6 18.6 7.4 9.2 7.3 9.1 11 13.9 2.3 2.9 4.1 4.2 5.8 4.2h2.4v-55h-6v21.7c0 20.1-.1 21.6-1.6 20.1-.9-.9-8.7-10.6-17.3-21.5-11.9-15-16.3-19.9-18.2-20.1-1.4-.2-2.7-.1-2.9.2zm64.2 26.8.3 27.3 2.8.3 2.7.3V245h-6l.2 27.2z"/></svg>